<mxfile host="app.diagrams.net" modified="2022-04-01T03:22:42.569Z" agent="5.0 (Windows NT 10.0; Win64; x64) AppleWebKit/537.36 (KHTML, like Gecko) Chrome/99.0.4844.84 Safari/537.36" etag="kzmGnEtVeNWISIAC3N7z" version="17.4.0" type="github" pages="2">
  <diagram id="LJ_1WeQ_WVAs8RRzziaY" name="Page-1">
    <mxGraphModel dx="4740" dy="2457" grid="1" gridSize="10" guides="1" tooltips="1" connect="1" arrows="1" fold="1" page="1" pageScale="1" pageWidth="4681" pageHeight="3300" math="0" shadow="0">
      <root>
        <mxCell id="0" />
        <mxCell id="1" parent="0" />
        <mxCell id="G7gRL9SPklHr558Kcwvp-86" value="" style="group" parent="1" vertex="1" connectable="0">
          <mxGeometry x="1500" y="807.84" width="1430" height="260" as="geometry" />
        </mxCell>
        <mxCell id="G7gRL9SPklHr558Kcwvp-63" value="&lt;font style=&quot;font-size: 18px&quot;&gt;&lt;b&gt;100&lt;/b&gt;&lt;/font&gt;" style="text;html=1;strokeColor=none;fillColor=none;align=center;verticalAlign=middle;whiteSpace=wrap;rounded=0;container=0;" parent="G7gRL9SPklHr558Kcwvp-86" vertex="1">
          <mxGeometry y="61.666666666666785" width="241.69014084507035" height="65" as="geometry" />
        </mxCell>
        <mxCell id="G7gRL9SPklHr558Kcwvp-64" value="Droupout" style="text;html=1;strokeColor=none;fillColor=none;align=center;verticalAlign=middle;whiteSpace=wrap;rounded=0;container=0;fontSize=20;fontStyle=1" parent="G7gRL9SPklHr558Kcwvp-86" vertex="1">
          <mxGeometry x="241.69014084507035" y="61.666666666666785" width="120.84507042253517" height="65" as="geometry" />
        </mxCell>
        <mxCell id="G7gRL9SPklHr558Kcwvp-65" value="200" style="text;html=1;strokeColor=none;fillColor=none;align=center;verticalAlign=middle;whiteSpace=wrap;rounded=0;container=0;fontSize=20;fontStyle=1" parent="G7gRL9SPklHr558Kcwvp-86" vertex="1">
          <mxGeometry x="402.8169014084507" y="61.666666666666785" width="201.40845070422534" height="65" as="geometry" />
        </mxCell>
        <mxCell id="G7gRL9SPklHr558Kcwvp-66" value="100" style="text;html=1;strokeColor=none;fillColor=none;align=center;verticalAlign=middle;whiteSpace=wrap;rounded=0;container=0;fontSize=20;fontStyle=1" parent="G7gRL9SPklHr558Kcwvp-86" vertex="1">
          <mxGeometry x="805.6338028169014" y="61.666666666666785" width="201.40845070422534" height="65" as="geometry" />
        </mxCell>
        <mxCell id="G7gRL9SPklHr558Kcwvp-67" value="Dropout" style="text;html=1;strokeColor=none;fillColor=none;align=center;verticalAlign=middle;whiteSpace=wrap;rounded=0;container=0;fontSize=20;fontStyle=1" parent="G7gRL9SPklHr558Kcwvp-86" vertex="1">
          <mxGeometry x="644.507042253521" y="61.666666666666785" width="120.84507042253517" height="65" as="geometry" />
        </mxCell>
        <mxCell id="G7gRL9SPklHr558Kcwvp-68" value="Dropout" style="text;html=1;strokeColor=none;fillColor=none;align=center;verticalAlign=middle;whiteSpace=wrap;rounded=0;container=0;fontSize=20;fontStyle=1" parent="G7gRL9SPklHr558Kcwvp-86" vertex="1">
          <mxGeometry x="1047.3239436619717" y="61.666666666666785" width="120.84507042253517" height="65" as="geometry" />
        </mxCell>
        <mxCell id="G7gRL9SPklHr558Kcwvp-69" value="" style="shape=cube;whiteSpace=wrap;html=1;boundedLbl=1;backgroundOutline=1;darkOpacity=0.05;darkOpacity2=0.1;size=10;direction=south;fillColor=#dae8fc;strokeColor=#6c8ebf;container=0;" parent="G7gRL9SPklHr558Kcwvp-86" vertex="1">
          <mxGeometry x="20.140845070422547" width="201.40845070422534" height="65" as="geometry" />
        </mxCell>
        <mxCell id="G7gRL9SPklHr558Kcwvp-70" value="" style="shape=cube;whiteSpace=wrap;html=1;boundedLbl=1;backgroundOutline=1;darkOpacity=0.05;darkOpacity2=0.1;size=10;direction=south;dashed=1;container=0;" parent="G7gRL9SPklHr558Kcwvp-86" vertex="1">
          <mxGeometry x="1027.183098591549" width="201.40845070422534" height="65" as="geometry" />
        </mxCell>
        <mxCell id="G7gRL9SPklHr558Kcwvp-71" value="" style="shape=cube;whiteSpace=wrap;html=1;boundedLbl=1;backgroundOutline=1;darkOpacity=0.05;darkOpacity2=0.1;size=10;direction=south;fillColor=#dae8fc;strokeColor=#6c8ebf;container=0;" parent="G7gRL9SPklHr558Kcwvp-86" vertex="1">
          <mxGeometry x="825.7746478873239" width="201.40845070422534" height="65" as="geometry" />
        </mxCell>
        <mxCell id="G7gRL9SPklHr558Kcwvp-72" value="" style="shape=cube;whiteSpace=wrap;html=1;boundedLbl=1;backgroundOutline=1;darkOpacity=0.05;darkOpacity2=0.1;size=10;direction=south;dashed=1;container=0;" parent="G7gRL9SPklHr558Kcwvp-86" vertex="1">
          <mxGeometry x="624.3661971830985" width="201.40845070422534" height="65" as="geometry" />
        </mxCell>
        <mxCell id="G7gRL9SPklHr558Kcwvp-73" value="" style="shape=cube;whiteSpace=wrap;html=1;boundedLbl=1;backgroundOutline=1;darkOpacity=0.05;darkOpacity2=0.1;size=10;direction=south;fillColor=#dae8fc;strokeColor=#6c8ebf;container=0;" parent="G7gRL9SPklHr558Kcwvp-86" vertex="1">
          <mxGeometry x="422.95774647887316" width="201.40845070422534" height="65" as="geometry" />
        </mxCell>
        <mxCell id="G7gRL9SPklHr558Kcwvp-74" value="" style="shape=cube;whiteSpace=wrap;html=1;boundedLbl=1;backgroundOutline=1;darkOpacity=0.05;darkOpacity2=0.1;size=10;direction=south;dashed=1;container=0;" parent="G7gRL9SPklHr558Kcwvp-86" vertex="1">
          <mxGeometry x="221.54929577464787" width="201.40845070422534" height="65" as="geometry" />
        </mxCell>
        <mxCell id="G7gRL9SPklHr558Kcwvp-75" value="" style="shape=cube;whiteSpace=wrap;html=1;boundedLbl=1;backgroundOutline=1;darkOpacity=0.05;darkOpacity2=0.1;size=10;direction=south;fillColor=#d5e8d4;strokeColor=#82b366;container=0;" parent="G7gRL9SPklHr558Kcwvp-86" vertex="1">
          <mxGeometry x="1228.5915492957745" width="201.40845070422534" height="65" as="geometry" />
        </mxCell>
        <mxCell id="G7gRL9SPklHr558Kcwvp-76" value="" style="shape=cube;whiteSpace=wrap;html=1;boundedLbl=1;backgroundOutline=1;darkOpacity=0.05;darkOpacity2=0.1;size=10;direction=south;fillColor=#dae8fc;strokeColor=#6c8ebf;container=0;" parent="G7gRL9SPklHr558Kcwvp-86" vertex="1">
          <mxGeometry x="217.112676056338" y="150" width="80.56338028169013" height="65" as="geometry" />
        </mxCell>
        <mxCell id="G7gRL9SPklHr558Kcwvp-77" value="" style="shape=cube;whiteSpace=wrap;html=1;boundedLbl=1;backgroundOutline=1;darkOpacity=0.05;darkOpacity2=0.1;size=10;direction=south;fillColor=#d5e8d4;strokeColor=#82b366;container=0;" parent="G7gRL9SPklHr558Kcwvp-86" vertex="1">
          <mxGeometry x="1042.8873239436618" y="150" width="80.56338028169013" height="65" as="geometry" />
        </mxCell>
        <mxCell id="G7gRL9SPklHr558Kcwvp-78" value="" style="shape=cube;whiteSpace=wrap;html=1;boundedLbl=1;backgroundOutline=1;darkOpacity=0.05;darkOpacity2=0.1;size=10;direction=south;dashed=1;container=0;" parent="G7gRL9SPklHr558Kcwvp-86" vertex="1">
          <mxGeometry x="660.2112676056338" y="150" width="80.56338028169013" height="65" as="geometry" />
        </mxCell>
        <mxCell id="G7gRL9SPklHr558Kcwvp-79" value="dense + ReLu" style="text;html=1;strokeColor=none;fillColor=none;align=center;verticalAlign=middle;whiteSpace=wrap;rounded=0;dashed=1;container=0;fontSize=20;fontStyle=1" parent="G7gRL9SPklHr558Kcwvp-86" vertex="1">
          <mxGeometry x="317.8169014084507" y="150" width="201.40845070422534" height="65" as="geometry" />
        </mxCell>
        <mxCell id="G7gRL9SPklHr558Kcwvp-80" value="softmax" style="text;html=1;strokeColor=none;fillColor=none;align=center;verticalAlign=middle;whiteSpace=wrap;rounded=0;dashed=1;container=0;fontSize=20;fontStyle=1" parent="G7gRL9SPklHr558Kcwvp-86" vertex="1">
          <mxGeometry x="1123.4507042253522" y="150" width="120.84507042253517" height="65" as="geometry" />
        </mxCell>
        <mxCell id="G7gRL9SPklHr558Kcwvp-81" value="Dropout" style="text;html=1;strokeColor=none;fillColor=none;align=center;verticalAlign=middle;whiteSpace=wrap;rounded=0;dashed=1;container=0;fontSize=20;fontStyle=1" parent="G7gRL9SPklHr558Kcwvp-86" vertex="1">
          <mxGeometry x="760.9154929577463" y="150" width="120.84507042253517" height="65" as="geometry" />
        </mxCell>
        <mxCell id="G7gRL9SPklHr558Kcwvp-88" value="" style="group;fontStyle=1" parent="1" vertex="1" connectable="0">
          <mxGeometry x="840" y="130" width="1450" height="520" as="geometry" />
        </mxCell>
        <mxCell id="G7gRL9SPklHr558Kcwvp-1" value="" style="shape=cube;whiteSpace=wrap;html=1;boundedLbl=1;backgroundOutline=1;darkOpacity=0.05;darkOpacity2=0.1;size=20;direction=east;flipH=1;fillColor=#f5f5f5;strokeColor=#666666;fontColor=#333333;container=0;" parent="G7gRL9SPklHr558Kcwvp-88" vertex="1">
          <mxGeometry x="1629.0452755905512" y="156.4886486486487" width="45.66929133858268" height="70.27027027027023" as="geometry" />
        </mxCell>
        <mxCell id="G7gRL9SPklHr558Kcwvp-2" value="" style="shape=cube;whiteSpace=wrap;html=1;boundedLbl=1;backgroundOutline=1;darkOpacity=0.05;darkOpacity2=0.1;size=20;direction=east;flipH=1;fillColor=#cdeb8b;strokeColor=#36393d;container=0;" parent="G7gRL9SPklHr558Kcwvp-88" vertex="1">
          <mxGeometry x="1255.1279527559054" y="156.4886486486487" width="85.62992125984252" height="70.27027027027023" as="geometry" />
        </mxCell>
        <mxCell id="G7gRL9SPklHr558Kcwvp-3" value="" style="shape=cube;whiteSpace=wrap;html=1;boundedLbl=1;backgroundOutline=1;darkOpacity=0.05;darkOpacity2=0.1;size=20;direction=east;flipH=1;fillColor=#f8cecc;strokeColor=#b85450;container=0;" parent="G7gRL9SPklHr558Kcwvp-88" vertex="1">
          <mxGeometry x="1320.777559055118" y="156.4886486486487" width="85.62992125984252" height="70.27027027027023" as="geometry" />
        </mxCell>
        <mxCell id="G7gRL9SPklHr558Kcwvp-4" value="" style="shape=cube;whiteSpace=wrap;html=1;boundedLbl=1;backgroundOutline=1;darkOpacity=0.05;darkOpacity2=0.1;size=110;direction=east;flipH=1;fillColor=#ffe6cc;strokeColor=#d79b00;container=0;" parent="G7gRL9SPklHr558Kcwvp-88" vertex="1">
          <mxGeometry x="734.2125984251968" y="30.002162162162175" width="171.25984251968504" height="196.75675675675663" as="geometry" />
        </mxCell>
        <mxCell id="G7gRL9SPklHr558Kcwvp-5" value="" style="shape=cube;whiteSpace=wrap;html=1;boundedLbl=1;backgroundOutline=1;darkOpacity=0.05;darkOpacity2=0.1;size=3;direction=east;flipH=1;fillColor=#dae8fc;strokeColor=#6c8ebf;container=0;" parent="G7gRL9SPklHr558Kcwvp-88" vertex="1">
          <mxGeometry x="1711.8208661417323" y="191.79243243243226" width="105.61023622047244" height="11.243243243243237" as="geometry" />
        </mxCell>
        <mxCell id="G7gRL9SPklHr558Kcwvp-6" value="" style="shape=cube;whiteSpace=wrap;html=1;boundedLbl=1;backgroundOutline=1;darkOpacity=0.05;darkOpacity2=0.1;size=3;direction=east;flipH=1;fillColor=#dae8fc;strokeColor=#6c8ebf;container=0;" parent="G7gRL9SPklHr558Kcwvp-88" vertex="1">
          <mxGeometry x="1850.255905511811" y="191.8064864864866" width="105.61023622047244" height="11.243243243243237" as="geometry" />
        </mxCell>
        <mxCell id="G7gRL9SPklHr558Kcwvp-7" value="" style="shape=cube;whiteSpace=wrap;html=1;boundedLbl=1;backgroundOutline=1;darkOpacity=0.05;darkOpacity2=0.1;size=3;direction=east;flipH=1;fillColor=#dae8fc;strokeColor=#6c8ebf;container=0;" parent="G7gRL9SPklHr558Kcwvp-88" vertex="1">
          <mxGeometry x="1994.3996062992128" y="191.8064864864866" width="54.23228346456693" height="11.243243243243237" as="geometry" />
        </mxCell>
        <mxCell id="G7gRL9SPklHr558Kcwvp-8" value="" style="shape=cube;whiteSpace=wrap;html=1;boundedLbl=1;backgroundOutline=1;darkOpacity=0.05;darkOpacity2=0.1;size=7;direction=east;flipH=1;fillColor=#ffe6cc;strokeColor=#d79b00;container=0;" parent="G7gRL9SPklHr558Kcwvp-88" vertex="1">
          <mxGeometry x="709.9507874015749" y="369.84324324324297" width="42.81496062992126" height="28.10810810810809" as="geometry" />
        </mxCell>
        <mxCell id="G7gRL9SPklHr558Kcwvp-9" value="" style="shape=cube;whiteSpace=wrap;html=1;boundedLbl=1;backgroundOutline=1;darkOpacity=0.05;darkOpacity2=0.1;size=7;direction=east;flipH=1;fillColor=#f8cecc;strokeColor=#b85450;container=0;" parent="G7gRL9SPklHr558Kcwvp-88" vertex="1">
          <mxGeometry x="709.9507874015749" y="412.005405405405" width="42.81496062992126" height="28.10810810810809" as="geometry" />
        </mxCell>
        <mxCell id="G7gRL9SPklHr558Kcwvp-10" value="" style="shape=cube;whiteSpace=wrap;html=1;boundedLbl=1;backgroundOutline=1;darkOpacity=0.05;darkOpacity2=0.1;size=7;direction=east;flipH=1;fillColor=#dae8fc;strokeColor=#6c8ebf;container=0;" parent="G7gRL9SPklHr558Kcwvp-88" vertex="1">
          <mxGeometry x="969.6948818897638" y="276.7491891891888" width="42.81496062992126" height="28.10810810810809" as="geometry" />
        </mxCell>
        <mxCell id="G7gRL9SPklHr558Kcwvp-11" value="" style="shape=cube;whiteSpace=wrap;html=1;boundedLbl=1;backgroundOutline=1;darkOpacity=0.05;darkOpacity2=0.1;size=3;direction=east;flipH=1;fillColor=#d5e8d4;strokeColor=#82b366;container=0;" parent="G7gRL9SPklHr558Kcwvp-88" vertex="1">
          <mxGeometry x="2055.767716535433" y="191.79243243243226" width="54.23228346456693" height="11.243243243243237" as="geometry" />
        </mxCell>
        <mxCell id="G7gRL9SPklHr558Kcwvp-12" value="" style="shape=cube;whiteSpace=wrap;html=1;boundedLbl=1;backgroundOutline=1;darkOpacity=0.05;darkOpacity2=0.1;size=7;direction=east;flipH=1;fillColor=#d5e8d4;strokeColor=#82b366;container=0;" parent="G7gRL9SPklHr558Kcwvp-88" vertex="1">
          <mxGeometry x="969.6948818897638" y="323.1275675675674" width="42.81496062992126" height="28.10810810810809" as="geometry" />
        </mxCell>
        <mxCell id="G7gRL9SPklHr558Kcwvp-13" value="&lt;span style=&quot;font-size: 20px;&quot;&gt;Conv1D&lt;br style=&quot;font-size: 20px;&quot;&gt;3x1&lt;br style=&quot;font-size: 20px;&quot;&gt;&lt;/span&gt;" style="text;html=1;strokeColor=none;fillColor=none;align=center;verticalAlign=middle;whiteSpace=wrap;rounded=0;fontSize=20;fontStyle=1;container=0;" parent="G7gRL9SPklHr558Kcwvp-88" vertex="1">
          <mxGeometry x="866.2262992125984" y="-12.16" width="77.06692913385827" height="42.16216216216214" as="geometry" />
        </mxCell>
        <mxCell id="G7gRL9SPklHr558Kcwvp-14" value="&lt;span style=&quot;font-size: 20px;&quot;&gt;FC 1&lt;/span&gt;" style="text;html=1;strokeColor=none;fillColor=none;align=center;verticalAlign=middle;whiteSpace=wrap;rounded=0;fontSize=20;fontStyle=1;container=0;" parent="G7gRL9SPklHr558Kcwvp-88" vertex="1">
          <mxGeometry x="1736.0826771653547" y="146.03243243243222" width="57.08661417322835" height="42.16216216216214" as="geometry" />
        </mxCell>
        <mxCell id="G7gRL9SPklHr558Kcwvp-15" value="&lt;span style=&quot;font-size: 20px;&quot;&gt;FC 2&lt;/span&gt;" style="text;html=1;strokeColor=none;fillColor=none;align=center;verticalAlign=middle;whiteSpace=wrap;rounded=0;fontSize=20;fontStyle=1;container=0;" parent="G7gRL9SPklHr558Kcwvp-88" vertex="1">
          <mxGeometry x="1874.5177165354332" y="146.03243243243222" width="57.08661417322835" height="42.16216216216214" as="geometry" />
        </mxCell>
        <mxCell id="G7gRL9SPklHr558Kcwvp-16" value="&lt;span style=&quot;font-size: 20px;&quot;&gt;FC 3&lt;/span&gt;" style="text;html=1;strokeColor=none;fillColor=none;align=center;verticalAlign=middle;whiteSpace=wrap;rounded=0;fontSize=20;fontStyle=1;container=0;" parent="G7gRL9SPklHr558Kcwvp-88" vertex="1">
          <mxGeometry x="1994.3996062992128" y="149.46162162162145" width="57.08661417322835" height="42.16216216216214" as="geometry" />
        </mxCell>
        <mxCell id="G7gRL9SPklHr558Kcwvp-17" value="16000x1x16" style="text;html=1;strokeColor=none;fillColor=none;align=center;verticalAlign=middle;whiteSpace=wrap;rounded=0;fontSize=20;container=0;fontStyle=1" parent="G7gRL9SPklHr558Kcwvp-88" vertex="1">
          <mxGeometry x="702.8149606299213" y="231.76216216216181" width="125.59055118110237" height="24.074594594594576" as="geometry" />
        </mxCell>
        <mxCell id="G7gRL9SPklHr558Kcwvp-18" value="64" style="text;html=1;strokeColor=none;fillColor=none;align=center;verticalAlign=middle;whiteSpace=wrap;rounded=0;fontSize=20;fontStyle=1;container=0;" parent="G7gRL9SPklHr558Kcwvp-88" vertex="1">
          <mxGeometry x="1688.9862204724411" y="203.04972972972976" width="141.28937007874018" height="33.72972972972971" as="geometry" />
        </mxCell>
        <mxCell id="G7gRL9SPklHr558Kcwvp-19" value="Convolutional 1D" style="text;html=1;strokeColor=none;fillColor=none;align=left;verticalAlign=middle;whiteSpace=wrap;rounded=0;fontStyle=1;container=0;fontSize=18;" parent="G7gRL9SPklHr558Kcwvp-88" vertex="1">
          <mxGeometry x="761.3245669291339" y="365.71135135135086" width="196.9488188976378" height="33.561081081081056" as="geometry" />
        </mxCell>
        <mxCell id="G7gRL9SPklHr558Kcwvp-20" value="Max pooling 1D" style="text;html=1;strokeColor=none;fillColor=none;align=left;verticalAlign=middle;whiteSpace=wrap;rounded=0;fontStyle=1;container=0;fontSize=18;" parent="G7gRL9SPklHr558Kcwvp-88" vertex="1">
          <mxGeometry x="768.4645669291339" y="407.87351351351316" width="196.9488188976378" height="33.561081081081056" as="geometry" />
        </mxCell>
        <mxCell id="G7gRL9SPklHr558Kcwvp-21" value="fully connected + ReLU" style="text;html=1;strokeColor=none;fillColor=none;align=left;verticalAlign=middle;whiteSpace=wrap;rounded=0;fontStyle=1;container=0;fontSize=18;" parent="G7gRL9SPklHr558Kcwvp-88" vertex="1">
          <mxGeometry x="1028.2086614173227" y="274.1070270270269" width="196.9488188976378" height="33.561081081081056" as="geometry" />
        </mxCell>
        <mxCell id="G7gRL9SPklHr558Kcwvp-22" value="Softmax" style="text;html=1;strokeColor=none;fillColor=none;align=left;verticalAlign=middle;whiteSpace=wrap;rounded=0;fontStyle=1;container=0;fontSize=18;" parent="G7gRL9SPklHr558Kcwvp-88" vertex="1">
          <mxGeometry x="1026.7814960629921" y="320.40108108108103" width="196.9488188976378" height="33.561081081081056" as="geometry" />
        </mxCell>
        <mxCell id="G7gRL9SPklHr558Kcwvp-23" value="" style="shape=cube;whiteSpace=wrap;html=1;boundedLbl=1;backgroundOutline=1;darkOpacity=0.05;darkOpacity2=0.1;size=110;direction=east;flipH=1;fillColor=#f5f5f5;strokeColor=#666666;fontColor=#333333;container=0;" parent="G7gRL9SPklHr558Kcwvp-88" vertex="1">
          <mxGeometry x="660" y="30.002162162162175" width="171.25984251968504" height="196.75675675675663" as="geometry" />
        </mxCell>
        <mxCell id="G7gRL9SPklHr558Kcwvp-24" value="" style="shape=cube;whiteSpace=wrap;html=1;boundedLbl=1;backgroundOutline=1;darkOpacity=0.05;darkOpacity2=0.1;size=7;direction=east;flipH=1;fillColor=#b1ddf0;strokeColor=#10739e;container=0;" parent="G7gRL9SPklHr558Kcwvp-88" vertex="1">
          <mxGeometry x="969.6948818897638" y="369.84324324324297" width="42.81496062992126" height="28.10810810810809" as="geometry" />
        </mxCell>
        <mxCell id="G7gRL9SPklHr558Kcwvp-25" value="Batch Normalization" style="text;html=1;strokeColor=none;fillColor=none;align=left;verticalAlign=middle;whiteSpace=wrap;rounded=0;fontStyle=1;container=0;fontSize=18;" parent="G7gRL9SPklHr558Kcwvp-88" vertex="1">
          <mxGeometry x="1026.7814960629921" y="365.7113513513514" width="196.9488188976378" height="33.561081081081056" as="geometry" />
        </mxCell>
        <mxCell id="G7gRL9SPklHr558Kcwvp-26" value="" style="shape=cube;whiteSpace=wrap;html=1;boundedLbl=1;backgroundOutline=1;darkOpacity=0.05;darkOpacity2=0.1;size=110;direction=east;flipH=1;fillColor=#b1ddf0;strokeColor=#10739e;container=0;" parent="G7gRL9SPklHr558Kcwvp-88" vertex="1">
          <mxGeometry x="757.0472440944882" y="30.002162162162175" width="171.25984251968504" height="196.75675675675663" as="geometry" />
        </mxCell>
        <mxCell id="G7gRL9SPklHr558Kcwvp-27" value="" style="shape=cube;whiteSpace=wrap;html=1;boundedLbl=1;backgroundOutline=1;darkOpacity=0.05;darkOpacity2=0.1;size=7;direction=east;flipH=1;fillColor=#d0cee2;strokeColor=#56517e;container=0;" parent="G7gRL9SPklHr558Kcwvp-88" vertex="1">
          <mxGeometry x="969.6948818897638" y="410.5999999999995" width="42.81496062992126" height="28.10810810810809" as="geometry" />
        </mxCell>
        <mxCell id="G7gRL9SPklHr558Kcwvp-28" value="ReLU" style="text;html=1;strokeColor=none;fillColor=none;align=left;verticalAlign=middle;whiteSpace=wrap;rounded=0;fontStyle=1;container=0;fontSize=18;" parent="G7gRL9SPklHr558Kcwvp-88" vertex="1">
          <mxGeometry x="1026.7814960629921" y="409.2789189189189" width="196.9488188976378" height="33.561081081081056" as="geometry" />
        </mxCell>
        <mxCell id="G7gRL9SPklHr558Kcwvp-29" value="" style="shape=cube;whiteSpace=wrap;html=1;boundedLbl=1;backgroundOutline=1;darkOpacity=0.05;darkOpacity2=0.1;size=110;direction=east;flipH=1;fillColor=#d0cee2;strokeColor=#56517e;container=0;" parent="G7gRL9SPklHr558Kcwvp-88" vertex="1">
          <mxGeometry x="774.1732283464568" y="30.002162162162175" width="171.25984251968504" height="196.75675675675663" as="geometry" />
        </mxCell>
        <mxCell id="G7gRL9SPklHr558Kcwvp-30" value="" style="shape=cube;whiteSpace=wrap;html=1;boundedLbl=1;backgroundOutline=1;darkOpacity=0.05;darkOpacity2=0.1;size=7;direction=east;flipH=1;dashed=1;fillColor=#F7F7F7;strokeColor=#4D4D4D;container=0;" parent="G7gRL9SPklHr558Kcwvp-88" vertex="1">
          <mxGeometry x="1267.972440944882" y="272.7016216216214" width="42.81496062992126" height="28.10810810810809" as="geometry" />
        </mxCell>
        <mxCell id="G7gRL9SPklHr558Kcwvp-31" value="Dropout" style="text;html=1;strokeColor=none;fillColor=none;align=left;verticalAlign=middle;whiteSpace=wrap;rounded=0;fontStyle=1;container=0;fontSize=18;" parent="G7gRL9SPklHr558Kcwvp-88" vertex="1">
          <mxGeometry x="1325.0562204724408" y="269.97054054054024" width="196.9488188976378" height="33.561081081081056" as="geometry" />
        </mxCell>
        <mxCell id="G7gRL9SPklHr558Kcwvp-32" value="" style="shape=cube;whiteSpace=wrap;html=1;boundedLbl=1;backgroundOutline=1;darkOpacity=0.05;darkOpacity2=0.1;size=7;direction=east;flipH=1;fillColor=#cdeb8b;strokeColor=#36393d;container=0;" parent="G7gRL9SPklHr558Kcwvp-88" vertex="1">
          <mxGeometry x="711.3779527559055" y="276.83351351351354" width="42.81496062992126" height="28.10810810810809" as="geometry" />
        </mxCell>
        <mxCell id="G7gRL9SPklHr558Kcwvp-33" value="ResNet Block" style="text;html=1;strokeColor=none;fillColor=none;align=left;verticalAlign=middle;whiteSpace=wrap;rounded=0;fontStyle=1;container=0;fontSize=18;" parent="G7gRL9SPklHr558Kcwvp-88" vertex="1">
          <mxGeometry x="769.1781496062993" y="274.1070270270269" width="121.30905511811025" height="33.561081081081056" as="geometry" />
        </mxCell>
        <mxCell id="G7gRL9SPklHr558Kcwvp-34" value="&lt;span style=&quot;font-size: 20px;&quot;&gt;ResNet Block 1&lt;br style=&quot;font-size: 20px;&quot;&gt;&lt;/span&gt;" style="text;html=1;strokeColor=none;fillColor=none;align=center;verticalAlign=middle;whiteSpace=wrap;rounded=0;fontSize=20;fontStyle=1;container=0;" parent="G7gRL9SPklHr558Kcwvp-88" vertex="1">
          <mxGeometry x="981.1122047244096" y="44.05621621621624" width="77.06692913385827" height="42.16216216216214" as="geometry" />
        </mxCell>
        <mxCell id="G7gRL9SPklHr558Kcwvp-35" value="4000x1x64" style="text;html=1;strokeColor=none;fillColor=none;align=center;verticalAlign=middle;whiteSpace=wrap;rounded=0;fontSize=20;container=0;fontStyle=1" parent="G7gRL9SPklHr558Kcwvp-88" vertex="1">
          <mxGeometry x="858.3759842519685" y="231.76216216216181" width="125.59055118110237" height="24.074594594594576" as="geometry" />
        </mxCell>
        <mxCell id="G7gRL9SPklHr558Kcwvp-36" value="&lt;span style=&quot;font-size: 20px;&quot;&gt;ResNet Block 2&lt;br style=&quot;font-size: 20px;&quot;&gt;&lt;/span&gt;" style="text;html=1;strokeColor=none;fillColor=none;align=center;verticalAlign=middle;whiteSpace=wrap;rounded=0;fontSize=20;fontStyle=1;container=0;" parent="G7gRL9SPklHr558Kcwvp-88" vertex="1">
          <mxGeometry x="1123.8287401574803" y="84.81297297297306" width="77.06692913385827" height="42.16216216216214" as="geometry" />
        </mxCell>
        <mxCell id="G7gRL9SPklHr558Kcwvp-37" value="1000x1x128" style="text;html=1;strokeColor=none;fillColor=none;align=center;verticalAlign=middle;whiteSpace=wrap;rounded=0;fontSize=20;container=0;fontStyle=1" parent="G7gRL9SPklHr558Kcwvp-88" vertex="1">
          <mxGeometry x="1035.3444881889764" y="231.73405405405376" width="125.59055118110237" height="24.074594594594576" as="geometry" />
        </mxCell>
        <mxCell id="G7gRL9SPklHr558Kcwvp-38" value="" style="shape=cube;whiteSpace=wrap;html=1;boundedLbl=1;backgroundOutline=1;darkOpacity=0.05;darkOpacity2=0.1;size=110;direction=east;flipH=1;fillColor=#f8cecc;strokeColor=#b85450;container=0;" parent="G7gRL9SPklHr558Kcwvp-88" vertex="1">
          <mxGeometry x="794.1535433070867" y="30.002162162162175" width="171.25984251968504" height="196.75675675675663" as="geometry" />
        </mxCell>
        <mxCell id="G7gRL9SPklHr558Kcwvp-39" value="&lt;span style=&quot;font-size: 20px;&quot;&gt;ResNet Block 3&lt;br style=&quot;font-size: 20px;&quot;&gt;&lt;/span&gt;" style="text;html=1;strokeColor=none;fillColor=none;align=center;verticalAlign=middle;whiteSpace=wrap;rounded=0;fontSize=20;fontStyle=1;container=0;" parent="G7gRL9SPklHr558Kcwvp-88" vertex="1">
          <mxGeometry x="1325.0590551181103" y="107.29945945945943" width="77.06692913385827" height="42.16216216216214" as="geometry" />
        </mxCell>
        <mxCell id="G7gRL9SPklHr558Kcwvp-40" value="250x1x256" style="text;html=1;strokeColor=none;fillColor=none;align=center;verticalAlign=middle;whiteSpace=wrap;rounded=0;fontSize=20;container=0;fontStyle=1" parent="G7gRL9SPklHr558Kcwvp-88" vertex="1">
          <mxGeometry x="1226.5846456692916" y="231.76216216216181" width="125.59055118110237" height="24.074594594594576" as="geometry" />
        </mxCell>
        <mxCell id="G7gRL9SPklHr558Kcwvp-41" value="" style="shape=cube;whiteSpace=wrap;html=1;boundedLbl=1;backgroundOutline=1;darkOpacity=0.05;darkOpacity2=0.1;size=7;direction=east;flipH=1;fillColor=#bac8d3;strokeColor=#23445d;container=0;" parent="G7gRL9SPklHr558Kcwvp-88" vertex="1">
          <mxGeometry x="709.9507874015749" y="325.85405405405373" width="42.81496062992126" height="28.10810810810809" as="geometry" />
        </mxCell>
        <mxCell id="G7gRL9SPklHr558Kcwvp-42" value="Global Max pooling" style="text;html=1;strokeColor=none;fillColor=none;align=left;verticalAlign=middle;whiteSpace=wrap;rounded=0;fontStyle=1;container=0;fontSize=18;" parent="G7gRL9SPklHr558Kcwvp-88" vertex="1">
          <mxGeometry x="769.1781496062993" y="323.1275675675674" width="166.97834645669292" height="33.561081081081056" as="geometry" />
        </mxCell>
        <mxCell id="G7gRL9SPklHr558Kcwvp-43" value="" style="shape=cube;whiteSpace=wrap;html=1;boundedLbl=1;backgroundOutline=1;darkOpacity=0.05;darkOpacity2=0.1;size=9;direction=east;flipH=1;fillColor=#cdeb8b;strokeColor=#36393d;container=0;" parent="G7gRL9SPklHr558Kcwvp-88" vertex="1">
          <mxGeometry x="1476.3385826771655" y="171.51243243243243" width="68.50393700787403" height="55.246486486486454" as="geometry" />
        </mxCell>
        <mxCell id="G7gRL9SPklHr558Kcwvp-44" value="62x1x256" style="text;html=1;strokeColor=none;fillColor=none;align=center;verticalAlign=middle;whiteSpace=wrap;rounded=0;fontSize=20;container=0;fontStyle=1" parent="G7gRL9SPklHr558Kcwvp-88" vertex="1">
          <mxGeometry x="1447.7952755905512" y="231.73405405405376" width="125.59055118110237" height="24.074594594594576" as="geometry" />
        </mxCell>
        <mxCell id="G7gRL9SPklHr558Kcwvp-45" value="&lt;span style=&quot;font-size: 20px;&quot;&gt;ResNet Block 4&lt;br style=&quot;font-size: 20px;&quot;&gt;&lt;/span&gt;" style="text;html=1;strokeColor=none;fillColor=none;align=center;verticalAlign=middle;whiteSpace=wrap;rounded=0;fontSize=20;fontStyle=1;container=0;" parent="G7gRL9SPklHr558Kcwvp-88" vertex="1">
          <mxGeometry x="1510.5905511811025" y="126.97513513513508" width="77.06692913385827" height="42.16216216216214" as="geometry" />
        </mxCell>
        <mxCell id="G7gRL9SPklHr558Kcwvp-46" value="32" style="text;html=1;strokeColor=none;fillColor=none;align=center;verticalAlign=middle;whiteSpace=wrap;rounded=0;fontSize=20;fontStyle=1;container=0;" parent="G7gRL9SPklHr558Kcwvp-88" vertex="1">
          <mxGeometry x="1832.416338582677" y="203.0356756756755" width="141.28937007874018" height="33.72972972972971" as="geometry" />
        </mxCell>
        <mxCell id="G7gRL9SPklHr558Kcwvp-47" value="6" style="text;html=1;strokeColor=none;fillColor=none;align=center;verticalAlign=middle;whiteSpace=wrap;rounded=0;fontSize=20;fontStyle=1;container=0;" parent="G7gRL9SPklHr558Kcwvp-88" vertex="1">
          <mxGeometry x="1950.8710629921259" y="203.04972972972976" width="141.28937007874018" height="33.72972972972971" as="geometry" />
        </mxCell>
        <mxCell id="G7gRL9SPklHr558Kcwvp-48" value="256" style="text;html=1;strokeColor=none;fillColor=none;align=center;verticalAlign=middle;whiteSpace=wrap;rounded=0;fontSize=20;container=0;fontStyle=1" parent="G7gRL9SPklHr558Kcwvp-88" vertex="1">
          <mxGeometry x="1574.812992125984" y="231.73405405405376" width="125.59055118110237" height="24.074594594594576" as="geometry" />
        </mxCell>
        <mxCell id="G7gRL9SPklHr558Kcwvp-49" value="" style="shape=cube;whiteSpace=wrap;html=1;boundedLbl=1;backgroundOutline=1;darkOpacity=0.05;darkOpacity2=0.1;size=70;direction=east;flipH=1;fillColor=#cdeb8b;strokeColor=#36393d;container=0;" parent="G7gRL9SPklHr558Kcwvp-88" vertex="1">
          <mxGeometry x="890.4872047244096" y="86.21837837837828" width="129.15846456692915" height="140.54054054054046" as="geometry" />
        </mxCell>
        <mxCell id="G7gRL9SPklHr558Kcwvp-50" value="" style="shape=cube;whiteSpace=wrap;html=1;boundedLbl=1;backgroundOutline=1;darkOpacity=0.05;darkOpacity2=0.1;size=70;direction=east;flipH=1;fillColor=#f8cecc;strokeColor=#b85450;container=0;" parent="G7gRL9SPklHr558Kcwvp-88" vertex="1">
          <mxGeometry x="928.3070866141733" y="86.21837837837828" width="129.8720472440945" height="140.54054054054046" as="geometry" />
        </mxCell>
        <mxCell id="G7gRL9SPklHr558Kcwvp-51" value="" style="shape=cube;whiteSpace=wrap;html=1;boundedLbl=1;backgroundOutline=1;darkOpacity=0.05;darkOpacity2=0.1;size=40;direction=east;flipH=1;fillColor=#cdeb8b;strokeColor=#36393d;container=0;" parent="G7gRL9SPklHr558Kcwvp-88" vertex="1">
          <mxGeometry x="1058.1791338582677" y="128.38054054054058" width="102.75590551181104" height="98.37837837837832" as="geometry" />
        </mxCell>
        <mxCell id="G7gRL9SPklHr558Kcwvp-52" value="" style="shape=cube;whiteSpace=wrap;html=1;boundedLbl=1;backgroundOutline=1;darkOpacity=0.05;darkOpacity2=0.1;size=40;direction=east;flipH=1;fillColor=#f8cecc;strokeColor=#b85450;container=0;" parent="G7gRL9SPklHr558Kcwvp-88" vertex="1">
          <mxGeometry x="1112.4114173228345" y="128.38054054054058" width="99.90157480314961" height="98.37837837837832" as="geometry" />
        </mxCell>
        <mxCell id="G7gRL9SPklHr558Kcwvp-53" value="" style="shape=cube;whiteSpace=wrap;html=1;boundedLbl=1;backgroundOutline=1;darkOpacity=0.05;darkOpacity2=0.1;size=40;direction=east;flipH=1;dashed=1;fillColor=#F7F7F7;strokeColor=#4D4D4D;container=0;" parent="G7gRL9SPklHr558Kcwvp-88" vertex="1">
          <mxGeometry x="969.6948818897638" y="128.38054054054058" width="85.62992125984252" height="98.37837837837832" as="geometry" />
        </mxCell>
        <mxCell id="G7gRL9SPklHr558Kcwvp-54" value="" style="shape=cube;whiteSpace=wrap;html=1;boundedLbl=1;backgroundOutline=1;darkOpacity=0.05;darkOpacity2=0.1;size=70;direction=east;flipH=1;fillColor=#F7F7F7;strokeColor=#4D4D4D;dashed=1;container=0;" parent="G7gRL9SPklHr558Kcwvp-88" vertex="1">
          <mxGeometry x="812.7066929133858" y="86.21837837837828" width="115.60039370078742" height="140.54054054054046" as="geometry" />
        </mxCell>
        <mxCell id="G7gRL9SPklHr558Kcwvp-55" value="" style="shape=cube;whiteSpace=wrap;html=1;boundedLbl=1;backgroundOutline=1;darkOpacity=0.05;darkOpacity2=0.1;size=20;direction=east;flipH=1;dashed=1;fillColor=#F7F7F7;strokeColor=#4D4D4D;container=0;" parent="G7gRL9SPklHr558Kcwvp-88" vertex="1">
          <mxGeometry x="1169.498031496063" y="156.4886486486487" width="71.35826771653544" height="70.27027027027023" as="geometry" />
        </mxCell>
        <mxCell id="G7gRL9SPklHr558Kcwvp-56" value="" style="shape=cube;whiteSpace=wrap;html=1;boundedLbl=1;backgroundOutline=1;darkOpacity=0.05;darkOpacity2=0.1;size=9;direction=east;flipH=1;fillColor=#F7F7F7;strokeColor=#4D4D4D;dashed=1;container=0;" parent="G7gRL9SPklHr558Kcwvp-88" vertex="1">
          <mxGeometry x="1389.2814960629921" y="171.51243243243243" width="71.35826771653544" height="55.246486486486454" as="geometry" />
        </mxCell>
        <mxCell id="G7gRL9SPklHr558Kcwvp-57" value="" style="shape=cube;whiteSpace=wrap;html=1;boundedLbl=1;backgroundOutline=1;darkOpacity=0.05;darkOpacity2=0.1;size=9;direction=east;flipH=1;fillColor=#bac8d3;strokeColor=#23445d;container=0;" parent="G7gRL9SPklHr558Kcwvp-88" vertex="1">
          <mxGeometry x="1541.988188976378" y="171.51243243243243" width="71.35826771653544" height="55.246486486486454" as="geometry" />
        </mxCell>
        <mxCell id="G7gRL9SPklHr558Kcwvp-58" value="&lt;span style=&quot;font-size: 20px;&quot;&gt;Input&lt;br style=&quot;font-size: 20px;&quot;&gt;&lt;/span&gt;" style="text;html=1;strokeColor=none;fillColor=none;align=center;verticalAlign=middle;whiteSpace=wrap;rounded=0;fontSize=20;fontStyle=1;container=0;" parent="G7gRL9SPklHr558Kcwvp-88" vertex="1">
          <mxGeometry x="769.1790551181103" y="-12.16" width="77.06692913385827" height="42.16216216216214" as="geometry" />
        </mxCell>
        <mxCell id="G7gRL9SPklHr558Kcwvp-59" value="" style="shape=cube;whiteSpace=wrap;html=1;boundedLbl=1;backgroundOutline=1;darkOpacity=0.05;darkOpacity2=0.1;size=3;direction=east;flipH=1;fillColor=#F7F7F7;strokeColor=#4D4D4D;dashed=1;container=0;" parent="G7gRL9SPklHr558Kcwvp-88" vertex="1">
          <mxGeometry x="1817.4311023622047" y="191.6237837837838" width="22.83464566929134" height="11.243243243243237" as="geometry" />
        </mxCell>
        <mxCell id="G7gRL9SPklHr558Kcwvp-60" value="" style="shape=cube;whiteSpace=wrap;html=1;boundedLbl=1;backgroundOutline=1;darkOpacity=0.05;darkOpacity2=0.1;size=3;direction=east;flipH=1;fillColor=#F7F7F7;strokeColor=#4D4D4D;dashed=1;container=0;" parent="G7gRL9SPklHr558Kcwvp-88" vertex="1">
          <mxGeometry x="1955.8661417322835" y="191.79243243243226" width="27.116141732283467" height="11.243243243243237" as="geometry" />
        </mxCell>
        <mxCell id="G7gRL9SPklHr558Kcwvp-61" value="" style="shape=cube;whiteSpace=wrap;html=1;boundedLbl=1;backgroundOutline=1;darkOpacity=0.05;darkOpacity2=0.1;size=20;direction=east;flipH=1;fillColor=#F7F7F7;strokeColor=#4D4D4D;fontColor=default;dashed=1;container=0;" parent="G7gRL9SPklHr558Kcwvp-88" vertex="1">
          <mxGeometry x="1654.734251968504" y="156.4886486486487" width="45.66929133858268" height="70.27027027027023" as="geometry" />
        </mxCell>
        <mxCell id="G7gRL9SPklHr558Kcwvp-305" value="" style="endArrow=classic;html=1;rounded=0;strokeWidth=5;" parent="G7gRL9SPklHr558Kcwvp-88" edge="1">
          <mxGeometry width="50" height="50" relative="1" as="geometry">
            <mxPoint x="479" y="189.52999999999997" as="sourcePoint" />
            <mxPoint x="639" y="189.52999999999997" as="targetPoint" />
          </mxGeometry>
        </mxCell>
        <mxCell id="G7gRL9SPklHr558Kcwvp-316" value="Raw Audio &lt;br&gt;Signals" style="text;html=1;resizable=0;autosize=1;align=center;verticalAlign=middle;points=[];fillColor=none;strokeColor=none;rounded=0;strokeWidth=6;fontSize=25;fontFamily=Tahoma;fontStyle=1" parent="G7gRL9SPklHr558Kcwvp-88" vertex="1">
          <mxGeometry x="480" y="109.06" width="150" height="70" as="geometry" />
        </mxCell>
        <mxCell id="G7gRL9SPklHr558Kcwvp-303" value="" style="endArrow=none;html=1;rounded=0;strokeWidth=5;" parent="1" edge="1">
          <mxGeometry width="50" height="50" relative="1" as="geometry">
            <mxPoint x="1320" y="1400" as="sourcePoint" />
            <mxPoint x="1320" y="320" as="targetPoint" />
          </mxGeometry>
        </mxCell>
        <mxCell id="G7gRL9SPklHr558Kcwvp-306" value="" style="endArrow=classic;html=1;rounded=0;strokeWidth=5;" parent="1" edge="1">
          <mxGeometry width="50" height="50" relative="1" as="geometry">
            <mxPoint x="1320" y="830" as="sourcePoint" />
            <mxPoint x="1480" y="830" as="targetPoint" />
          </mxGeometry>
        </mxCell>
        <mxCell id="G7gRL9SPklHr558Kcwvp-307" value="" style="endArrow=classic;html=1;rounded=0;strokeWidth=5;" parent="1" edge="1">
          <mxGeometry width="50" height="50" relative="1" as="geometry">
            <mxPoint x="1320" y="1400" as="sourcePoint" />
            <mxPoint x="1480" y="1400" as="targetPoint" />
          </mxGeometry>
        </mxCell>
        <mxCell id="G7gRL9SPklHr558Kcwvp-308" value="" style="endArrow=none;html=1;rounded=0;strokeWidth=5;" parent="1" edge="1">
          <mxGeometry width="50" height="50" relative="1" as="geometry">
            <mxPoint x="3120" y="830" as="sourcePoint" />
            <mxPoint x="2960" y="830" as="targetPoint" />
          </mxGeometry>
        </mxCell>
        <mxCell id="G7gRL9SPklHr558Kcwvp-309" value="" style="endArrow=none;html=1;rounded=0;strokeWidth=5;" parent="1" edge="1">
          <mxGeometry width="50" height="50" relative="1" as="geometry">
            <mxPoint x="3120" y="1410" as="sourcePoint" />
            <mxPoint x="3120" y="330" as="targetPoint" />
          </mxGeometry>
        </mxCell>
        <mxCell id="G7gRL9SPklHr558Kcwvp-311" value="" style="endArrow=none;html=1;rounded=0;strokeWidth=5;" parent="1" edge="1">
          <mxGeometry width="50" height="50" relative="1" as="geometry">
            <mxPoint x="3120" y="330" as="sourcePoint" />
            <mxPoint x="2960" y="330" as="targetPoint" />
          </mxGeometry>
        </mxCell>
        <mxCell id="G7gRL9SPklHr558Kcwvp-312" value="" style="endArrow=none;html=1;rounded=0;strokeWidth=5;" parent="1" edge="1">
          <mxGeometry width="50" height="50" relative="1" as="geometry">
            <mxPoint x="3120" y="1410" as="sourcePoint" />
            <mxPoint x="2960" y="1410" as="targetPoint" />
          </mxGeometry>
        </mxCell>
        <mxCell id="G7gRL9SPklHr558Kcwvp-313" value="" style="endArrow=classic;html=1;rounded=0;strokeWidth=5;" parent="1" edge="1">
          <mxGeometry width="50" height="50" relative="1" as="geometry">
            <mxPoint x="3120" y="828.57" as="sourcePoint" />
            <mxPoint x="3280" y="828.57" as="targetPoint" />
          </mxGeometry>
        </mxCell>
        <mxCell id="G7gRL9SPklHr558Kcwvp-315" value="Synthetic Audio Tracks of &lt;br style=&quot;font-size: 50px;&quot;&gt;Six Classes in Open-set dataset" style="text;html=1;resizable=0;autosize=1;align=center;verticalAlign=middle;points=[];fillColor=none;strokeColor=none;rounded=0;strokeWidth=6;fontSize=50;fontFamily=Tahoma;fontStyle=1" parent="1" vertex="1">
          <mxGeometry x="425" y="1090" width="800" height="130" as="geometry" />
        </mxCell>
        <mxCell id="G7gRL9SPklHr558Kcwvp-317" value="MFCC&lt;br&gt;Features" style="text;html=1;resizable=0;autosize=1;align=center;verticalAlign=middle;points=[];fillColor=none;strokeColor=none;rounded=0;strokeWidth=6;fontSize=25;fontFamily=Tahoma;fontStyle=1" parent="1" vertex="1">
          <mxGeometry x="1335" y="754.45" width="120" height="70" as="geometry" />
        </mxCell>
        <mxCell id="G7gRL9SPklHr558Kcwvp-318" value="Kaldi Transformed&lt;br&gt;fBank Features" style="text;html=1;resizable=0;autosize=1;align=center;verticalAlign=middle;points=[];fillColor=none;strokeColor=none;rounded=0;strokeWidth=6;fontSize=25;fontFamily=Tahoma;fontStyle=1" parent="1" vertex="1">
          <mxGeometry x="1240" y="1410" width="250" height="70" as="geometry" />
        </mxCell>
        <mxCell id="G7gRL9SPklHr558Kcwvp-319" value="ResNet" style="text;html=1;resizable=0;autosize=1;align=center;verticalAlign=middle;points=[];fillColor=none;strokeColor=none;rounded=0;strokeWidth=6;fontSize=50;fontFamily=Tahoma;fontStyle=1" parent="1" vertex="1">
          <mxGeometry x="1955" y="89" width="200" height="70" as="geometry" />
        </mxCell>
        <mxCell id="G7gRL9SPklHr558Kcwvp-320" value="MLP" style="text;html=1;resizable=0;autosize=1;align=center;verticalAlign=middle;points=[];fillColor=none;strokeColor=none;rounded=0;strokeWidth=6;fontSize=50;fontFamily=Tahoma;fontStyle=1" parent="1" vertex="1">
          <mxGeometry x="1945" y="672.23" width="120" height="70" as="geometry" />
        </mxCell>
        <mxCell id="G7gRL9SPklHr558Kcwvp-322" value="Probability Prediction&lt;br&gt;&amp;nbsp;from&amp;nbsp;Softmax Layer 1" style="text;html=1;resizable=0;autosize=1;align=center;verticalAlign=middle;points=[];fillColor=none;strokeColor=none;rounded=0;strokeWidth=6;fontSize=25;fontFamily=Tahoma;fontStyle=1" parent="1" vertex="1">
          <mxGeometry x="2896" y="248.06" width="290" height="70" as="geometry" />
        </mxCell>
        <mxCell id="G7gRL9SPklHr558Kcwvp-324" value="Probability Prediction&lt;br&gt;&amp;nbsp;from&amp;nbsp;Softmax Layer 2" style="text;html=1;resizable=0;autosize=1;align=center;verticalAlign=middle;points=[];fillColor=none;strokeColor=none;rounded=0;strokeWidth=6;fontSize=25;fontFamily=Tahoma;fontStyle=1" parent="1" vertex="1">
          <mxGeometry x="2820" y="720" width="290" height="70" as="geometry" />
        </mxCell>
        <mxCell id="G7gRL9SPklHr558Kcwvp-325" value="Probability Prediction&lt;br&gt;&amp;nbsp;from&amp;nbsp;Softmax Layer 3" style="text;html=1;resizable=0;autosize=1;align=center;verticalAlign=middle;points=[];fillColor=none;strokeColor=none;rounded=0;strokeWidth=6;fontSize=25;fontFamily=Tahoma;fontStyle=1" parent="1" vertex="1">
          <mxGeometry x="2885" y="1430" width="290" height="70" as="geometry" />
        </mxCell>
        <mxCell id="_nRTVuiJzCOUULZlLTgy-171" value="" style="group;fontSize=17;" parent="1" vertex="1" connectable="0">
          <mxGeometry x="1520" y="1150" width="1520" height="441" as="geometry" />
        </mxCell>
        <mxCell id="_nRTVuiJzCOUULZlLTgy-86" value="" style="shape=cube;whiteSpace=wrap;html=1;boundedLbl=1;backgroundOutline=1;darkOpacity=0.05;darkOpacity2=0.1;fillColor=#fff2cc;direction=south;strokeColor=#d6b656;strokeWidth=2;size=20;rotation=0;" parent="_nRTVuiJzCOUULZlLTgy-171" vertex="1">
          <mxGeometry x="779" y="76.18248175182481" width="57" height="364.81751824817513" as="geometry" />
        </mxCell>
        <mxCell id="_nRTVuiJzCOUULZlLTgy-87" value="" style="shape=cube;whiteSpace=wrap;html=1;boundedLbl=1;backgroundOutline=1;darkOpacity=0.05;darkOpacity2=0.1;direction=south;strokeWidth=2;size=20;rotation=0;fillColor=#ffe6cc;strokeColor=#d79b00;" parent="_nRTVuiJzCOUULZlLTgy-171" vertex="1">
          <mxGeometry x="1197" y="33.262773722627735" width="57" height="407.7372262773722" as="geometry" />
        </mxCell>
        <mxCell id="_nRTVuiJzCOUULZlLTgy-88" value="" style="shape=cube;whiteSpace=wrap;html=1;boundedLbl=1;backgroundOutline=1;darkOpacity=0.05;darkOpacity2=0.1;fillColor=#d5e8d4;direction=south;strokeColor=#82b366;strokeWidth=2;size=20;rotation=0;" parent="_nRTVuiJzCOUULZlLTgy-171" vertex="1">
          <mxGeometry x="1311" y="151.2919708029197" width="57" height="171.6788321167883" as="geometry" />
        </mxCell>
        <mxCell id="_nRTVuiJzCOUULZlLTgy-89" value="Input &lt;br style=&quot;font-size: 20px;&quot;&gt;Spectrogram" style="text;html=1;align=center;verticalAlign=middle;resizable=0;points=[];autosize=1;strokeColor=none;fillColor=none;fontStyle=1;fontSize=20;" parent="_nRTVuiJzCOUULZlLTgy-171" vertex="1">
          <mxGeometry x="35" y="178.11671532846714" width="140" height="50" as="geometry" />
        </mxCell>
        <mxCell id="_nRTVuiJzCOUULZlLTgy-90" value="Patch Split&amp;nbsp;&lt;br style=&quot;font-size: 20px;&quot;&gt;with Overlap" style="text;html=1;align=center;verticalAlign=middle;resizable=0;points=[];autosize=1;strokeColor=none;fillColor=none;fontStyle=1;fontSize=20;" parent="_nRTVuiJzCOUULZlLTgy-171" vertex="1">
          <mxGeometry x="122" y="297.9659854014598" width="140" height="50" as="geometry" />
        </mxCell>
        <mxCell id="_nRTVuiJzCOUULZlLTgy-91" value="&lt;span style=&quot;font-size: 20px;&quot;&gt;Linear&amp;nbsp;&lt;br style=&quot;font-size: 20px;&quot;&gt;Projection&lt;/span&gt;" style="text;html=1;align=center;verticalAlign=middle;resizable=0;points=[];autosize=1;strokeColor=none;fillColor=none;fontSize=20;fontStyle=1" parent="_nRTVuiJzCOUULZlLTgy-171" vertex="1">
          <mxGeometry x="698" y="29.359708029197076" width="110" height="50" as="geometry" />
        </mxCell>
        <mxCell id="_nRTVuiJzCOUULZlLTgy-92" value="&lt;span style=&quot;font-size: 20px;&quot;&gt;Transformer&lt;br style=&quot;font-size: 20px;&quot;&gt;Encoder&lt;/span&gt;" style="text;html=1;align=center;verticalAlign=middle;resizable=0;points=[];autosize=1;strokeColor=none;fillColor=none;fontSize=20;fontStyle=1" parent="_nRTVuiJzCOUULZlLTgy-171" vertex="1">
          <mxGeometry x="1105" y="-10" width="130" height="50" as="geometry" />
        </mxCell>
        <mxCell id="_nRTVuiJzCOUULZlLTgy-93" value="&lt;span style=&quot;font-size: 20px;&quot;&gt;Linear&lt;/span&gt;" style="text;html=1;align=center;verticalAlign=middle;resizable=0;points=[];autosize=1;strokeColor=none;fillColor=none;fontSize=20;fontStyle=1" parent="_nRTVuiJzCOUULZlLTgy-171" vertex="1">
          <mxGeometry x="1277" y="124.83211678832114" width="80" height="30" as="geometry" />
        </mxCell>
        <mxCell id="_nRTVuiJzCOUULZlLTgy-95" value="" style="endArrow=none;html=1;rounded=0;strokeColor=default;entryX=0.09;entryY=1.017;entryDx=0;entryDy=0;entryPerimeter=0;" parent="_nRTVuiJzCOUULZlLTgy-171" target="_nRTVuiJzCOUULZlLTgy-86" edge="1">
          <mxGeometry width="50" height="50" relative="1" as="geometry">
            <mxPoint x="684" y="108.37226277372262" as="sourcePoint" />
            <mxPoint x="760" y="108.37226277372262" as="targetPoint" />
            <Array as="points" />
          </mxGeometry>
        </mxCell>
        <mxCell id="_nRTVuiJzCOUULZlLTgy-96" value="" style="endArrow=none;html=1;rounded=0;strokeColor=default;entryX=0.09;entryY=1.017;entryDx=0;entryDy=0;entryPerimeter=0;" parent="_nRTVuiJzCOUULZlLTgy-171" edge="1">
          <mxGeometry width="50" height="50" relative="1" as="geometry">
            <mxPoint x="684.9689999999999" y="151.07737226277365" as="sourcePoint" />
            <mxPoint x="779" y="150.75547445255472" as="targetPoint" />
            <Array as="points" />
          </mxGeometry>
        </mxCell>
        <mxCell id="_nRTVuiJzCOUULZlLTgy-97" value="" style="endArrow=none;html=1;rounded=0;strokeColor=default;entryX=0.09;entryY=1.017;entryDx=0;entryDy=0;entryPerimeter=0;" parent="_nRTVuiJzCOUULZlLTgy-171" edge="1">
          <mxGeometry width="50" height="50" relative="1" as="geometry">
            <mxPoint x="684.9689999999999" y="193.99708029197075" as="sourcePoint" />
            <mxPoint x="779" y="193.67518248175182" as="targetPoint" />
            <Array as="points" />
          </mxGeometry>
        </mxCell>
        <mxCell id="_nRTVuiJzCOUULZlLTgy-98" value="" style="endArrow=none;html=1;rounded=0;strokeColor=default;entryX=0.09;entryY=1.017;entryDx=0;entryDy=0;entryPerimeter=0;" parent="_nRTVuiJzCOUULZlLTgy-171" edge="1">
          <mxGeometry width="50" height="50" relative="1" as="geometry">
            <mxPoint x="684.9689999999999" y="236.91678832116781" as="sourcePoint" />
            <mxPoint x="779" y="236.5948905109489" as="targetPoint" />
            <Array as="points" />
          </mxGeometry>
        </mxCell>
        <mxCell id="_nRTVuiJzCOUULZlLTgy-99" value="" style="endArrow=none;html=1;rounded=0;strokeColor=default;entryX=0.09;entryY=1.017;entryDx=0;entryDy=0;entryPerimeter=0;" parent="_nRTVuiJzCOUULZlLTgy-171" edge="1">
          <mxGeometry width="50" height="50" relative="1" as="geometry">
            <mxPoint x="684.9689999999999" y="279.8364963503649" as="sourcePoint" />
            <mxPoint x="779" y="279.514598540146" as="targetPoint" />
            <Array as="points" />
          </mxGeometry>
        </mxCell>
        <mxCell id="_nRTVuiJzCOUULZlLTgy-100" value="" style="endArrow=none;html=1;rounded=0;strokeColor=default;entryX=0.09;entryY=1.017;entryDx=0;entryDy=0;entryPerimeter=0;" parent="_nRTVuiJzCOUULZlLTgy-171" edge="1">
          <mxGeometry width="50" height="50" relative="1" as="geometry">
            <mxPoint x="684.9689999999999" y="322.75620437956195" as="sourcePoint" />
            <mxPoint x="779" y="322.43430656934305" as="targetPoint" />
            <Array as="points" />
          </mxGeometry>
        </mxCell>
        <mxCell id="_nRTVuiJzCOUULZlLTgy-101" value="" style="endArrow=none;html=1;rounded=0;strokeColor=default;entryX=0.09;entryY=1.017;entryDx=0;entryDy=0;entryPerimeter=0;" parent="_nRTVuiJzCOUULZlLTgy-171" edge="1">
          <mxGeometry width="50" height="50" relative="1" as="geometry">
            <mxPoint x="684" y="365.675912408759" as="sourcePoint" />
            <mxPoint x="778.0309999999998" y="365.3540145985401" as="targetPoint" />
            <Array as="points" />
          </mxGeometry>
        </mxCell>
        <mxCell id="_nRTVuiJzCOUULZlLTgy-102" value="" style="endArrow=none;html=1;rounded=0;strokeColor=default;entryX=0.09;entryY=1.017;entryDx=0;entryDy=0;entryPerimeter=0;" parent="_nRTVuiJzCOUULZlLTgy-171" edge="1">
          <mxGeometry width="50" height="50" relative="1" as="geometry">
            <mxPoint x="684.9689999999999" y="408.59562043795614" as="sourcePoint" />
            <mxPoint x="779" y="408.2737226277372" as="targetPoint" />
            <Array as="points" />
          </mxGeometry>
        </mxCell>
        <mxCell id="_nRTVuiJzCOUULZlLTgy-103" value="" style="endArrow=none;html=1;rounded=0;strokeColor=default;" parent="_nRTVuiJzCOUULZlLTgy-171" edge="1">
          <mxGeometry width="50" height="50" relative="1" as="geometry">
            <mxPoint x="836" y="108.32934306569346" as="sourcePoint" />
            <mxPoint x="912" y="108.37226277372262" as="targetPoint" />
            <Array as="points" />
          </mxGeometry>
        </mxCell>
        <mxCell id="_nRTVuiJzCOUULZlLTgy-104" value="" style="endArrow=none;html=1;rounded=0;strokeColor=default;" parent="_nRTVuiJzCOUULZlLTgy-171" edge="1">
          <mxGeometry width="50" height="50" relative="1" as="geometry">
            <mxPoint x="836" y="150.75547445255472" as="sourcePoint" />
            <mxPoint x="912" y="150.79839416058388" as="targetPoint" />
            <Array as="points" />
          </mxGeometry>
        </mxCell>
        <mxCell id="_nRTVuiJzCOUULZlLTgy-105" value="" style="endArrow=none;html=1;rounded=0;strokeColor=default;" parent="_nRTVuiJzCOUULZlLTgy-171" edge="1">
          <mxGeometry width="50" height="50" relative="1" as="geometry">
            <mxPoint x="836" y="193.67518248175182" as="sourcePoint" />
            <mxPoint x="912" y="193.7181021897812" as="targetPoint" />
            <Array as="points" />
          </mxGeometry>
        </mxCell>
        <mxCell id="_nRTVuiJzCOUULZlLTgy-106" value="" style="endArrow=none;html=1;rounded=0;strokeColor=default;" parent="_nRTVuiJzCOUULZlLTgy-171" edge="1">
          <mxGeometry width="50" height="50" relative="1" as="geometry">
            <mxPoint x="836" y="236.5948905109489" as="sourcePoint" />
            <mxPoint x="912" y="236.63781021897827" as="targetPoint" />
            <Array as="points" />
          </mxGeometry>
        </mxCell>
        <mxCell id="_nRTVuiJzCOUULZlLTgy-107" value="" style="endArrow=none;html=1;rounded=0;strokeColor=default;" parent="_nRTVuiJzCOUULZlLTgy-171" edge="1">
          <mxGeometry width="50" height="50" relative="1" as="geometry">
            <mxPoint x="836" y="279.514598540146" as="sourcePoint" />
            <mxPoint x="912" y="279.55751824817514" as="targetPoint" />
            <Array as="points" />
          </mxGeometry>
        </mxCell>
        <mxCell id="_nRTVuiJzCOUULZlLTgy-108" value="" style="endArrow=none;html=1;rounded=0;strokeColor=default;" parent="_nRTVuiJzCOUULZlLTgy-171" edge="1">
          <mxGeometry width="50" height="50" relative="1" as="geometry">
            <mxPoint x="836" y="322.43430656934305" as="sourcePoint" />
            <mxPoint x="912" y="322.4772262773722" as="targetPoint" />
            <Array as="points" />
          </mxGeometry>
        </mxCell>
        <mxCell id="_nRTVuiJzCOUULZlLTgy-109" value="" style="endArrow=none;html=1;rounded=0;strokeColor=default;" parent="_nRTVuiJzCOUULZlLTgy-171" edge="1">
          <mxGeometry width="50" height="50" relative="1" as="geometry">
            <mxPoint x="836" y="365.3540145985401" as="sourcePoint" />
            <mxPoint x="912" y="365.3969343065693" as="targetPoint" />
            <Array as="points" />
          </mxGeometry>
        </mxCell>
        <mxCell id="_nRTVuiJzCOUULZlLTgy-110" value="" style="endArrow=none;html=1;rounded=0;strokeColor=default;" parent="_nRTVuiJzCOUULZlLTgy-171" edge="1">
          <mxGeometry width="50" height="50" relative="1" as="geometry">
            <mxPoint x="836" y="408.2737226277372" as="sourcePoint" />
            <mxPoint x="912" y="408.31664233576635" as="targetPoint" />
            <Array as="points" />
          </mxGeometry>
        </mxCell>
        <mxCell id="_nRTVuiJzCOUULZlLTgy-111" value="" style="endArrow=none;html=1;rounded=0;strokeColor=default;" parent="_nRTVuiJzCOUULZlLTgy-171" edge="1">
          <mxGeometry width="50" height="50" relative="1" as="geometry">
            <mxPoint x="1121" y="108.43664233576635" as="sourcePoint" />
            <mxPoint x="1197" y="108.37226277372262" as="targetPoint" />
            <Array as="points" />
          </mxGeometry>
        </mxCell>
        <mxCell id="_nRTVuiJzCOUULZlLTgy-112" value="" style="endArrow=none;html=1;rounded=0;strokeColor=default;" parent="_nRTVuiJzCOUULZlLTgy-171" edge="1">
          <mxGeometry width="50" height="50" relative="1" as="geometry">
            <mxPoint x="1121" y="150.99153284671536" as="sourcePoint" />
            <mxPoint x="1197" y="150.92715328467162" as="targetPoint" />
            <Array as="points" />
          </mxGeometry>
        </mxCell>
        <mxCell id="_nRTVuiJzCOUULZlLTgy-113" value="" style="endArrow=none;html=1;rounded=0;strokeColor=default;" parent="_nRTVuiJzCOUULZlLTgy-171" edge="1">
          <mxGeometry width="50" height="50" relative="1" as="geometry">
            <mxPoint x="1121" y="193.91124087591243" as="sourcePoint" />
            <mxPoint x="1197" y="193.8468613138687" as="targetPoint" />
            <Array as="points" />
          </mxGeometry>
        </mxCell>
        <mxCell id="_nRTVuiJzCOUULZlLTgy-114" value="" style="endArrow=none;html=1;rounded=0;strokeColor=default;" parent="_nRTVuiJzCOUULZlLTgy-171" edge="1">
          <mxGeometry width="50" height="50" relative="1" as="geometry">
            <mxPoint x="1121" y="231.46598540145987" as="sourcePoint" />
            <mxPoint x="1197" y="231.40160583941613" as="targetPoint" />
            <Array as="points" />
          </mxGeometry>
        </mxCell>
        <mxCell id="_nRTVuiJzCOUULZlLTgy-115" value="" style="endArrow=none;html=1;rounded=0;strokeColor=default;" parent="_nRTVuiJzCOUULZlLTgy-171" edge="1">
          <mxGeometry width="50" height="50" relative="1" as="geometry">
            <mxPoint x="1121" y="279.75065693430656" as="sourcePoint" />
            <mxPoint x="1197" y="279.68627737226285" as="targetPoint" />
            <Array as="points" />
          </mxGeometry>
        </mxCell>
        <mxCell id="_nRTVuiJzCOUULZlLTgy-116" value="" style="endArrow=none;html=1;rounded=0;strokeColor=default;" parent="_nRTVuiJzCOUULZlLTgy-171" edge="1">
          <mxGeometry width="50" height="50" relative="1" as="geometry">
            <mxPoint x="1121" y="322.67036496350363" as="sourcePoint" />
            <mxPoint x="1197" y="322.6059854014599" as="targetPoint" />
            <Array as="points" />
          </mxGeometry>
        </mxCell>
        <mxCell id="_nRTVuiJzCOUULZlLTgy-117" value="" style="endArrow=none;html=1;rounded=0;strokeColor=default;" parent="_nRTVuiJzCOUULZlLTgy-171" edge="1">
          <mxGeometry width="50" height="50" relative="1" as="geometry">
            <mxPoint x="1121" y="365.59007299270075" as="sourcePoint" />
            <mxPoint x="1197" y="365.525693430657" as="targetPoint" />
            <Array as="points" />
          </mxGeometry>
        </mxCell>
        <mxCell id="_nRTVuiJzCOUULZlLTgy-118" value="" style="endArrow=none;html=1;rounded=0;strokeColor=default;" parent="_nRTVuiJzCOUULZlLTgy-171" edge="1">
          <mxGeometry width="50" height="50" relative="1" as="geometry">
            <mxPoint x="1121" y="408.5097810218978" as="sourcePoint" />
            <mxPoint x="1197" y="408.44540145985405" as="targetPoint" />
            <Array as="points" />
          </mxGeometry>
        </mxCell>
        <mxCell id="_nRTVuiJzCOUULZlLTgy-119" value="" style="endArrow=none;html=1;rounded=0;strokeColor=default;" parent="_nRTVuiJzCOUULZlLTgy-171" edge="1">
          <mxGeometry width="50" height="50" relative="1" as="geometry">
            <mxPoint x="1121" y="65.30233576642348" as="sourcePoint" />
            <mxPoint x="1197" y="65.23795620437951" as="targetPoint" />
            <Array as="points" />
          </mxGeometry>
        </mxCell>
        <mxCell id="_nRTVuiJzCOUULZlLTgy-120" value="1" style="rounded=0;whiteSpace=wrap;html=1;strokeColor=#666666;strokeWidth=2;fillColor=#f5f5f5;direction=south;fontColor=#333333;fontSize=20;fontStyle=1" parent="_nRTVuiJzCOUULZlLTgy-171" vertex="1">
          <mxGeometry x="646" y="92.27737226277371" width="57" height="32.18978102189781" as="geometry" />
        </mxCell>
        <mxCell id="_nRTVuiJzCOUULZlLTgy-121" value="&lt;span style=&quot;font-size: 18px;&quot;&gt;E&lt;/span&gt;&lt;span style=&quot;font-size: 18px;&quot;&gt;[1]&lt;/span&gt;" style="rounded=0;whiteSpace=wrap;html=1;strokeColor=#b85450;strokeWidth=2;fillColor=#f8cecc;direction=north;fontSize=18;fontStyle=1" parent="_nRTVuiJzCOUULZlLTgy-171" vertex="1">
          <mxGeometry x="912" y="92.27737226277371" width="76" height="32.18978102189781" as="geometry" />
        </mxCell>
        <mxCell id="_nRTVuiJzCOUULZlLTgy-122" value="2" style="rounded=0;whiteSpace=wrap;html=1;strokeColor=#666666;strokeWidth=2;fillColor=#f5f5f5;direction=south;fontColor=#333333;fontSize=20;fontStyle=1" parent="_nRTVuiJzCOUULZlLTgy-171" vertex="1">
          <mxGeometry x="646" y="135.1970802919708" width="57" height="32.18978102189781" as="geometry" />
        </mxCell>
        <mxCell id="_nRTVuiJzCOUULZlLTgy-123" value="3" style="rounded=0;whiteSpace=wrap;html=1;strokeColor=#666666;strokeWidth=2;fillColor=#f5f5f5;direction=south;fontColor=#333333;fontSize=20;fontStyle=1" parent="_nRTVuiJzCOUULZlLTgy-171" vertex="1">
          <mxGeometry x="646" y="178.11678832116786" width="57" height="32.18978102189781" as="geometry" />
        </mxCell>
        <mxCell id="_nRTVuiJzCOUULZlLTgy-124" value="4" style="rounded=0;whiteSpace=wrap;html=1;strokeColor=#666666;strokeWidth=2;fillColor=#f5f5f5;direction=south;fontColor=#333333;fontSize=20;fontStyle=1" parent="_nRTVuiJzCOUULZlLTgy-171" vertex="1">
          <mxGeometry x="646" y="221.03649635036496" width="57" height="32.18978102189781" as="geometry" />
        </mxCell>
        <mxCell id="_nRTVuiJzCOUULZlLTgy-125" value="5" style="rounded=0;whiteSpace=wrap;html=1;strokeColor=#666666;strokeWidth=2;fillColor=#f5f5f5;direction=south;fontColor=#333333;fontSize=20;fontStyle=1" parent="_nRTVuiJzCOUULZlLTgy-171" vertex="1">
          <mxGeometry x="646" y="263.956204379562" width="57" height="32.18978102189781" as="geometry" />
        </mxCell>
        <mxCell id="_nRTVuiJzCOUULZlLTgy-126" value="6" style="rounded=0;whiteSpace=wrap;html=1;strokeColor=#666666;strokeWidth=2;fillColor=#f5f5f5;direction=south;fontColor=#333333;fontSize=20;fontStyle=1" parent="_nRTVuiJzCOUULZlLTgy-171" vertex="1">
          <mxGeometry x="646" y="306.8759124087591" width="57" height="32.18978102189781" as="geometry" />
        </mxCell>
        <mxCell id="_nRTVuiJzCOUULZlLTgy-127" value="7" style="rounded=0;whiteSpace=wrap;html=1;strokeColor=#666666;strokeWidth=2;fillColor=#f5f5f5;direction=south;fontColor=#333333;fontSize=20;fontStyle=1" parent="_nRTVuiJzCOUULZlLTgy-171" vertex="1">
          <mxGeometry x="646" y="349.7956204379562" width="57" height="32.18978102189781" as="geometry" />
        </mxCell>
        <mxCell id="_nRTVuiJzCOUULZlLTgy-128" value="8" style="rounded=0;whiteSpace=wrap;html=1;strokeColor=#666666;strokeWidth=2;fillColor=#f5f5f5;direction=south;fontColor=#333333;fontSize=20;fontStyle=1" parent="_nRTVuiJzCOUULZlLTgy-171" vertex="1">
          <mxGeometry x="646" y="392.71532846715326" width="57" height="32.18978102189781" as="geometry" />
        </mxCell>
        <mxCell id="_nRTVuiJzCOUULZlLTgy-129" value="E&lt;sub style=&quot;font-size: 18px;&quot;&gt;[2]&lt;/sub&gt;" style="rounded=0;whiteSpace=wrap;html=1;strokeColor=#b85450;strokeWidth=2;fillColor=#f8cecc;direction=north;fontSize=18;fontStyle=1" parent="_nRTVuiJzCOUULZlLTgy-171" vertex="1">
          <mxGeometry x="912" y="135.1970802919708" width="76" height="32.18978102189781" as="geometry" />
        </mxCell>
        <mxCell id="_nRTVuiJzCOUULZlLTgy-130" value="E&lt;sub style=&quot;font-size: 18px;&quot;&gt;[3]&lt;/sub&gt;" style="rounded=0;whiteSpace=wrap;html=1;strokeColor=#b85450;strokeWidth=2;fillColor=#f8cecc;direction=north;fontSize=18;fontStyle=1" parent="_nRTVuiJzCOUULZlLTgy-171" vertex="1">
          <mxGeometry x="912" y="178.11678832116786" width="76" height="32.18978102189781" as="geometry" />
        </mxCell>
        <mxCell id="_nRTVuiJzCOUULZlLTgy-131" value="E&lt;sub style=&quot;font-size: 18px;&quot;&gt;[4]&lt;/sub&gt;" style="rounded=0;whiteSpace=wrap;html=1;strokeColor=#b85450;strokeWidth=2;fillColor=#f8cecc;direction=north;fontSize=18;fontStyle=1" parent="_nRTVuiJzCOUULZlLTgy-171" vertex="1">
          <mxGeometry x="912" y="221.03649635036496" width="76" height="32.18978102189781" as="geometry" />
        </mxCell>
        <mxCell id="_nRTVuiJzCOUULZlLTgy-132" value="E&lt;sub style=&quot;font-size: 18px;&quot;&gt;[5]&lt;/sub&gt;" style="rounded=0;whiteSpace=wrap;html=1;strokeColor=#b85450;strokeWidth=2;fillColor=#f8cecc;direction=north;fontSize=18;fontStyle=1" parent="_nRTVuiJzCOUULZlLTgy-171" vertex="1">
          <mxGeometry x="912" y="263.956204379562" width="76" height="32.18978102189781" as="geometry" />
        </mxCell>
        <mxCell id="_nRTVuiJzCOUULZlLTgy-133" value="E&lt;sub style=&quot;font-size: 18px;&quot;&gt;[6]&lt;/sub&gt;" style="rounded=0;whiteSpace=wrap;html=1;strokeColor=#b85450;strokeWidth=2;fillColor=#f8cecc;direction=north;fontSize=18;fontStyle=1" parent="_nRTVuiJzCOUULZlLTgy-171" vertex="1">
          <mxGeometry x="912" y="306.8759124087591" width="76" height="32.18978102189781" as="geometry" />
        </mxCell>
        <mxCell id="_nRTVuiJzCOUULZlLTgy-134" value="E&lt;sub style=&quot;font-size: 18px;&quot;&gt;[7]&lt;/sub&gt;" style="rounded=0;whiteSpace=wrap;html=1;strokeColor=#b85450;strokeWidth=2;fillColor=#f8cecc;direction=north;fontSize=18;fontStyle=1" parent="_nRTVuiJzCOUULZlLTgy-171" vertex="1">
          <mxGeometry x="912" y="349.7956204379562" width="76" height="32.18978102189781" as="geometry" />
        </mxCell>
        <mxCell id="_nRTVuiJzCOUULZlLTgy-135" value="E&lt;sub style=&quot;font-size: 18px;&quot;&gt;[8]&lt;/sub&gt;" style="rounded=0;whiteSpace=wrap;html=1;strokeColor=#b85450;strokeWidth=2;fillColor=#f8cecc;direction=north;fontSize=18;fontStyle=1" parent="_nRTVuiJzCOUULZlLTgy-171" vertex="1">
          <mxGeometry x="912" y="392.71532846715326" width="76" height="32.18978102189781" as="geometry" />
        </mxCell>
        <mxCell id="_nRTVuiJzCOUULZlLTgy-136" value="&lt;span style=&quot;font-size: 18px;&quot;&gt;E&lt;/span&gt;&lt;span style=&quot;font-size: 18px;&quot;&gt;[CLS]&lt;/span&gt;" style="rounded=0;whiteSpace=wrap;html=1;strokeColor=#9673a6;strokeWidth=2;fillColor=#e1d5e7;direction=north;fontSize=18;fontStyle=1" parent="_nRTVuiJzCOUULZlLTgy-171" vertex="1">
          <mxGeometry x="912" y="49.357664233576635" width="76" height="32.18978102189781" as="geometry" />
        </mxCell>
        <mxCell id="_nRTVuiJzCOUULZlLTgy-137" value="P&lt;sub style=&quot;font-size: 18px;&quot;&gt;[1]&lt;/sub&gt;" style="rounded=0;whiteSpace=wrap;html=1;strokeColor=#6c8ebf;strokeWidth=2;fillColor=#dae8fc;direction=north;fontSize=18;fontStyle=1" parent="_nRTVuiJzCOUULZlLTgy-171" vertex="1">
          <mxGeometry x="1045" y="92.27737226277371" width="76" height="32.18978102189781" as="geometry" />
        </mxCell>
        <mxCell id="_nRTVuiJzCOUULZlLTgy-138" value="&lt;font size=&quot;1&quot;&gt;&lt;b style=&quot;font-size: 30px&quot;&gt;+&lt;/b&gt;&lt;/font&gt;" style="text;html=1;align=center;verticalAlign=middle;resizable=0;points=[];autosize=1;strokeColor=none;fillColor=none;" parent="_nRTVuiJzCOUULZlLTgy-171" vertex="1">
          <mxGeometry x="988" y="92.27737226277371" width="30" height="30" as="geometry" />
        </mxCell>
        <mxCell id="_nRTVuiJzCOUULZlLTgy-139" value="P&lt;sub style=&quot;font-size: 18px;&quot;&gt;[2]&lt;/sub&gt;" style="rounded=0;whiteSpace=wrap;html=1;strokeColor=#6c8ebf;strokeWidth=2;fillColor=#dae8fc;direction=north;fontSize=18;fontStyle=1" parent="_nRTVuiJzCOUULZlLTgy-171" vertex="1">
          <mxGeometry x="1045" y="135.1970802919708" width="76" height="32.18978102189781" as="geometry" />
        </mxCell>
        <mxCell id="_nRTVuiJzCOUULZlLTgy-140" value="P&lt;sub style=&quot;font-size: 18px;&quot;&gt;[5]&lt;/sub&gt;" style="rounded=0;whiteSpace=wrap;html=1;strokeColor=#6c8ebf;strokeWidth=2;fillColor=#dae8fc;direction=north;fontSize=18;fontStyle=1" parent="_nRTVuiJzCOUULZlLTgy-171" vertex="1">
          <mxGeometry x="1045" y="263.956204379562" width="76" height="32.18978102189781" as="geometry" />
        </mxCell>
        <mxCell id="_nRTVuiJzCOUULZlLTgy-141" value="P&lt;sub style=&quot;font-size: 18px;&quot;&gt;[0]&lt;/sub&gt;" style="rounded=0;whiteSpace=wrap;html=1;strokeColor=#6c8ebf;strokeWidth=2;fillColor=#dae8fc;direction=north;fontSize=18;fontStyle=1" parent="_nRTVuiJzCOUULZlLTgy-171" vertex="1">
          <mxGeometry x="1045" y="49.357664233576635" width="76" height="32.18978102189781" as="geometry" />
        </mxCell>
        <mxCell id="_nRTVuiJzCOUULZlLTgy-142" value="P&lt;sub style=&quot;font-size: 18px;&quot;&gt;[8]&lt;/sub&gt;" style="rounded=0;whiteSpace=wrap;html=1;strokeColor=#6c8ebf;strokeWidth=2;fillColor=#dae8fc;direction=north;fontSize=18;fontStyle=1" parent="_nRTVuiJzCOUULZlLTgy-171" vertex="1">
          <mxGeometry x="1045" y="392.71532846715326" width="76" height="32.18978102189781" as="geometry" />
        </mxCell>
        <mxCell id="_nRTVuiJzCOUULZlLTgy-143" value="P&lt;sub style=&quot;font-size: 18px;&quot;&gt;[6]&lt;/sub&gt;" style="rounded=0;whiteSpace=wrap;html=1;strokeColor=#6c8ebf;strokeWidth=2;fillColor=#dae8fc;direction=north;fontSize=18;fontStyle=1" parent="_nRTVuiJzCOUULZlLTgy-171" vertex="1">
          <mxGeometry x="1045" y="306.8759124087591" width="76" height="32.18978102189781" as="geometry" />
        </mxCell>
        <mxCell id="_nRTVuiJzCOUULZlLTgy-144" value="P&lt;sub style=&quot;font-size: 18px;&quot;&gt;[7]&lt;/sub&gt;" style="rounded=0;whiteSpace=wrap;html=1;strokeColor=#6c8ebf;strokeWidth=2;fillColor=#dae8fc;direction=north;fontSize=18;fontStyle=1" parent="_nRTVuiJzCOUULZlLTgy-171" vertex="1">
          <mxGeometry x="1045" y="349.7956204379562" width="76" height="32.18978102189781" as="geometry" />
        </mxCell>
        <mxCell id="_nRTVuiJzCOUULZlLTgy-145" value="P&lt;sub style=&quot;font-size: 18px;&quot;&gt;[3]&lt;/sub&gt;" style="rounded=0;whiteSpace=wrap;html=1;strokeColor=#6c8ebf;strokeWidth=2;fillColor=#dae8fc;direction=north;fontSize=18;fontStyle=1" parent="_nRTVuiJzCOUULZlLTgy-171" vertex="1">
          <mxGeometry x="1045" y="178.11678832116786" width="76" height="32.18978102189781" as="geometry" />
        </mxCell>
        <mxCell id="_nRTVuiJzCOUULZlLTgy-146" value="P&lt;sub style=&quot;font-size: 18px;&quot;&gt;[4]&lt;/sub&gt;" style="rounded=0;whiteSpace=wrap;html=1;strokeColor=#6c8ebf;strokeWidth=2;fillColor=#dae8fc;direction=north;fontSize=18;fontStyle=1" parent="_nRTVuiJzCOUULZlLTgy-171" vertex="1">
          <mxGeometry x="1045" y="221.03649635036496" width="76" height="32.18978102189781" as="geometry" />
        </mxCell>
        <mxCell id="_nRTVuiJzCOUULZlLTgy-147" value="&lt;font size=&quot;1&quot;&gt;&lt;b style=&quot;font-size: 30px&quot;&gt;+&lt;/b&gt;&lt;/font&gt;" style="text;html=1;align=center;verticalAlign=middle;resizable=0;points=[];autosize=1;strokeColor=none;fillColor=none;" parent="_nRTVuiJzCOUULZlLTgy-171" vertex="1">
          <mxGeometry x="988" y="49.357664233576635" width="30" height="30" as="geometry" />
        </mxCell>
        <mxCell id="_nRTVuiJzCOUULZlLTgy-148" value="&lt;font size=&quot;1&quot;&gt;&lt;b style=&quot;font-size: 30px&quot;&gt;+&lt;/b&gt;&lt;/font&gt;" style="text;html=1;align=center;verticalAlign=middle;resizable=0;points=[];autosize=1;strokeColor=none;fillColor=none;" parent="_nRTVuiJzCOUULZlLTgy-171" vertex="1">
          <mxGeometry x="988" y="263.956204379562" width="30" height="30" as="geometry" />
        </mxCell>
        <mxCell id="_nRTVuiJzCOUULZlLTgy-149" value="&lt;font size=&quot;1&quot;&gt;&lt;b style=&quot;font-size: 30px&quot;&gt;+&lt;/b&gt;&lt;/font&gt;" style="text;html=1;align=center;verticalAlign=middle;resizable=0;points=[];autosize=1;strokeColor=none;fillColor=none;" parent="_nRTVuiJzCOUULZlLTgy-171" vertex="1">
          <mxGeometry x="988" y="221.03649635036496" width="30" height="30" as="geometry" />
        </mxCell>
        <mxCell id="_nRTVuiJzCOUULZlLTgy-150" value="&lt;font size=&quot;1&quot;&gt;&lt;b style=&quot;font-size: 30px&quot;&gt;+&lt;/b&gt;&lt;/font&gt;" style="text;html=1;align=center;verticalAlign=middle;resizable=0;points=[];autosize=1;strokeColor=none;fillColor=none;" parent="_nRTVuiJzCOUULZlLTgy-171" vertex="1">
          <mxGeometry x="988" y="178.11678832116786" width="30" height="30" as="geometry" />
        </mxCell>
        <mxCell id="_nRTVuiJzCOUULZlLTgy-151" value="&lt;font size=&quot;1&quot;&gt;&lt;b style=&quot;font-size: 30px&quot;&gt;+&lt;/b&gt;&lt;/font&gt;" style="text;html=1;align=center;verticalAlign=middle;resizable=0;points=[];autosize=1;strokeColor=none;fillColor=none;" parent="_nRTVuiJzCOUULZlLTgy-171" vertex="1">
          <mxGeometry x="988" y="135.1970802919708" width="30" height="30" as="geometry" />
        </mxCell>
        <mxCell id="_nRTVuiJzCOUULZlLTgy-152" value="&lt;font size=&quot;1&quot;&gt;&lt;b style=&quot;font-size: 30px&quot;&gt;+&lt;/b&gt;&lt;/font&gt;" style="text;html=1;align=center;verticalAlign=middle;resizable=0;points=[];autosize=1;strokeColor=none;fillColor=none;" parent="_nRTVuiJzCOUULZlLTgy-171" vertex="1">
          <mxGeometry x="988" y="306.8759124087591" width="30" height="30" as="geometry" />
        </mxCell>
        <mxCell id="_nRTVuiJzCOUULZlLTgy-153" value="&lt;font size=&quot;1&quot;&gt;&lt;b style=&quot;font-size: 30px&quot;&gt;+&lt;/b&gt;&lt;/font&gt;" style="text;html=1;align=center;verticalAlign=middle;resizable=0;points=[];autosize=1;strokeColor=none;fillColor=none;" parent="_nRTVuiJzCOUULZlLTgy-171" vertex="1">
          <mxGeometry x="988" y="349.7956204379562" width="30" height="30" as="geometry" />
        </mxCell>
        <mxCell id="_nRTVuiJzCOUULZlLTgy-154" value="&lt;font size=&quot;1&quot;&gt;&lt;b style=&quot;font-size: 30px&quot;&gt;+&lt;/b&gt;&lt;/font&gt;" style="text;html=1;align=center;verticalAlign=middle;resizable=0;points=[];autosize=1;strokeColor=none;fillColor=none;" parent="_nRTVuiJzCOUULZlLTgy-171" vertex="1">
          <mxGeometry x="988" y="392.71532846715326" width="30" height="30" as="geometry" />
        </mxCell>
        <mxCell id="_nRTVuiJzCOUULZlLTgy-155" style="edgeStyle=none;rounded=0;orthogonalLoop=1;jettySize=auto;html=1;fontSize=30;startArrow=baseDash;startFill=0;strokeColor=default;" parent="_nRTVuiJzCOUULZlLTgy-171" source="_nRTVuiJzCOUULZlLTgy-156" edge="1">
          <mxGeometry relative="1" as="geometry">
            <mxPoint x="247" y="258.5912408759124" as="targetPoint" />
          </mxGeometry>
        </mxCell>
        <mxCell id="_nRTVuiJzCOUULZlLTgy-156" value="" style="rounded=0;whiteSpace=wrap;html=1;strokeColor=#666666;strokeWidth=2;fillColor=#f5f5f5;direction=south;fontColor=#333333;" parent="_nRTVuiJzCOUULZlLTgy-171" vertex="1">
          <mxGeometry y="226.40145985401458" width="190" height="64.37956204379562" as="geometry" />
        </mxCell>
        <mxCell id="_nRTVuiJzCOUULZlLTgy-157" value="1" style="rounded=0;whiteSpace=wrap;html=1;strokeColor=#666666;strokeWidth=2;fillColor=#f5f5f5;direction=south;fontColor=#333333;fontSize=20;fontStyle=1" parent="_nRTVuiJzCOUULZlLTgy-171" vertex="1">
          <mxGeometry x="266" y="221.03649635036496" width="57" height="32.18978102189781" as="geometry" />
        </mxCell>
        <mxCell id="_nRTVuiJzCOUULZlLTgy-158" value="2" style="rounded=0;whiteSpace=wrap;html=1;strokeColor=#666666;strokeWidth=2;fillColor=#f5f5f5;direction=south;fontColor=#333333;fontSize=20;fontStyle=1" parent="_nRTVuiJzCOUULZlLTgy-171" vertex="1">
          <mxGeometry x="342" y="221.03649635036496" width="57" height="32.18978102189781" as="geometry" />
        </mxCell>
        <mxCell id="_nRTVuiJzCOUULZlLTgy-159" value="6" style="rounded=0;whiteSpace=wrap;html=1;strokeColor=#666666;strokeWidth=2;fillColor=#f5f5f5;direction=south;fontColor=#333333;fontSize=20;fontStyle=1" parent="_nRTVuiJzCOUULZlLTgy-171" vertex="1">
          <mxGeometry x="342" y="263.956204379562" width="57" height="32.18978102189781" as="geometry" />
        </mxCell>
        <mxCell id="_nRTVuiJzCOUULZlLTgy-160" value="5" style="rounded=0;whiteSpace=wrap;html=1;strokeColor=#666666;strokeWidth=2;fillColor=#f5f5f5;direction=south;fontColor=#333333;fontSize=20;fontStyle=1" parent="_nRTVuiJzCOUULZlLTgy-171" vertex="1">
          <mxGeometry x="266" y="263.956204379562" width="57" height="32.18978102189781" as="geometry" />
        </mxCell>
        <mxCell id="_nRTVuiJzCOUULZlLTgy-161" value="4" style="rounded=0;whiteSpace=wrap;html=1;strokeColor=#666666;strokeWidth=2;fillColor=#f5f5f5;direction=south;fontColor=#333333;fontSize=20;fontStyle=1" parent="_nRTVuiJzCOUULZlLTgy-171" vertex="1">
          <mxGeometry x="494" y="221.03649635036496" width="57" height="32.18978102189781" as="geometry" />
        </mxCell>
        <mxCell id="_nRTVuiJzCOUULZlLTgy-162" value="3" style="rounded=0;whiteSpace=wrap;html=1;strokeColor=#666666;strokeWidth=2;fillColor=#f5f5f5;direction=south;fontColor=#333333;fontSize=20;fontStyle=1" parent="_nRTVuiJzCOUULZlLTgy-171" vertex="1">
          <mxGeometry x="418" y="221.03649635036496" width="57" height="32.18978102189781" as="geometry" />
        </mxCell>
        <mxCell id="_nRTVuiJzCOUULZlLTgy-163" value="7" style="rounded=0;whiteSpace=wrap;html=1;strokeColor=#666666;strokeWidth=2;fillColor=#f5f5f5;direction=south;fontColor=#333333;fontSize=18;fontStyle=1" parent="_nRTVuiJzCOUULZlLTgy-171" vertex="1">
          <mxGeometry x="418" y="263.956204379562" width="57" height="32.18978102189781" as="geometry" />
        </mxCell>
        <mxCell id="_nRTVuiJzCOUULZlLTgy-164" value="8" style="rounded=0;whiteSpace=wrap;html=1;strokeColor=#666666;strokeWidth=2;fillColor=#f5f5f5;direction=south;fontColor=#333333;fontSize=20;fontStyle=1" parent="_nRTVuiJzCOUULZlLTgy-171" vertex="1">
          <mxGeometry x="494" y="263.956204379562" width="57" height="32.18978102189781" as="geometry" />
        </mxCell>
        <mxCell id="_nRTVuiJzCOUULZlLTgy-165" value="" style="shape=partialRectangle;whiteSpace=wrap;html=1;bottom=1;right=1;left=1;top=0;fillColor=none;routingCenterX=-0.5;fontSize=30;strokeColor=#000000;strokeWidth=2;direction=south;" parent="_nRTVuiJzCOUULZlLTgy-171" vertex="1">
          <mxGeometry x="613.6999999999998" y="89.05839416058393" width="19" height="168.45985401459853" as="geometry" />
        </mxCell>
        <mxCell id="_nRTVuiJzCOUULZlLTgy-166" value="" style="shape=partialRectangle;whiteSpace=wrap;html=1;bottom=1;right=1;left=1;top=0;fillColor=none;routingCenterX=-0.5;fontSize=30;strokeColor=#000000;strokeWidth=2;direction=south;" parent="_nRTVuiJzCOUULZlLTgy-171" vertex="1">
          <mxGeometry x="613.6999999999998" y="263.956204379562" width="19" height="166.31386861313868" as="geometry" />
        </mxCell>
        <mxCell id="_nRTVuiJzCOUULZlLTgy-167" value="" style="endArrow=classic;html=1;rounded=0;fontSize=30;strokeColor=default;exitX=0.5;exitY=0;exitDx=0;exitDy=0;" parent="_nRTVuiJzCOUULZlLTgy-171" source="_nRTVuiJzCOUULZlLTgy-164" edge="1">
          <mxGeometry width="50" height="50" relative="1" as="geometry">
            <mxPoint x="513" y="333.7007299270073" as="sourcePoint" />
            <mxPoint x="608" y="344.43065693430657" as="targetPoint" />
            <Array as="points">
              <mxPoint x="570" y="280.0510948905109" />
              <mxPoint x="570" y="344.43065693430657" />
            </Array>
          </mxGeometry>
        </mxCell>
        <mxCell id="_nRTVuiJzCOUULZlLTgy-168" value="" style="endArrow=classic;html=1;rounded=0;fontSize=30;strokeColor=default;exitX=0.5;exitY=0;exitDx=0;exitDy=0;entryX=0.5;entryY=1;entryDx=0;entryDy=0;" parent="_nRTVuiJzCOUULZlLTgy-171" source="_nRTVuiJzCOUULZlLTgy-161" target="_nRTVuiJzCOUULZlLTgy-165" edge="1">
          <mxGeometry width="50" height="50" relative="1" as="geometry">
            <mxPoint x="551" y="242.4963503649635" as="sourcePoint" />
            <mxPoint x="608" y="306.8759124087591" as="targetPoint" />
            <Array as="points">
              <mxPoint x="570" y="237.13138686131384" />
              <mxPoint x="570" y="173.82481751824815" />
            </Array>
          </mxGeometry>
        </mxCell>
        <mxCell id="_nRTVuiJzCOUULZlLTgy-169" value="" style="endArrow=classic;html=1;rounded=0;fontSize=30;strokeColor=default;" parent="_nRTVuiJzCOUULZlLTgy-171" edge="1">
          <mxGeometry width="50" height="50" relative="1" as="geometry">
            <mxPoint x="1254" y="231.76642335766422" as="sourcePoint" />
            <mxPoint x="1311" y="231.76642335766422" as="targetPoint" />
          </mxGeometry>
        </mxCell>
        <mxCell id="NADUIRsd1BDECD5ReKx2-3" value="AST" style="text;html=1;resizable=0;autosize=1;align=center;verticalAlign=middle;points=[];fillColor=none;strokeColor=none;rounded=0;strokeWidth=6;fontSize=50;fontFamily=Tahoma;fontStyle=1" vertex="1" parent="_nRTVuiJzCOUULZlLTgy-171">
          <mxGeometry x="441" y="-40.6400000000001" width="110" height="70" as="geometry" />
        </mxCell>
        <mxCell id="_nRTVuiJzCOUULZlLTgy-175" value="Final Prediction" style="text;html=1;resizable=0;autosize=1;align=center;verticalAlign=middle;points=[];fillColor=none;strokeColor=none;rounded=0;strokeWidth=6;fontSize=25;fontFamily=Tahoma;fontStyle=1" parent="1" vertex="1">
          <mxGeometry x="3290" y="807.84" width="210" height="40" as="geometry" />
        </mxCell>
        <mxCell id="NADUIRsd1BDECD5ReKx2-1" value="" style="group" vertex="1" connectable="0" parent="1">
          <mxGeometry x="430" y="617.84" width="810" height="450" as="geometry" />
        </mxCell>
        <mxCell id="G7gRL9SPklHr558Kcwvp-301" value="" style="rounded=0;whiteSpace=wrap;html=1;fontSize=15;strokeWidth=5;" parent="NADUIRsd1BDECD5ReKx2-1" vertex="1">
          <mxGeometry width="810" height="450" as="geometry" />
        </mxCell>
        <mxCell id="G7gRL9SPklHr558Kcwvp-283" value="" style="endArrow=none;dashed=1;html=1;rounded=0;entryX=0;entryY=0.5;entryDx=0;entryDy=0;exitX=0;exitY=0;exitDx=0;exitDy=0;" parent="NADUIRsd1BDECD5ReKx2-1" target="G7gRL9SPklHr558Kcwvp-286" edge="1">
          <mxGeometry width="50" height="50" relative="1" as="geometry">
            <mxPoint x="69.67314815579704" y="181.07531871494152" as="sourcePoint" />
            <mxPoint x="118.46295444219581" y="101.88807527842876" as="targetPoint" />
          </mxGeometry>
        </mxCell>
        <mxCell id="G7gRL9SPklHr558Kcwvp-290" value="" style="rounded=0;whiteSpace=wrap;html=1;container=0;" parent="NADUIRsd1BDECD5ReKx2-1" vertex="1">
          <mxGeometry x="69.67741935483872" y="178.30188679245285" width="661.9354838709678" height="127.35849056603774" as="geometry" />
        </mxCell>
        <mxCell id="G7gRL9SPklHr558Kcwvp-291" value="" style="shape=image;verticalLabelPosition=bottom;labelBackgroundColor=#ffffff;verticalAlign=top;aspect=fixed;imageAspect=0;image=data:image/png,iVBORw0KGgoAAAANSUhEUgAAApUAAAB4CAYAAACjFAnSAAAAAXNSR0IArs4c6QAAAARnQU1BAACxjwv8YQUAAAAJcEhZcwAADsMAAA7DAcdvqGQAAAAhdEVYdENyZWF0aW9uIFRpbWUAMjAyMjowNDowMSAwMjowNDoyMOcP6rIAADf6SURBVHhe7Z0HnBVFtsYLAck5iUgQSaJEEVRAJCliRF2za86K6RlQQTGvWVddc8DImhMqIiAggkgUUKKgrEqQnEF89+tbNdNT06G6u7q77p3zfz8f1ejCnb7dVSd+p9TfGRhBEARBEARBRGA3/itB5AQrNmxl6zbv4FcEQRAEQZgCGZVETnHas5PZ1cOn8yuCIAiCIEyBjEoip1i0ciMbv2AVvyIIgiAIwhSMNSrn/LbOMiAIQqZM6VJ8RRAEQRCEKRhrVJ7+3GR2xRuU5iSKUyrzfwRBEARBmIWxRuW6LTvY7+u28CuCYIyECgiCIAjCXKimksgZ5i+ncgiCIAiCMBUyKomcYfvOXXxFEARBEIRpkFFJ5Aybtu/kK4IgCIIgTIOMSiJnoJJKgiAIgjAXMioJgiAIgiCIyBhtVK7dvIPt2kXhKYIgCIIgCNMx0qjcuuMvvmJs/ooNfEUQBEEQBEGYipFG5bvTlvEVY39RpJKQ2JJxOiiCTRAEUfKAXjFpWJuLkUblbqVoYgrhzZI/N/EVQRAEUVKY+/t6dvC9o/kVYRqGGpV8QRAulC9bmq8IgiCIksLm7YXlcYR5GGlU/vC/dXxlBki1nvvSd5SKT5nnxy/mK8bomyAIgiAIszDSqHxt0i98xdgjX87nq/T46++/2Zh5K9n6LTv47xBp8NVPK/iKsQ1b6bsgCIJw4odl69jxT37Dr/KLm9/7ga8Y+2LOH0WuifQx0qi0M+rHQkMibWBcEunw7aI/+SpLaaq7JQiCcGTu7+vYjF/X8qv8YsGKjXzF2MWvTmVvfFcYhCLSx3ijkiDAac9N4iuCIAiCIEzEOKNy+BTyOgjCi19Xb2Y7/trFrwiCIEoGN79fmOp+bdJSviJMwjij8r1p/+Mrc5i2dA1fEUT6dL9/DHtnaqGWK0EQREngjcmFQadbP5jNV4xNXLSKr4i0yYn094sTfuYrNSCOqjOSc8qz+ZF6RRf7tp0kx5APrNqwja8IIhyLV24MvLcShImc/txktmQVaRebQE4YleMXrOQrNV6dtJQdev8YfkUIHv5yPjvuifzsCCQIIhhvfvcLu+OTufyKyEc+mmFe5i8uDntwLF8RaWKcUbldQ4TxyTEL2e/rtvIrQjBlyWr20x80S53IHZB1mPnrWks2ZMV6897prTso8k+Yy8C3ZrCfKYJnFOjKX7ZmM7/KP4wzKmtW3J2vCgn6UixfH09qcMrPq/mKINJl5jKzBgTExR8ZQ/K4J7+xZENm/2bWzzztlzWs1eDP+RVBmMlsPkxk9E/LLSeNSBfoh17xxnR+lX/kRPp7yZ+bLTHXMKC28rMffudX0bj09Wl8RRDpMurH5XyV36wzeODAyhyva/16frCyIiJ3+XPjNnbey9+zT2bpOQvzjYdHzmMfJlgqkK8aosA4o9I+NcXOMU9M4Ct/alcujHaOzvx5ZAwydtO7s6yoDxEMjOYk794McCgS+pi/vFBEmshfYMAccNcoa33lm/kbIYvC46MXsv+MXcSviCjkRKRSsH2nWr3lPzo1tH6F/AAU93Xy+ew/+Cq3eGvKr2zpn9k6jnz2knRzwStT2J2f/MivzOKBL37iK4IIBurOiZLBCyWow3/hig0UBEiZnDIqb3hnJl95I4rn7ULqkNPRwcC3ct/TQ9RScObzk7WVB+QjmPmO+bIm8uSY/PascThs2kaNMHHw9ve/8pVeFiwv3ggIGbMmN33KznnpO/47RJr8b+0Wvso/+jw8jhqTUianjMoJC4vOf3bjpW+WWL/amxk+mvkbX0WjWoWyfJW7oAP8+yWr2UsZD3bCwlVsfOYfwpshH8y2UuH5yIXDvjdyktV/vl7ETvzPRH5FmM7y9VtZ30fGsdcnL2WfzCrcb3f+lX1vxmYctJLGpm072eWGlV9dojl7Zxobtu7kKzWOeHQcXxE6yCmjMgpXD59hectBI5bYFPKRk57+lg01RKMuqXTF8+MXs8dHzedX6sCYHDZpqVXsno98OXc5+2JOtvFnyIezI6VGJ2YclL4Pf82vovHzytyIOCC9eIttfFxJZSffW295f7bV3ZrEKFG8kyanO1dlPt+nhmWCfuDd4PlK2dLqZs2ilRvZPC6zh2BLrjffmUCJMSoFfwXcgEZQajh29h40gq3dvJ1fxcdDI+ezh0ct4FfqLN+QbXDqfM9X1q/5hHwgD/t2KXtlYjbSHwZEvhes0NMA8rbDKEoTDQgY4a/bxseVVMrsVoqvslz6mn+EbmfG8IRRHnaOMxpQZhksr2WwvZs6A9+cHktdeP/Hx/OVP70fKuoAr+B7PRGeEmdUBmUHT92YxPqtO9jGPIugbtpubu1cxd1L81X+cduHc/iqkBWK3rqT8PfuZeLdUp4Zt5iv0uXxjHOybE22Nm31pvgdIt2ofsdBkA0oFdkrzLC/85O5ReY4BwX7oakETcUmhQmlPChJe29aPDI+KhnJQe8V9hYQ+sg7o1K3rl2Z0kW9bxO4eNhUNuApGreYFKImDDwaIn2uE10NZwKk9WVUjWgIf09dWnQgQNw6eJMXq9VVx83Dmefgy7m5qQQBKpQt/I7fdYgIh6Gnwpg8pIPt5LvMWSnzjg+LoR8XdybziWHf+mdb3vwuWrPa7R/NYb8pND3d/emP7JsS1LeQd0al7tqmcjFHXsIwc9latmD5xrzqcotqLGGEH2pm8Y8bO3eFq/HaZpOyejRE+lwnT0j1jl4yW4gkqmx6gq9CCKrLNUgLNaW+cwEh0WUKkzIGt2p5gP0/e268nujvFoWRlQ98Po+v9PJ/b8+kergAoEwlTUSkFOOUVZ/Z/wZQLLj947nWJC63PxvSQ04ofhSLlycuYYfcN5pd+tpU9siX8wsmF8ng/Xpq7MJAe3Euk3dGJYwtL+xRJx189/Nq64FKg36PjmPTf1nje5B/ON07xbBu8w7WK+Vh/FHSX8CezsPh6oSJpQxB+WV1UUPm3WnuUaanv15kbXqiEN0LGKf/Hp01WMM2WHw+O/76Y3yDptRVVi5Xhq+yoEkpTU59dpKyobvaVsOMBgUvZ0wn9r8X/Lmx8DpKxBRpdChaEFk2Gi7FZXdgVXWTb3gnWLp6ZubPdXI00HwL6SEn5HfaDfu7/tnsP9hjXy3w1ANF3S/24pJA3hmV8xx00uxAM00nj2ceJjxQaYAI2oCnJrJLMp6SF1cNn8FXzqA7cXFKUU9Rlxd1ZFzV8oVST6PmlowRhsCrnk/U/N0zwl+8vVrFwvtX3WH+vgqXKDRmgF8zhjHq6MIAWRo0dplQR1eubNHt8/TnJ1vdpGmyK4LBjWiKTsoqlA7ZM0Fj5jlPU/OjXJlsKh+T05LoOA9CWvW2TvXOJvEr35uASoQ7LH0clCg+9pAXVC1XwLsu4+XsutXWYh8zxUnWRV4ZlWm8SCakx03bSIOg6zsrbTvAdN0Pt/rczdvNb5JCKgbRG6DiSH0663crCqhKFHklKCpEnfIxbekavkoPp2qKzSlFiHSkfu+PKTUdN/a6d3upign888Ws4LvuWmg/tvnsq4tXbtIeYAlCUq0K6x2Mubh0mT+Y8ZtVhvX7Ovc09wbJGW57+0htGtqmkFdGpVMna9zsSHizcAIpfR2b1tI/k49WPqVp3upfttR2w5oV+Soa/53iXMMDDT7TGRliChDSRaqc90r4OdxBdOTcUE1Txcnc39fzVSHHPDGBr5Ll6H+ry6iYCpq8gjiZH/CynjU50H2f5CmByFf96hX4lTsol3DrAr/uvzMSGwObdC3sxhg78iE71+vBr12jjyiXk/ltbX41q+WUUfnnJu+Hb3hMo8fcWLxyIxvH07ZpSjRg7Nbon8Kljuz0eCD5uspnQ0rEyHWkhz4whq/04ZYKmbhoFZu6dI3REWIhRA3iGHUIjxy8MzUeSRA//Mo1tmz/i3W5ZxS/SpYnRidfDrN8fbIHc1jk7m8Zt2YHJzDQApxvc3A63DGSvfld/mmG4r6pavkO+XAOG/Sef8Pq9F/WOnbf4915d9r/2H+/16MK4MdVb3mXZ0VFzixFLbXyA+l8dHwDDNywU1rScgVy9DLXySmj0qTSA3gi//q80JO74JUpfJUOc34rHjXJZz5PeR43xgdOWJC+TISbM2P/XUzQcPOcZcHqoKhoEboB4euweBXt42cd9P4PqRlaD46cbzW/5SJLYq6ttksZxQGa8VQMqqRZE3G4w1nPT2YXvzq12Hs8a9naYnvAZwEa5pzewXyTeXphfLRSmzCM5YarnIkTzaK1KwerW0cm0m0PN428Sn8ngfC0UbsjRtuBMfNWFsi73PrBD5a3lyTtGlbjq2i8+m24yRZxYtrLJD6OCcXwbrPod0i1ZW4HhT2imTQ3xzTa8N7PfipIjcaBSpd7uztG8lWylNlNbUuvX608XxUFhkucpPm8pYmX9JcfaGz78Y8NbPLPq60mNUx9gTzNPZ/+yI594ptQUmCCMbYMl4jozfsjG6CIc9stlaCA50ZbpBJZPS/WZJxBr5pIVfB9Q8dSbtQSSjGIWIrpPXglPp/tHSS54s1p7JaICilJQUZlQLxeNNHR+tqkX2KtE9nsYLDWrOTs+QQ1fAZ/aN6D+9u64gbRhzPCFzdDPuXWCAaNaAaoYPCkne1SBEK3lJYOvlkYj5D5mzGPTFTtck8DuSPdDac0HNiksQkNURmI45/+3CT+O9masj9s73NJNTKD0P3+oqU9K9Zvs7qan+Wp1Sj3EHqOAHJMrYd8Ya3vyzhlAAEUGLRxEHRKWbd/hZfjEeoA4IZ3ZvKVM8c/+Q076T/f8qvwQPoNOpYyog4bWZTOd2fH/kL6zU/BZcQPf7CPI5x5SZI3RmVcEiNO3WNu80Htg/oVAwaBeX1ysEhi2Jm6abA8ZNrl20XBjZPXMobHnN+867f85FmEwY5OaNPSnfIYTxOiqjKIGkRpMHNr0Nhg+9l1T+AJcshCdzHpWcKqkkK7uzRLQYYK3flBcfsu8OfNlGZzr92y3eo8xjPpdPDmI6pajKrYAwsoQbn89WkFWbQwEUa75I1dzxcGbRKi3cvWeL9XQh4tKiqOrF80Mwq9963LV8HBvhalZCgp8saoVO0AfPTLYEX0TqlXt9QaNg4hItztX2O0H+T3jviR3fK+cyTxma+dG178xOCdeHjkvIJGjCTBZAIn/OQxZONQ9WAd+KZ3F3cVm/alE7+uzm4+Z73wHbvyrWQ6wtcrjiGVZ+oGyTYl2Y25NYKsiYq+3SnPTgrdUIXU1T+enmjVrQEYQnLUyIvr3p7Jnh6rZ1qNKrdm9gcV58zr3jl1qPpx47vONa67OTx42MPOfWmKY8PEP56JHiVKAjTNBGnOfIIPFtDBYCkNincdWsNiwlqUVDuQjSqn7zAqco3pCU9N5Cv9rEzYsfPCq/McaiNjfbRam93ymW8wJG3yxqhUTYe+rDAT1I7T66T60vp5X0F5xqNTGpuKE7uH0NF8PLMBvhdjTZobmOzhhN9oRHnTQ12MCotWejcl+PWw3M1FxZHSgArAtF/WxK4CIBvMcQgHl1dMoXoRRcvzjOcmFan1ckO1SShIpAWOoOiyRXfxlCVrCsSSw4yg/JZHShFNx/SruPkqc99U5KQwHs8NlQlMMkHuDZQTJmbuh1P9Jh5vjNp9dtyiVBxbVdrf8SXb5+YR/MofJ/mpsEx3iXqKprsaLqVQXohyCKfJSnE07siRcvtENJmo0X4x41tXl3WU4Rqoi3Xjhoxjdk7G2bK/vygVaTqo6Hfy4BfzHINdppA3RuXDKY1K9MJtFFQukMYz61QrCoIO4/+Pg/ala5e0xw/6p2L0WwBvu/Pd8crYyIXfTs/9oQ7RNNUGDrB1h7fThHvmZZSArh4jyfwiyd9kDI5zX/ZXU4B0igp38LoxFVoN/twyGMCP3BBYwA0mtzpEL/Bn4KA+LWMoi/q1uBkcUa9XZ2AqjNTZ65N/YfeM+MnS/IOBiallMr8YNnfdjxiCfcVwG9aggpcME+oMk+LFCT8XqbkFusbrwpFRBSVNbnX3T2qePCVzUcbZaj90pBWouO+zHzP7Jf8XHDQFm1yLnHNGpdtc5yTZlHBndxTCFt5DLinuUXhymrVOlXJ8VQhqSN2MO696Obn0wC0F+raHFpvKhBG57AKfNc7pGXLXpFPUXJ4PDuRoLkop3NKcfpFKlU3eK1qsc0NUKTFZFdA5kMFoSBC1PnlDhEM/ScJEv90kc96PmPGAgQnHSTiFeN9gpD8yyjuI8NSYogf/EY+O017XGIQknHThOGK2dRCwN2J+ddqgieaOT+ay96YX3ZNF41BUUJep6hfOXLbWqruHoS4HJKLKsKmwNvP3YhoTpvTkGjlnVKrWTurCqb5Md62kKmGe5XHzw2spbo3ZeJbTbE5RQ7epNmA4/3cikuTGa5OWuJYiRDWcncbCqdZ0hgGpwzDI4vAopXhnqvO9LeVY9KEPr0Mi6Lulos/qV5PrBGZ42w8TXEPVIQoQbL9o2Pehv0M3dIvwQxQ7KDqmJHkh6p9x2AI/Y/X+L7IOIcSnYYRir5m/PHha34mwqce4xyKKUqegGRad9Z5REGLrsjMfJd1sB8L6qnvbeS9nBfXbDR3JXjGwmexr7uiaiFFGpcpL5zaYPS5QX+iE6uH3paYXAvg1jthBynj0T8uNmE3uhn1mL5Cjboj4yZ2jTlQtX3xknz1NfOsHcwrqamSijsg66N6sLISdOOockyTo4ReljlSe9iN3rfuh4mhVr6j+3ghGzPq9yDPU+6Gv+SoaIzP7AYTzdaLr0A2DiIrFLWqOemXQ88FgU7/syhBBy2jcCPu8C8m5uIDua5jO/Shp87AESWmH6QtwAo7IXyEcgoUZhxIp+f6P6RmFWlbD4PMLMs6pqRhlcah830nUpvgB+RjVl/dCjV9+LZ8CbFGLAjHcM56fbHlbUe4XIoDQmUsKWb5J1lqUERuE0wYlfz9uRdqQN9HNLr2Bo9jYsmOXo99evaL3cyY34cAIDSsYLB9o4uBVfWxVImSqEiHi58LfPWL271o2/yQIWo5zmY8mniqoa9zvti+sMoqlMekZClDDi+adoNizGFG0be2omiWygxQ10u0HmqXCTLjy22eBriivQDQ5+gEJHV1Gr5vgvx9vTP6FPTRynrZmqwg+eBGSrHUNgnFhrDS3cRTVL/3Tf0wZImw3u0j7OHHxq3oMS78uPDEb3T4LN4q+FwzTi4bFO2EjCmKajNNMXNnYcEt7oLzBns5CKjFseist5JKQQ/apxVfeoKvZ6Sf1ewfl23PAnV+yRSvCjfeTI43i4Ff9BlRG0kH6SSWzICJQ+P8wmHQ1CMSN06HrNWN7hKb6OVFSEWRedxTQvBME7OVO9cVR8epUtrNZMiqb1qnEV8FwysS4IUuJqQCjyY/DH0m26fQHnqEKE1l0ouWtn/k2F3rx9tRsav6xUfMjZ0t1nS9p1gh7YYRRiZs8ceEq6yb53e7r35kVi9TEcU9MYEc+Np71eGCs9XnQBHL3p3NZ12bFD+igg/bt4xyjUNUn/R1HCipofU4QvDS7gJ8HPYyPlCzvMJ1BfnHdvN3xC1ZZtW6C5rd8Zo1CC1rsbkcctoiQ6ZaVcgITGez4TfrxayTy+853SKFYRDxVNn8c8jOljVD+X4lUl6pz+eSYoj+724at8n22ub1wtGLczXhjfPToguAUhY+aYg8iv+L/zafDWodmMR2NnqoNW7KaRZe91Zw9O3B6nQZwpEGSvQTHZM5joGvcsVPtexgeGbXAVfpOFYWtUhmd5XW6MMKoPOS+0ez05yezU58tHOflBTxFRBVu+3C2lV6+wBaZCwMOf3vt3nPjF1uiyc+N/7nAK0kzgirwqzfLtZFnsjyOzDYfaRuBk6e9h5TqWOIRgRYbl93waB9hdrMwYM9/eUoiKQoYxnb8Nq3eD0erD3Rqnhr6kb+MDRy246T7IYu5i7raIE8ypDcEbofHi9/8zFdmAOkUL4I03+xdu3gEbOmfm9n7UhdtEGRZFy/irhUMi1yzDeQz5u3vf1WeyIX94ZmMA+ckWeYEnuGojn7cChxB0JWGDsL8EMM7TEfnKa2zvE4XqRuVqE8ME5aG8Owr3y61LPUgdSS1KxevF3tHijza0yxiSkHUB+Ga4dEnrvgZlRMk40IXURoxvJALsMsrFGTLx4T4fmQ+nlk0LerlXYpubftzqCP1ib9z1cb4Ir0C1PogBQlRXOCmDSiiNG73TAVEAp10LO3R3iDI+plhhNdvtU0YcaufRETTLYoJnESf40QoH6B0Qc68nP3id1bEXDUi5vZjXTN8pufPLHCqu5alq3KRQe856wzaI27IfMEoxpSSwx/52tJrdJLpQs0w6kfvlZQLvCJF/1uzpUjT3vYADXB4l/Fn64rU6eDzFGSHTs6RCUtpYppma6pGJbTy2oWICEWJ/uCQt2/iMNS8NM90dZu/Pz1+vSlofKkcIkGxT45A6hSHHiRWolK5XNFaoa0KKQr5p5vxq7M8CyYMoYTh01n+NXfHPvGN9vm2U5bob3BqNfgzvirO0f+ewJ4Ys5Bd9rp7DaxqJgC4SXed8swk6+9RJahD0nKPqnylDurmej001jIMJy92v+/ovE4CFXsM2RZ8XgjVQ+RbNAnB2BTjC2Esq7zPXmlJlHL4vQPiryj6sYv+vcgqvDN1mW92wSRmuShHyHsXntGjHp9gRcVgiLa49bMC4XuBGMkqg0jRtcNnWJFluaxk4qJVrKKtFKWGTwMczrXmt4yw5svjHcOfPTCh8a8q3PbRHEeDW4CGLZ0avV41g7nv8uhDlotLm1KZTUvfUxAAvITwxtPi20G9WP1qFdhbGc/0JhePVjfvXXYI69ioBr9yBp20z41bzC7v2awgWoBDA5M+VMDfEdcc1SX3HVUkovP4aR3Yse325FfBwObz9LhFxTTJWtevykZc1d1ao57owIgTarrsXdNzNJZg6LH7WZtmXODehQURxiAGoQBPj/xyy98hcPrvwIkd92J1q5ZjV2SexUrcAQgT0du3fhV2/REtC7Tf7LRvWJ19cHlXfhV/xBAKCkOOac2uemsG/x1v3O6NHZX/JiqvX9CFdW1Wm18VRdwzr8/Rao8q7LPMe4U9RfUev3XRQY7P3YeZ7wtGl7xvJnEfdCHeR697Mf6GnqxhzYrWGiVWKhmxSw/bx8oayCUpAvy9cCDQJHfKgY2s30OKu62tnveq3s3ZYw5ThExhwo09razO90vWsFaZd7tb5rmc+9t6q7SlZub9mja4L/8vi/PetGXs1UlLQ2mh5hpJvg9j/u8wVr1CWbZ41UbWol4VK2ADy263BITaZRI1Kh8btYCNnb8iLx+oXNpQCX2I752+//wHPl46Lrh+8ul5TeNnydf3nfax/Oa/Fx/MOu9dk1/FQ2JGJbyz1kO+4FcEQRAEQRBEkkTJmqmQSvobNSPd70+/DqBzk5rsuxhq3/yAqPK/T+vImtWtzHbu2mXNn35B6gZFGiGX6peu6dOCtW9Une23Z1Ur9F56t1JWVAcakqgfw+zp5Ru2WqMfMabueZ/u13wF6d7D96vHKu1exmoOEPJU0Ja87vCWlkDvklWbrFpfTADZs3qFYs0B+cY7lxzMBn84p1gdGzI3Gku0tJB2JAcpbKS37HXOphH2Hon/XVL3uGntSqEbzMJyUNOabJJH3W++UGn30uwfnRqyEzo2sGrWL+mxDzu5016sl6bJVEQwWmb2jHtOaMM6Zs7ouJvwUjEqBXHUT6keRPPvOtLqPsYoQ6darziYMaSv77QSgK9E/uJRBK3SCTfq2kNZn4f1C9Xef2JbdvKBDS2ha6Fj+NOd/Vj5CJIZqK+59r8z+VWWR09pz47v0MBau9VUBjl0Dm5ai32roE330jkHWgdMHPIoUWpPAaL8qG1zazxwwyld61RT6cYnV3azHB/7dxzmnb39mNZsQIe9HJvybj1qX3ZB96b8irGzXpjsWo+mg6fP7Mj67FuP3f7xHFancnnPJr2kGXd9T8ei+/O77c0GH92aXxXnvJenuHb8Cz66oitru1d1a63yHcI5/HRgd2tWORpZvrL9+QvvPtKaoKNrdGXStGlQlX18ZbZu2+te2CM62Bdkx98J7PFj561kVw93rtkVfybq5O3vFaSN0IkO7hnQxhq5GDdhyznm3dWP7V56N0uHE8ED/BwrNmxlne/+ip3epZH1+d2YtWytpVIiZrN7AdF3odEZ9rOWFIQ942Q7JE2q3d/vXnowXwWjf5s9+Ko4MCj9bunP9/YvkLPp0aKu9WsSqBiUwOmhUK2DaFa3Cl/pA0X+MCjB1MF92fCLDmJz7zgikkEJKu5efFKEMCi9sO8tb1/i/gxhg7/juP34lTe4vz1a1OFX0fnxjn58xSIZlAD36aMruin9LKOu7cFX0TbhBRnDYf8G1Yp9x4+d2p6v/MEBin/O6bo3q+Yyf1sWhA47nQUGMJok8Gy6MfKaQ1m//euzMpkD8a7j27Cr+jQv+Iw6Ud3SB/Zuzo7JPBuNala0PkOjWhWtw8EOft/LoAQ9W7nvYRjegMYJYVCqIr7nZ//Zib2QcbjwuWD04vPg/u1Tp7L1701D5d4/fHLRZxhRnKPa1OdXWSYN6s1XWU7l+58T7192SMFzhD0eexjWr5zXuYhs2gXd9+YrSGcVfa8Q1buxX0vLyTq2feF+cUPm9+IizP6An6tcmdLWGYXmPfFz1K1S3vp3XgYlwHN4Wc9m/MqbLzXtZfkOspriOUvboASpGpUHNK5pHV5BQar1tM7ZzjknvJ4/dH/abzw8LbzIbjTm3X9R+fdpHfgqPrCJxcHnVx/KV1m6NK3laBAGBZ3uUXESfgZ3D9jf2uCbZw4MP5BSxAap8330m2oThn8e3ISvijPr9sPZGxd0sSKLbsy87XC+8sdtpvZx7RtYndxxsWlb8GcCXeowgG/s14rVreo+3xdpYzfKIMWhCZXzr26Vcuzavi3Y4xnj7evrD+O/m9VuRVYAoONbhdqZPc2N1y84yDp0ooLPBaPXdOz3/q7j9+erojS1GcR456FwMDTjsOEcwHcB40genlCrcjm+Ksro63qwDi6KHpATsktqrfbRrL30sGZW1B7lQ59f3d16p7s30+foRuXV8+M5X9yo5/EuE4XIDlDapGpUAhxeV/dpbq3dDAQZhN3vPaGNFenExhvEYHMaQYeQvR1ENAR1MhuODhCRiEoNl2iPoGGNCnyVG/gJjP+tcDzXzmz2DaoX/7nLZ7xpO6ifdUOInzepVfj8eTktqhzdpj7rqjiHOwqHtaxjjfA8hEvO9N7XOXIlZqVflzFmouBkpISWlpJCEPK1CohQCtzegRfO7sRXziy8pz9fJYOYzw4HV44uICsAw8ZNQkhmjcM4QgBJnLAE+Rq8HJk06dDIOTqLQILgo8u7WWcJ9hEYdI1te4AdPPP4TuCY2X9eu4Eqgz/TblSWC5DZabVHVeudrlohuvOui+YxZMH8+P7WPnxlDjqDDzqwR8NNwIhPc3WfFpZupKon1Lxe9kVGpBMbb1SDDVE3eyoeEY3pg/taESwnEWi7oG2S+IW2VWpJTcJpupEdWRxdpjo3sntkjCoZefqQHHmwI0SJcdgc2rw2O6ptfeugCQsi6eDRU9vHFj22c2jzoj+/X5n0lb2zTlxY+u1XvPxkQEf/sgXUYsnR0irli37HQlctyMZtP+TtBoMdNEj5gWaCpLi2r75o79otxfcoRJOFxmIYVB18oMMBiwOnyU+zhx7BV1na7FWN7VVD/T7BMTulk3sq3I6O6LdbhDQNEF1Pij2rZ/dr0wwmEMLvLYJOo/S7m82KUgJjvjEIkcOz8+OBk9pqSb3KwEBFreViHrGokfFM961flS1aWbw7UK6/8eOu49Xq+vzwexbFZI1yml5EGH0o2I8Lv5pMdIx7IaJj6Cj3w20G7xldGlkd1oJh53dhT57ekV+F45xDsmlq1J7hn7iRI+1hUsh2UCIShJMO2EtpxjFqsUS01I2C2d+KG7dc4+nmeKnUM1/Zq1mBUern8ERFZyq5osO9t9fvhUHluUX3NNB4RmpFfD47fo6qCicrGpVyCQlGQAYFnxcNK3GiGmlOUkhbDETQdZahflkHCHx1auw9wMQPnXfRq9wnLeI/8TQTZzAOB5LqiwMRUVXOPMi9Fi4IFct5H9yN+UFlT9/vFSEljp/xtYyRlRQqhokdUcpQx8GDLlO66Pfo9r3aZ/PmKrJxrjJBCEDiA12cMn73pLR0b1G/ippGHWCyURBUImq9WtV1jWDawX8j0pVwNHQdaHFTuXxxQx0GvBsPn9yOr6Ih9pm+retZv8YJpLbQwR4EBAacSmOiUslnHxbU0uSYiA5oFf6RcfCCgok4fohgS1Kg8QeU3U3PO4j6Zb/yMTdwhkLBAnRvXidypNEv46jKdYdHK2OKC6N2TZV0QWlNX4gqVRw828oZzxHjqVTQWUTrp1tZhR8uqAuafHNvNuWWPtY4zLDAS8bGnBTyIQ5jyen+C8p5RFPQUGLHLXUT9dBpwUsx7JiYsnFju8Pz4VfXKNerwjANGwGS6zP7B8wC2GvW3FCd6243zk89sBHbZptzLKfpo6Db0AnqOJ7QMbjh4QSimagzRJq9ScxNPJu27bQ6h4XjrErLPQr3aTg/SSJHKqOU1Khw5kGN2PkhItQqdcy6o5TCSPMDf69fdkMVt9pjP2B0oztfV4OiLhvmyl56oq+6Mcuo9DASBOXKJvuRL7E1AdhxivA44VXLF5QgaU10ziGCF6VUIO4azZ1So05ZB2OscW33Q0R0WNsPf4HdQcGs4n8e3JhfFSVqKcWw84pHciFuHxdhDRIcODJuxm+pgAmaKJ63/BmCpt7LKEQywkQcj++wZ5EIOGqsdQAd1ncvPYRf6eGgpvE3g/nx27qtfBUPNx7Zyvr1VYf3zYuLD23K9uR7sK6oV9iSlrhrT+GQocEnKCr1xkkiRxS3KJQ3qYBopWqdK7RsAQZVWMMqMk7z5YpSSH44OfJBgVyeqeh5yxIEdY5J4lTP4hU9M42DI3Qf16ikx0N0o1OTorUpm6XmGjD0WPfoguj6hc6fjL0es11m08Sm4ES7vdzTtioGjlMESyXVGpawTspF3Ys6R8+edQC77DDnTdKv6z6qo+2ltxk0IqJU8xviA9udDegYwpAIotHpBGr8oGGo09GMg7Ye74QbcaSZ7ZzRJesU1q6yOzu+/Z7sgm7eETnIawHIn00c1Jtd06c5695CrZs+V9nFbZWGNdOJXEdFlGXc0C/rQAhu4g5FVJBNUVWXEDXJz57VifVqFX95R1DczjMTyDmj0k10V1NEWYlcSm+GDbVD88+rLksHci3gDofQ6AGNa7g2TXh1bcrfkVO0Cl6rkOFxwi5V44b8cuOw01Uz44RsczV3KLIf4iCWjXGgdg7fb48iDUp2nLpm7bhpWNo5wUPEXo5QR0HFCN0/QLOZ03NSn3eihpXOOXL/PSzFiKCp27QIGi0Gbt/CVREaJPaoWt4Ssx9mU1CAsf/oqR3YNT6yWPJ7fVWfFlYzaD4jnMGgmQbgldqtrin97AeM2/cuOyTjNBTdO/pl3h8doO5bNfsGOSpM33IizP0NyqU9mlqaqW5aqyaTO9aRD09F7NiNA4jX5io6a8hUcUtNXGgb46eCkzSMk6H3l4/XGuQewBhZdE9/dqvP9JOoVJDS9WceVDytf55DFCeI/mN5hRITNE548VCEZpAbMgecisaiarNckEjHvLuOtOoEwdFts/WdottTxZiWGZAxrv9z5gFszP8dVmySS1w8cXq0QQt+TkUQwhjinw7sZknMTbq5txVpPNRh0lXakRo0iAWJzgYMwIciSmd7a54B7Oig7SkPv4iTjo1qFBscUSliiZIAAQpVEFDB9C0nouxtKiC1feOR+1q9EVDWuDhjYNrBfhZmL0qKvDEqVdPiT50RzPh08myqeciTHM47IbGZBu1m9kOkdJxwmwrkZzg5AW8RD3PSHOnyEvfx6S7dKk3mUZWDQSefF061mnaE9NBJGQ8bNZtxpr0FXtNTdOH3c6ugGq118voxxk1FY7GBYoNK2EMJEd/7TmhTMKIUUeE2AbvchVGFGuckmt7wmUU9mBfNPES7D5TKUlQI0gF+btcm7OrezdmEG4s7Dojq7rdnNeOjinASvrmpF7/yR3XMrgrIIjkhhkms3LDN+jUM711WvMNeZQhFUHZKB2tPB61hgduIV1WEnJCu/TmK/iucTDegbjA281zZ5c+QzRuUMTDtRB37Gzd5Y1S6pfJkxCQLVZzSYae5zIHFjGzMygUvn3ugdm8CKR0YfE64bVpBf14Ab1FOTSfB/Sdlx9PJ+Hngcqe3KhiR54XQTHRDpNgfzHiutxwVb4RSoFpzKDfmBPEtVPRidRFlnKWKRMjUW/uE7lyFYXxq50YF8ia4fstjtrjMxIzREVUvMigQ7ld5d+VyCDt+TpwTbtFgJwcF2rBX982mo2Xf43yfWslc5SbJMIhC9+ZFU/vYNzFVrl3DrMMTdTiHHIFVbUoNgtzR/Rw/N/OdJauK614LoG7QxEMiDb0cyKKo2jppkTdGZVx1jk6Hnlv3n31DVJE6CQMMviAc3TaYVyPrOyaJmyfp94mCNglgIsZL5xyoJIjtRQKBydDIwvEmFnZHndDh1rlfzzZaVfdEkiD3Mat1mbxzpoIcKRJAGgiHW1DcItNoFLxC6pqtw410vO/ndc1PI1JG9zQauwA3nG5MlRPPmstX4YldFkq8P2I0ZRxTfeSnz6+j/hIpBRwWvxpFlAG4jbnVwfRf1/JVcMJ8r2mQN0ZlUogidvkLhowMtKwAopQNA4z+CoqTJ7rYYfJPGIZfpC7qnhROUwOOax8+BfCvjGffs1X4jUPUHEbRANWFm/Mil164OV1pGsZ+zRZhiTtq/NV1PfjKnQMCOn+62Kwov/LnRmfN2yDjGf3AngiHz97whsyJPUqVI+dkqiy8+0i+yjadNa1Tib19ycEFUfMomQWMIgYo0xh7fbYcQdSF+000i8KGAILuIEqkFxqnAq/0M0B53HNnRY+a4n6KqUB2xIhPGO6idvvynvv4jlvEUIjbjtEzmS9uyKgMiEilwSu0C7jaZ/ke1rJu6JRbWJat2cxX0QhSzJwmcaRkguI0ySdp5BnnAvn5czt44jw4/IhLtw81R26lFDpwU6CwM/xi9TS5TvzmvgvcpiY9dcYBfEXoBAMzwoIoHtQUoCzxycDuVoQekWHok2LSjVz6pFrPDJxKJWryDE6cW0OSCTG7AL5fpgE/s66zG/qfjaX6S1F7vHx9Yd0ramH9xi2efUgTdmIKfQ5hyCmj0jR9yP68OxSoyM/ECQzZqOiMUsTNKVJdq85CeBV+urOfNS8+bdxKBuy/3bmJ++d0S4Oq4iRflATvXOIdUUdEAhGANEBXeliB7LSJUuOqgmqdcljQMPfxFd34lTlE7WBGx/EtDs2YTgbQzf3V1Q6cFC6E7q+qUHhU4tY4lWe1R+mSV+XKXtmSj7sHFJ2i5LRfJ/F5kiSndr5yPgXocY/BkkEBf+8IaVRdQKxYx+zl0QppPd2ElT+RC70fOaWw6UbHxAJQ1WGmMoBkURqNTEGw1/JpGiRSBDHFZU+u4Zg0fsYwmuSuP0KPaHIQIMaetIMD+u2nR8svbrw64PepUylQd/0XXOrG3rwI4ew2IcTbTQfRR9UI5IAOeymNQURzlVMGA4bqv05sE3gOf1jizCo4EbQvIQhQTkCJh2ge7SY1VTk5TSbLA4Uhr36aU126suMkWpxHD7+u1pP6DpI20QXmqurmD00j407o6Fx/c3UfMwf52zm9S6PAkX1MHlJFTL8Ig44ASAilLO3s36C4jNl9JyR7QAqePiv309aQhQuyB9nTmqYiBO8TCvoVsHKjt6wQavqc9HwFpxzYyBqQkARJHzuoSY0D9Fu8ddHB7HUP6T95pOqhGaMzjISXyeSVUYkNqZJP+kb3YWRCbV8akRFd6Ar9b7XViOnSB83VFCZABOIIPomiQXX/prEeLeoEappwOvxVpUxO6tTQGhMZlpM77WXsRlzX1nmea7xxYbC52roJ69SKdx/PcEXDMghCyzZph91NGUFgohpEHPRvU9ww1jErv7qDnBmknpDedvquhZ0gp7+Hnd+FdfIoT8pF8sqoBF6j+0DFcno3nSHHtLa6vdMADzF0+B78h3fUSHT4uQGh8xv7uY/pihNhuLmJt6uyxdb1etbBxafM5As7pdQ+tFHdQBoGWo6Dj/a/t9jrRH3V6k3OncF+fKRYywZHImwUBCLJ95/UzgiDX+60RpcuRM7TxM+YcAINZ332rZt5XvRmDYQYtxf2MoYLQ2p6CgUETJdKukHSVJyMHpOwlygIHVg/3OrHvXCaYuUl1K/yzILPryo+ZaiKS7kUqFetXOLR6rTIO6PyiP28hXt1d7tCi05Hk0wYnjyjo6Uh5vUwA79pQ6jzuPSwolpySXNkG+dpOqoI0dgTOzZwdSx0TzhKA3kObm+P6SmYpTt9yOFKepzwrm/nNVROgv8qhBnJl8vIck5pG7o/3tGP7eEzPlNgn++NRonnz07GMZb3IrvxE0YfU/DYqe2LiYKXZJJqsgmLaHLE51TdNz5wmPbjxSOntHOsfYdxinfFiW3SdDY3xHsGpx2lQGjOu6qP+5z7lvWqssX3ZiWE8p28MyqvPVxvxE1V9y1JIMWC+lG3RpKSCKJf0P16KIb5yva0blpRaYHbPFodqEjl2Om6Ty3Wco+iRgJS0yWFJrXMUksI27l953HegtCqHGNTw3BjIO+K1Q0aI0xvnjOJSz3qKZMkiCxbkAYsDLdAw5IbOlQOnj7zADbxpt6W844SNDfZNpwZtyk0TuULeWdU6saEhgCZwZhJfGI6DQElEXtwO62odFw8ZuuaF9jrU714/cKDislQxT1CDHptJoBi/OM7mD2D1wu7tI+ubunbFLqF5WhuB96JWz6ilJCppKkD64UY1JE2cd0fleEWiC5GAVkjFeMUZ0aUeeG5BhmVPtSq7J86JKLRZ996BYK7cVKpXOnMoRZ8E9u2I3sAQ7op3zjOYcJEFMPQT4cwKqYY9V2b1S6oX2xZz/wuZJk49jV5wtQgl3ngdtBcg5rvNwLMVLfTsGaFWKeXRQV7DuHM3QP2jyWCh45qFRBdFNPRCH2UqDt6ZpdGgWtN+nrUrOUyTqK3afH82Z1iF10Gj5/WgT3/z+AjuERaw8QRlroQr8Xjp7aPpPd66oGN2DUetUVBOCPzvuYCQ4/bjz0SQWIpX5ClQy9WTLGizjKsduD4G3oV1FMTucUZXRrHIluETJ4qs247gq+yNK1dsurC46DEGJWfDuzG7hrQJrC0g9xNuMvEfHhAUCOI+cV+U0nyDXS3hol0obD7xXOSMXzTAELJl/fM1rod274B6968jrUOQ6NaFdlVmnQ80XghdP5MBhIlAzqWnFpSN4ScGyKPE27MzpEu6aBpMIqmaxycncfqGMBtdK0TaFIdwtUxoKSRr3t8kuSUUak6du0KfkDauwFb+3RAq2KCLmVUDs4cgpBxgD7WLf33tUabEe7AD+nVKj8j1uCcrnsX1LaZBJqSnskDUW8TCSPP4gdUBn6+t78VebQrMEBNoH618mxwRNmwXAT3GY0cJjEos+fnMw1qBCvfOa9bU74idJBTFtK5mcNPhfVbd1i/2ief6BKfHXZeZ77KXe49sTC9eeGhTTMemh6DOx9BXRhGv5nI8/8kg4sIx5Bj4hnB57TPojnn20G92fnd6fA2gXzukodTo6p7ScRDzhiV1aVZz168Nmmp9esBjWsUzIfVRfMcLMoHmLHdjjea0EunDurCjm1nZpdvn9b665FMhnQI9YEGGaJkgBrDRiWk+zhK8IhS33owzqjs7SIF8M1NvfjKH3vBeIt6lTNesvr/Nl85uu2epONG5BylbYfEuV3NkBPKF06kOtASQd0q5di4G7I1rlTr6syLZ3didx8fvkGRKCQnIpUYzRZ2Vik8l/rV9Gjnjb6uB18RRLoM7K2nw9p0MDFKoKuERReQEoIAfK5SsxINTyhJTB/c13eMcUml1771WOs9kykDQ9T4hI7FpdzyBeOMylUbt/FVeESaVzdVA6TgCSJOysbQaGEiNSvtbs3UfvL0jlaDmUlAygYC8ARhMj1aZksdathGcxLp8dEVXdk9A/I3KmqcUakjRYvGinMOoY5mGUwjuai7WrMTQZgCGj2Oalufyjc0U7kcOcn5zoiB3Wmcr2FAJSGf97KcSH+jQzkImHZx+7F65tmCWnni4fVvU5/dfFTJmUFKEIQ753Zrwt69tGRp1ZY0kkrpmsCS+47iKyJNjDMqncboQbQ6TSDmSxCmAEHw/Rvk38hIIlkQwTqgcU1+RRC5y5yhRSfjEOlhnFF5/RHmaQJSLQphEl9f35P1dFFJIAiCyFfeuLALXzE28ppCucCwjbyEfowzKts3rM5XBEEQBEEQWexZyxY5qhmd7+RETSVBzBjSl68IgiAIgjAR443KG/q15Kv0wfB5Ih3QMUcQBEH407NlXXajQWenTs7s0oivGBt1bQ/22Cnt+RVhAkZaSUOPLZxLa8I4sTK7lWL3n9SWVaG6jVS5rm/hLHeqoSEIgnCmbtXy7NLDmvGr/OK4DoXC4c3qVi5yTaSPkUZl+bJmfSxM8ji5U0PjJnqUNDo1KexU/cs+i5MgCIIgiNQx0qjcumMXXxGEM7uVkIkyBEEQRCF7VC3PKpWjQQimYqRRuWd1PbO6ifylAT0jBEEQJY6GNSuyOUP78SvCNIw0Kvu2rsdXjFWhUWKERAUa10cQBEEQxmGkUSlAbWWjWhX5FUEQBEEQBGEqhhuVFJEiCIIgCILIBYw2KgnCzt+Z/yMIgiAIwkzIqCRyht1L0+NKEARBEKZCpzSRM9BEI4IgCIIwFzqliZyhZiUa1UgQBEEQpkJGJZEz7FWDlAAIgiAIwlSMNSrbNazGOtvG8hEEQRAEQRDmYqxROey8LuyRU9rzK4IoZOvOv/iKIAiCIAhTMNaorFahLKtUrgy/IohCKtNzQRAEQRDGQTWVRE5xdNv67LTOjfgVQRAEQRCmUOrvDHxNEMaDx7VUqVL8iiAIgiAIM2Ds/wHRJGEoTabJLgAAAABJRU5ErkJggg==;container=0;" parent="NADUIRsd1BDECD5ReKx2-1" vertex="1">
          <mxGeometry x="78.38709677419355" y="186.7961244263132" width="622.0137735615264" height="112.92231895216817" as="geometry" />
        </mxCell>
        <mxCell id="G7gRL9SPklHr558Kcwvp-292" value="" style="rounded=0;whiteSpace=wrap;html=1;container=0;" parent="NADUIRsd1BDECD5ReKx2-1" vertex="1">
          <mxGeometry x="52.25806451612903" y="228.39622641509436" width="661.9354838709678" height="127.35849056603774" as="geometry" />
        </mxCell>
        <mxCell id="G7gRL9SPklHr558Kcwvp-286" value="" style="rounded=0;whiteSpace=wrap;html=1;container=0;" parent="NADUIRsd1BDECD5ReKx2-1" vertex="1">
          <mxGeometry x="104.51612903225806" y="33.9622641509434" width="661.9354838709678" height="127.35849056603774" as="geometry" />
        </mxCell>
        <mxCell id="G7gRL9SPklHr558Kcwvp-293" value="" style="shape=image;verticalLabelPosition=bottom;labelBackgroundColor=#ffffff;verticalAlign=top;aspect=fixed;imageAspect=0;image=data:image/png,iVBORw0KGgoAAAANSUhEUgAAApUAAAB4CAYAAACjFAnSAAAAAXNSR0IArs4c6QAAAARnQU1BAACxjwv8YQUAAAAJcEhZcwAADsMAAA7DAcdvqGQAAAAhdEVYdENyZWF0aW9uIFRpbWUAMjAyMjowNDowMSAwMjowNDoyMOcP6rIAADf6SURBVHhe7Z0HnBVFtsYLAck5iUgQSaJEEVRAJCliRF2za86K6RlQQTGvWVddc8DImhMqIiAggkgUUKKgrEqQnEF89+tbNdNT06G6u7q77p3zfz8f1ejCnb7dVSd+p9TfGRhBEARBEARBRGA3/itB5AQrNmxl6zbv4FcEQRAEQZgCGZVETnHas5PZ1cOn8yuCIAiCIEyBjEoip1i0ciMbv2AVvyIIgiAIwhSMNSrn/LbOMiAIQqZM6VJ8RRAEQRCEKRhrVJ7+3GR2xRuU5iSKUyrzfwRBEARBmIWxRuW6LTvY7+u28CuCYIyECgiCIAjCXKimksgZ5i+ncgiCIAiCMBUyKomcYfvOXXxFEARBEIRpkFFJ5Aybtu/kK4IgCIIgTIOMSiJnoJJKgiAIgjAXMioJgiAIgiCIyBhtVK7dvIPt2kXhKYIgCIIgCNMx0qjcuuMvvmJs/ooNfEUQBEEQBEGYipFG5bvTlvEVY39RpJKQ2JJxOiiCTRAEUfKAXjFpWJuLkUblbqVoYgrhzZI/N/EVQRAEUVKY+/t6dvC9o/kVYRqGGpV8QRAulC9bmq8IgiCIksLm7YXlcYR5GGlU/vC/dXxlBki1nvvSd5SKT5nnxy/mK8bomyAIgiAIszDSqHxt0i98xdgjX87nq/T46++/2Zh5K9n6LTv47xBp8NVPK/iKsQ1b6bsgCIJw4odl69jxT37Dr/KLm9/7ga8Y+2LOH0WuifQx0qi0M+rHQkMibWBcEunw7aI/+SpLaaq7JQiCcGTu7+vYjF/X8qv8YsGKjXzF2MWvTmVvfFcYhCLSx3ijkiDAac9N4iuCIAiCIEzEOKNy+BTyOgjCi19Xb2Y7/trFrwiCIEoGN79fmOp+bdJSviJMwjij8r1p/+Mrc5i2dA1fEUT6dL9/DHtnaqGWK0EQREngjcmFQadbP5jNV4xNXLSKr4i0yYn094sTfuYrNSCOqjOSc8qz+ZF6RRf7tp0kx5APrNqwja8IIhyLV24MvLcShImc/txktmQVaRebQE4YleMXrOQrNV6dtJQdev8YfkUIHv5yPjvuifzsCCQIIhhvfvcLu+OTufyKyEc+mmFe5i8uDntwLF8RaWKcUbldQ4TxyTEL2e/rtvIrQjBlyWr20x80S53IHZB1mPnrWks2ZMV6897prTso8k+Yy8C3ZrCfKYJnFOjKX7ZmM7/KP4wzKmtW3J2vCgn6UixfH09qcMrPq/mKINJl5jKzBgTExR8ZQ/K4J7+xZENm/2bWzzztlzWs1eDP+RVBmMlsPkxk9E/LLSeNSBfoh17xxnR+lX/kRPp7yZ+bLTHXMKC28rMffudX0bj09Wl8RRDpMurH5XyV36wzeODAyhyva/16frCyIiJ3+XPjNnbey9+zT2bpOQvzjYdHzmMfJlgqkK8aosA4o9I+NcXOMU9M4Ct/alcujHaOzvx5ZAwydtO7s6yoDxEMjOYk794McCgS+pi/vFBEmshfYMAccNcoa33lm/kbIYvC46MXsv+MXcSviCjkRKRSsH2nWr3lPzo1tH6F/AAU93Xy+ew/+Cq3eGvKr2zpn9k6jnz2knRzwStT2J2f/MivzOKBL37iK4IIBurOiZLBCyWow3/hig0UBEiZnDIqb3hnJl95I4rn7ULqkNPRwcC3ct/TQ9RScObzk7WVB+QjmPmO+bIm8uSY/PascThs2kaNMHHw9ve/8pVeFiwv3ggIGbMmN33KznnpO/47RJr8b+0Wvso/+jw8jhqTUianjMoJC4vOf3bjpW+WWL/amxk+mvkbX0WjWoWyfJW7oAP8+yWr2UsZD3bCwlVsfOYfwpshH8y2UuH5yIXDvjdyktV/vl7ETvzPRH5FmM7y9VtZ30fGsdcnL2WfzCrcb3f+lX1vxmYctJLGpm072eWGlV9dojl7Zxobtu7kKzWOeHQcXxE6yCmjMgpXD59hectBI5bYFPKRk57+lg01RKMuqXTF8+MXs8dHzedX6sCYHDZpqVXsno98OXc5+2JOtvFnyIezI6VGJ2YclL4Pf82vovHzytyIOCC9eIttfFxJZSffW295f7bV3ZrEKFG8kyanO1dlPt+nhmWCfuDd4PlK2dLqZs2ilRvZPC6zh2BLrjffmUCJMSoFfwXcgEZQajh29h40gq3dvJ1fxcdDI+ezh0ct4FfqLN+QbXDqfM9X1q/5hHwgD/t2KXtlYjbSHwZEvhes0NMA8rbDKEoTDQgY4a/bxseVVMrsVoqvslz6mn+EbmfG8IRRHnaOMxpQZhksr2WwvZs6A9+cHktdeP/Hx/OVP70fKuoAr+B7PRGeEmdUBmUHT92YxPqtO9jGPIugbtpubu1cxd1L81X+cduHc/iqkBWK3rqT8PfuZeLdUp4Zt5iv0uXxjHOybE22Nm31pvgdIt2ofsdBkA0oFdkrzLC/85O5ReY4BwX7oakETcUmhQmlPChJe29aPDI+KhnJQe8V9hYQ+sg7o1K3rl2Z0kW9bxO4eNhUNuApGreYFKImDDwaIn2uE10NZwKk9WVUjWgIf09dWnQgQNw6eJMXq9VVx83Dmefgy7m5qQQBKpQt/I7fdYgIh6Gnwpg8pIPt5LvMWSnzjg+LoR8XdybziWHf+mdb3vwuWrPa7R/NYb8pND3d/emP7JsS1LeQd0al7tqmcjFHXsIwc9latmD5xrzqcotqLGGEH2pm8Y8bO3eFq/HaZpOyejRE+lwnT0j1jl4yW4gkqmx6gq9CCKrLNUgLNaW+cwEh0WUKkzIGt2p5gP0/e268nujvFoWRlQ98Po+v9PJ/b8+kergAoEwlTUSkFOOUVZ/Z/wZQLLj947nWJC63PxvSQ04ofhSLlycuYYfcN5pd+tpU9siX8wsmF8ng/Xpq7MJAe3Euk3dGJYwtL+xRJx189/Nq64FKg36PjmPTf1nje5B/ON07xbBu8w7WK+Vh/FHSX8CezsPh6oSJpQxB+WV1UUPm3WnuUaanv15kbXqiEN0LGKf/Hp01WMM2WHw+O/76Y3yDptRVVi5Xhq+yoEkpTU59dpKyobvaVsOMBgUvZ0wn9r8X/Lmx8DpKxBRpdChaEFk2Gi7FZXdgVXWTb3gnWLp6ZubPdXI00HwL6SEn5HfaDfu7/tnsP9hjXy3w1ANF3S/24pJA3hmV8xx00uxAM00nj2ceJjxQaYAI2oCnJrJLMp6SF1cNn8FXzqA7cXFKUU9Rlxd1ZFzV8oVST6PmlowRhsCrnk/U/N0zwl+8vVrFwvtX3WH+vgqXKDRmgF8zhjHq6MIAWRo0dplQR1eubNHt8/TnJ1vdpGmyK4LBjWiKTsoqlA7ZM0Fj5jlPU/OjXJlsKh+T05LoOA9CWvW2TvXOJvEr35uASoQ7LH0clCg+9pAXVC1XwLsu4+XsutXWYh8zxUnWRV4ZlWm8SCakx03bSIOg6zsrbTvAdN0Pt/rczdvNb5JCKgbRG6DiSH0663crCqhKFHklKCpEnfIxbekavkoPp2qKzSlFiHSkfu+PKTUdN/a6d3upign888Ws4LvuWmg/tvnsq4tXbtIeYAlCUq0K6x2Mubh0mT+Y8ZtVhvX7Ovc09wbJGW57+0htGtqmkFdGpVMna9zsSHizcAIpfR2b1tI/k49WPqVp3upfttR2w5oV+Soa/53iXMMDDT7TGRliChDSRaqc90r4OdxBdOTcUE1Txcnc39fzVSHHPDGBr5Ll6H+ry6iYCpq8gjiZH/CynjU50H2f5CmByFf96hX4lTsol3DrAr/uvzMSGwObdC3sxhg78iE71+vBr12jjyiXk/ltbX41q+WUUfnnJu+Hb3hMo8fcWLxyIxvH07ZpSjRg7Nbon8Kljuz0eCD5uspnQ0rEyHWkhz4whq/04ZYKmbhoFZu6dI3REWIhRA3iGHUIjxy8MzUeSRA//Mo1tmz/i3W5ZxS/SpYnRidfDrN8fbIHc1jk7m8Zt2YHJzDQApxvc3A63DGSvfld/mmG4r6pavkO+XAOG/Sef8Pq9F/WOnbf4915d9r/2H+/16MK4MdVb3mXZ0VFzixFLbXyA+l8dHwDDNywU1rScgVy9DLXySmj0qTSA3gi//q80JO74JUpfJUOc34rHjXJZz5PeR43xgdOWJC+TISbM2P/XUzQcPOcZcHqoKhoEboB4euweBXt42cd9P4PqRlaD46cbzW/5SJLYq6ttksZxQGa8VQMqqRZE3G4w1nPT2YXvzq12Hs8a9naYnvAZwEa5pzewXyTeXphfLRSmzCM5YarnIkTzaK1KwerW0cm0m0PN428Sn8ngfC0UbsjRtuBMfNWFsi73PrBD5a3lyTtGlbjq2i8+m24yRZxYtrLJD6OCcXwbrPod0i1ZW4HhT2imTQ3xzTa8N7PfipIjcaBSpd7uztG8lWylNlNbUuvX608XxUFhkucpPm8pYmX9JcfaGz78Y8NbPLPq60mNUx9gTzNPZ/+yI594ptQUmCCMbYMl4jozfsjG6CIc9stlaCA50ZbpBJZPS/WZJxBr5pIVfB9Q8dSbtQSSjGIWIrpPXglPp/tHSS54s1p7JaICilJQUZlQLxeNNHR+tqkX2KtE9nsYLDWrOTs+QQ1fAZ/aN6D+9u64gbRhzPCFzdDPuXWCAaNaAaoYPCkne1SBEK3lJYOvlkYj5D5mzGPTFTtck8DuSPdDac0HNiksQkNURmI45/+3CT+O9masj9s73NJNTKD0P3+oqU9K9Zvs7qan+Wp1Sj3EHqOAHJMrYd8Ya3vyzhlAAEUGLRxEHRKWbd/hZfjEeoA4IZ3ZvKVM8c/+Q076T/f8qvwQPoNOpYyog4bWZTOd2fH/kL6zU/BZcQPf7CPI5x5SZI3RmVcEiNO3WNu80Htg/oVAwaBeX1ysEhi2Jm6abA8ZNrl20XBjZPXMobHnN+867f85FmEwY5OaNPSnfIYTxOiqjKIGkRpMHNr0Nhg+9l1T+AJcshCdzHpWcKqkkK7uzRLQYYK3flBcfsu8OfNlGZzr92y3eo8xjPpdPDmI6pajKrYAwsoQbn89WkFWbQwEUa75I1dzxcGbRKi3cvWeL9XQh4tKiqOrF80Mwq9963LV8HBvhalZCgp8saoVO0AfPTLYEX0TqlXt9QaNg4hItztX2O0H+T3jviR3fK+cyTxma+dG178xOCdeHjkvIJGjCTBZAIn/OQxZONQ9WAd+KZ3F3cVm/alE7+uzm4+Z73wHbvyrWQ6wtcrjiGVZ+oGyTYl2Y25NYKsiYq+3SnPTgrdUIXU1T+enmjVrQEYQnLUyIvr3p7Jnh6rZ1qNKrdm9gcV58zr3jl1qPpx47vONa67OTx42MPOfWmKY8PEP56JHiVKAjTNBGnOfIIPFtDBYCkNincdWsNiwlqUVDuQjSqn7zAqco3pCU9N5Cv9rEzYsfPCq/McaiNjfbRam93ymW8wJG3yxqhUTYe+rDAT1I7T66T60vp5X0F5xqNTGpuKE7uH0NF8PLMBvhdjTZobmOzhhN9oRHnTQ12MCotWejcl+PWw3M1FxZHSgArAtF/WxK4CIBvMcQgHl1dMoXoRRcvzjOcmFan1ckO1SShIpAWOoOiyRXfxlCVrCsSSw4yg/JZHShFNx/SruPkqc99U5KQwHs8NlQlMMkHuDZQTJmbuh1P9Jh5vjNp9dtyiVBxbVdrf8SXb5+YR/MofJ/mpsEx3iXqKprsaLqVQXohyCKfJSnE07siRcvtENJmo0X4x41tXl3WU4Rqoi3Xjhoxjdk7G2bK/vygVaTqo6Hfy4BfzHINdppA3RuXDKY1K9MJtFFQukMYz61QrCoIO4/+Pg/ala5e0xw/6p2L0WwBvu/Pd8crYyIXfTs/9oQ7RNNUGDrB1h7fThHvmZZSArh4jyfwiyd9kDI5zX/ZXU4B0igp38LoxFVoN/twyGMCP3BBYwA0mtzpEL/Bn4KA+LWMoi/q1uBkcUa9XZ2AqjNTZ65N/YfeM+MnS/IOBiallMr8YNnfdjxiCfcVwG9aggpcME+oMk+LFCT8XqbkFusbrwpFRBSVNbnX3T2qePCVzUcbZaj90pBWouO+zHzP7Jf8XHDQFm1yLnHNGpdtc5yTZlHBndxTCFt5DLinuUXhymrVOlXJ8VQhqSN2MO696Obn0wC0F+raHFpvKhBG57AKfNc7pGXLXpFPUXJ4PDuRoLkop3NKcfpFKlU3eK1qsc0NUKTFZFdA5kMFoSBC1PnlDhEM/ScJEv90kc96PmPGAgQnHSTiFeN9gpD8yyjuI8NSYogf/EY+O017XGIQknHThOGK2dRCwN2J+ddqgieaOT+ay96YX3ZNF41BUUJep6hfOXLbWqruHoS4HJKLKsKmwNvP3YhoTpvTkGjlnVKrWTurCqb5Md62kKmGe5XHzw2spbo3ZeJbTbE5RQ7epNmA4/3cikuTGa5OWuJYiRDWcncbCqdZ0hgGpwzDI4vAopXhnqvO9LeVY9KEPr0Mi6Lulos/qV5PrBGZ42w8TXEPVIQoQbL9o2Pehv0M3dIvwQxQ7KDqmJHkh6p9x2AI/Y/X+L7IOIcSnYYRir5m/PHha34mwqce4xyKKUqegGRad9Z5REGLrsjMfJd1sB8L6qnvbeS9nBfXbDR3JXjGwmexr7uiaiFFGpcpL5zaYPS5QX+iE6uH3paYXAvg1jthBynj0T8uNmE3uhn1mL5Cjboj4yZ2jTlQtX3xknz1NfOsHcwrqamSijsg66N6sLISdOOockyTo4ReljlSe9iN3rfuh4mhVr6j+3ghGzPq9yDPU+6Gv+SoaIzP7AYTzdaLr0A2DiIrFLWqOemXQ88FgU7/syhBBy2jcCPu8C8m5uIDua5jO/Shp87AESWmH6QtwAo7IXyEcgoUZhxIp+f6P6RmFWlbD4PMLMs6pqRhlcah830nUpvgB+RjVl/dCjV9+LZ8CbFGLAjHcM56fbHlbUe4XIoDQmUsKWb5J1lqUERuE0wYlfz9uRdqQN9HNLr2Bo9jYsmOXo99evaL3cyY34cAIDSsYLB9o4uBVfWxVImSqEiHi58LfPWL271o2/yQIWo5zmY8mniqoa9zvti+sMoqlMekZClDDi+adoNizGFG0be2omiWygxQ10u0HmqXCTLjy22eBriivQDQ5+gEJHV1Gr5vgvx9vTP6FPTRynrZmqwg+eBGSrHUNgnFhrDS3cRTVL/3Tf0wZImw3u0j7OHHxq3oMS78uPDEb3T4LN4q+FwzTi4bFO2EjCmKajNNMXNnYcEt7oLzBns5CKjFseist5JKQQ/apxVfeoKvZ6Sf1ewfl23PAnV+yRSvCjfeTI43i4Ff9BlRG0kH6SSWzICJQ+P8wmHQ1CMSN06HrNWN7hKb6OVFSEWRedxTQvBME7OVO9cVR8epUtrNZMiqb1qnEV8FwysS4IUuJqQCjyY/DH0m26fQHnqEKE1l0ouWtn/k2F3rx9tRsav6xUfMjZ0t1nS9p1gh7YYRRiZs8ceEq6yb53e7r35kVi9TEcU9MYEc+Np71eGCs9XnQBHL3p3NZ12bFD+igg/bt4xyjUNUn/R1HCipofU4QvDS7gJ8HPYyPlCzvMJ1BfnHdvN3xC1ZZtW6C5rd8Zo1CC1rsbkcctoiQ6ZaVcgITGez4TfrxayTy+853SKFYRDxVNn8c8jOljVD+X4lUl6pz+eSYoj+724at8n22ub1wtGLczXhjfPToguAUhY+aYg8iv+L/zafDWodmMR2NnqoNW7KaRZe91Zw9O3B6nQZwpEGSvQTHZM5joGvcsVPtexgeGbXAVfpOFYWtUhmd5XW6MMKoPOS+0ez05yezU58tHOflBTxFRBVu+3C2lV6+wBaZCwMOf3vt3nPjF1uiyc+N/7nAK0kzgirwqzfLtZFnsjyOzDYfaRuBk6e9h5TqWOIRgRYbl93waB9hdrMwYM9/eUoiKQoYxnb8Nq3eD0erD3Rqnhr6kb+MDRy246T7IYu5i7raIE8ypDcEbofHi9/8zFdmAOkUL4I03+xdu3gEbOmfm9n7UhdtEGRZFy/irhUMi1yzDeQz5u3vf1WeyIX94ZmMA+ckWeYEnuGojn7cChxB0JWGDsL8EMM7TEfnKa2zvE4XqRuVqE8ME5aG8Owr3y61LPUgdSS1KxevF3tHijza0yxiSkHUB+Ga4dEnrvgZlRMk40IXURoxvJALsMsrFGTLx4T4fmQ+nlk0LerlXYpubftzqCP1ib9z1cb4Ir0C1PogBQlRXOCmDSiiNG73TAVEAp10LO3R3iDI+plhhNdvtU0YcaufRETTLYoJnESf40QoH6B0Qc68nP3id1bEXDUi5vZjXTN8pufPLHCqu5alq3KRQe856wzaI27IfMEoxpSSwx/52tJrdJLpQs0w6kfvlZQLvCJF/1uzpUjT3vYADXB4l/Fn64rU6eDzFGSHTs6RCUtpYppma6pGJbTy2oWICEWJ/uCQt2/iMNS8NM90dZu/Pz1+vSlofKkcIkGxT45A6hSHHiRWolK5XNFaoa0KKQr5p5vxq7M8CyYMoYTh01n+NXfHPvGN9vm2U5bob3BqNfgzvirO0f+ewJ4Ys5Bd9rp7DaxqJgC4SXed8swk6+9RJahD0nKPqnylDurmej001jIMJy92v+/ovE4CFXsM2RZ8XgjVQ+RbNAnB2BTjC2Esq7zPXmlJlHL4vQPiryj6sYv+vcgqvDN1mW92wSRmuShHyHsXntGjHp9gRcVgiLa49bMC4XuBGMkqg0jRtcNnWJFluaxk4qJVrKKtFKWGTwMczrXmt4yw5svjHcOfPTCh8a8q3PbRHEeDW4CGLZ0avV41g7nv8uhDlotLm1KZTUvfUxAAvITwxtPi20G9WP1qFdhbGc/0JhePVjfvXXYI69ioBr9yBp20z41bzC7v2awgWoBDA5M+VMDfEdcc1SX3HVUkovP4aR3Yse325FfBwObz9LhFxTTJWtevykZc1d1ao57owIgTarrsXdNzNJZg6LH7WZtmXODehQURxiAGoQBPj/xyy98hcPrvwIkd92J1q5ZjV2SexUrcAQgT0du3fhV2/REtC7Tf7LRvWJ19cHlXfhV/xBAKCkOOac2uemsG/x1v3O6NHZX/JiqvX9CFdW1Wm18VRdwzr8/Rao8q7LPMe4U9RfUev3XRQY7P3YeZ7wtGl7xvJnEfdCHeR697Mf6GnqxhzYrWGiVWKhmxSw/bx8oayCUpAvy9cCDQJHfKgY2s30OKu62tnveq3s3ZYw5ThExhwo09razO90vWsFaZd7tb5rmc+9t6q7SlZub9mja4L/8vi/PetGXs1UlLQ2mh5hpJvg9j/u8wVr1CWbZ41UbWol4VK2ADy263BITaZRI1Kh8btYCNnb8iLx+oXNpQCX2I752+//wHPl46Lrh+8ul5TeNnydf3nfax/Oa/Fx/MOu9dk1/FQ2JGJbyz1kO+4FcEQRAEQRBEkkTJmqmQSvobNSPd70+/DqBzk5rsuxhq3/yAqPK/T+vImtWtzHbu2mXNn35B6gZFGiGX6peu6dOCtW9Une23Z1Ur9F56t1JWVAcakqgfw+zp5Ru2WqMfMabueZ/u13wF6d7D96vHKu1exmoOEPJU0Ja87vCWlkDvklWbrFpfTADZs3qFYs0B+cY7lxzMBn84p1gdGzI3Gku0tJB2JAcpbKS37HXOphH2Hon/XVL3uGntSqEbzMJyUNOabJJH3W++UGn30uwfnRqyEzo2sGrWL+mxDzu5016sl6bJVEQwWmb2jHtOaMM6Zs7ouJvwUjEqBXHUT6keRPPvOtLqPsYoQ6darziYMaSv77QSgK9E/uJRBK3SCTfq2kNZn4f1C9Xef2JbdvKBDS2ha6Fj+NOd/Vj5CJIZqK+59r8z+VWWR09pz47v0MBau9VUBjl0Dm5ai32roE330jkHWgdMHPIoUWpPAaL8qG1zazxwwyld61RT6cYnV3azHB/7dxzmnb39mNZsQIe9HJvybj1qX3ZB96b8irGzXpjsWo+mg6fP7Mj67FuP3f7xHFancnnPJr2kGXd9T8ei+/O77c0GH92aXxXnvJenuHb8Cz66oitru1d1a63yHcI5/HRgd2tWORpZvrL9+QvvPtKaoKNrdGXStGlQlX18ZbZu2+te2CM62Bdkx98J7PFj561kVw93rtkVfybq5O3vFaSN0IkO7hnQxhq5GDdhyznm3dWP7V56N0uHE8ED/BwrNmxlne/+ip3epZH1+d2YtWytpVIiZrN7AdF3odEZ9rOWFIQ942Q7JE2q3d/vXnowXwWjf5s9+Ko4MCj9bunP9/YvkLPp0aKu9WsSqBiUwOmhUK2DaFa3Cl/pA0X+MCjB1MF92fCLDmJz7zgikkEJKu5efFKEMCi9sO8tb1/i/gxhg7/juP34lTe4vz1a1OFX0fnxjn58xSIZlAD36aMruin9LKOu7cFX0TbhBRnDYf8G1Yp9x4+d2p6v/MEBin/O6bo3q+Yyf1sWhA47nQUGMJok8Gy6MfKaQ1m//euzMpkD8a7j27Cr+jQv+Iw6Ud3SB/Zuzo7JPBuNala0PkOjWhWtw8EOft/LoAQ9W7nvYRjegMYJYVCqIr7nZ//Zib2QcbjwuWD04vPg/u1Tp7L1701D5d4/fHLRZxhRnKPa1OdXWSYN6s1XWU7l+58T7192SMFzhD0eexjWr5zXuYhs2gXd9+YrSGcVfa8Q1buxX0vLyTq2feF+cUPm9+IizP6An6tcmdLWGYXmPfFz1K1S3vp3XgYlwHN4Wc9m/MqbLzXtZfkOspriOUvboASpGpUHNK5pHV5BQar1tM7ZzjknvJ4/dH/abzw8LbzIbjTm3X9R+fdpHfgqPrCJxcHnVx/KV1m6NK3laBAGBZ3uUXESfgZ3D9jf2uCbZw4MP5BSxAap8330m2oThn8e3ISvijPr9sPZGxd0sSKLbsy87XC+8sdtpvZx7RtYndxxsWlb8GcCXeowgG/s14rVreo+3xdpYzfKIMWhCZXzr26Vcuzavi3Y4xnj7evrD+O/m9VuRVYAoONbhdqZPc2N1y84yDp0ooLPBaPXdOz3/q7j9+erojS1GcR456FwMDTjsOEcwHcB40genlCrcjm+Ksro63qwDi6KHpATsktqrfbRrL30sGZW1B7lQ59f3d16p7s30+foRuXV8+M5X9yo5/EuE4XIDlDapGpUAhxeV/dpbq3dDAQZhN3vPaGNFenExhvEYHMaQYeQvR1ENAR1MhuODhCRiEoNl2iPoGGNCnyVG/gJjP+tcDzXzmz2DaoX/7nLZ7xpO6ifdUOInzepVfj8eTktqhzdpj7rqjiHOwqHtaxjjfA8hEvO9N7XOXIlZqVflzFmouBkpISWlpJCEPK1CohQCtzegRfO7sRXziy8pz9fJYOYzw4HV44uICsAw8ZNQkhmjcM4QgBJnLAE+Rq8HJk06dDIOTqLQILgo8u7WWcJ9hEYdI1te4AdPPP4TuCY2X9eu4Eqgz/TblSWC5DZabVHVeudrlohuvOui+YxZMH8+P7WPnxlDjqDDzqwR8NNwIhPc3WfFpZupKon1Lxe9kVGpBMbb1SDDVE3eyoeEY3pg/taESwnEWi7oG2S+IW2VWpJTcJpupEdWRxdpjo3sntkjCoZefqQHHmwI0SJcdgc2rw2O6ptfeugCQsi6eDRU9vHFj22c2jzoj+/X5n0lb2zTlxY+u1XvPxkQEf/sgXUYsnR0irli37HQlctyMZtP+TtBoMdNEj5gWaCpLi2r75o79otxfcoRJOFxmIYVB18oMMBiwOnyU+zhx7BV1na7FWN7VVD/T7BMTulk3sq3I6O6LdbhDQNEF1Pij2rZ/dr0wwmEMLvLYJOo/S7m82KUgJjvjEIkcOz8+OBk9pqSb3KwEBFreViHrGokfFM961flS1aWbw7UK6/8eOu49Xq+vzwexbFZI1yml5EGH0o2I8Lv5pMdIx7IaJj6Cj3w20G7xldGlkd1oJh53dhT57ekV+F45xDsmlq1J7hn7iRI+1hUsh2UCIShJMO2EtpxjFqsUS01I2C2d+KG7dc4+nmeKnUM1/Zq1mBUern8ERFZyq5osO9t9fvhUHluUX3NNB4RmpFfD47fo6qCicrGpVyCQlGQAYFnxcNK3GiGmlOUkhbDETQdZahflkHCHx1auw9wMQPnXfRq9wnLeI/8TQTZzAOB5LqiwMRUVXOPMi9Fi4IFct5H9yN+UFlT9/vFSEljp/xtYyRlRQqhokdUcpQx8GDLlO66Pfo9r3aZ/PmKrJxrjJBCEDiA12cMn73pLR0b1G/ippGHWCyURBUImq9WtV1jWDawX8j0pVwNHQdaHFTuXxxQx0GvBsPn9yOr6Ih9pm+retZv8YJpLbQwR4EBAacSmOiUslnHxbU0uSYiA5oFf6RcfCCgok4fohgS1Kg8QeU3U3PO4j6Zb/yMTdwhkLBAnRvXidypNEv46jKdYdHK2OKC6N2TZV0QWlNX4gqVRw828oZzxHjqVTQWUTrp1tZhR8uqAuafHNvNuWWPtY4zLDAS8bGnBTyIQ5jyen+C8p5RFPQUGLHLXUT9dBpwUsx7JiYsnFju8Pz4VfXKNerwjANGwGS6zP7B8wC2GvW3FCd6243zk89sBHbZptzLKfpo6Db0AnqOJ7QMbjh4QSimagzRJq9ScxNPJu27bQ6h4XjrErLPQr3aTg/SSJHKqOU1Khw5kGN2PkhItQqdcy6o5TCSPMDf69fdkMVt9pjP2B0oztfV4OiLhvmyl56oq+6Mcuo9DASBOXKJvuRL7E1AdhxivA44VXLF5QgaU10ziGCF6VUIO4azZ1So05ZB2OscW33Q0R0WNsPf4HdQcGs4n8e3JhfFSVqKcWw84pHciFuHxdhDRIcODJuxm+pgAmaKJ63/BmCpt7LKEQywkQcj++wZ5EIOGqsdQAd1ncvPYRf6eGgpvE3g/nx27qtfBUPNx7Zyvr1VYf3zYuLD23K9uR7sK6oV9iSlrhrT+GQocEnKCr1xkkiRxS3KJQ3qYBopWqdK7RsAQZVWMMqMk7z5YpSSH44OfJBgVyeqeh5yxIEdY5J4lTP4hU9M42DI3Qf16ikx0N0o1OTorUpm6XmGjD0WPfoguj6hc6fjL0es11m08Sm4ES7vdzTtioGjlMESyXVGpawTspF3Ys6R8+edQC77DDnTdKv6z6qo+2ltxk0IqJU8xviA9udDegYwpAIotHpBGr8oGGo09GMg7Ye74QbcaSZ7ZzRJesU1q6yOzu+/Z7sgm7eETnIawHIn00c1Jtd06c5695CrZs+V9nFbZWGNdOJXEdFlGXc0C/rQAhu4g5FVJBNUVWXEDXJz57VifVqFX95R1DczjMTyDmj0k10V1NEWYlcSm+GDbVD88+rLksHci3gDofQ6AGNa7g2TXh1bcrfkVO0Cl6rkOFxwi5V44b8cuOw01Uz44RsczV3KLIf4iCWjXGgdg7fb48iDUp2nLpm7bhpWNo5wUPEXo5QR0HFCN0/QLOZ03NSn3eihpXOOXL/PSzFiKCp27QIGi0Gbt/CVREaJPaoWt4Ssx9mU1CAsf/oqR3YNT6yWPJ7fVWfFlYzaD4jnMGgmQbgldqtrin97AeM2/cuOyTjNBTdO/pl3h8doO5bNfsGOSpM33IizP0NyqU9mlqaqW5aqyaTO9aRD09F7NiNA4jX5io6a8hUcUtNXGgb46eCkzSMk6H3l4/XGuQewBhZdE9/dqvP9JOoVJDS9WceVDytf55DFCeI/mN5hRITNE548VCEZpAbMgecisaiarNckEjHvLuOtOoEwdFts/WdottTxZiWGZAxrv9z5gFszP8dVmySS1w8cXq0QQt+TkUQwhjinw7sZknMTbq5txVpPNRh0lXakRo0iAWJzgYMwIciSmd7a54B7Oig7SkPv4iTjo1qFBscUSliiZIAAQpVEFDB9C0nouxtKiC1feOR+1q9EVDWuDhjYNrBfhZmL0qKvDEqVdPiT50RzPh08myqeciTHM47IbGZBu1m9kOkdJxwmwrkZzg5AW8RD3PSHOnyEvfx6S7dKk3mUZWDQSefF061mnaE9NBJGQ8bNZtxpr0FXtNTdOH3c6ugGq118voxxk1FY7GBYoNK2EMJEd/7TmhTMKIUUeE2AbvchVGFGuckmt7wmUU9mBfNPES7D5TKUlQI0gF+btcm7OrezdmEG4s7Dojq7rdnNeOjinASvrmpF7/yR3XMrgrIIjkhhkms3LDN+jUM711WvMNeZQhFUHZKB2tPB61hgduIV1WEnJCu/TmK/iucTDegbjA281zZ5c+QzRuUMTDtRB37Gzd5Y1S6pfJkxCQLVZzSYae5zIHFjGzMygUvn3ugdm8CKR0YfE64bVpBf14Ab1FOTSfB/Sdlx9PJ+Hngcqe3KhiR54XQTHRDpNgfzHiutxwVb4RSoFpzKDfmBPEtVPRidRFlnKWKRMjUW/uE7lyFYXxq50YF8ia4fstjtrjMxIzREVUvMigQ7ld5d+VyCDt+TpwTbtFgJwcF2rBX982mo2Xf43yfWslc5SbJMIhC9+ZFU/vYNzFVrl3DrMMTdTiHHIFVbUoNgtzR/Rw/N/OdJauK614LoG7QxEMiDb0cyKKo2jppkTdGZVx1jk6Hnlv3n31DVJE6CQMMviAc3TaYVyPrOyaJmyfp94mCNglgIsZL5xyoJIjtRQKBydDIwvEmFnZHndDh1rlfzzZaVfdEkiD3Mat1mbxzpoIcKRJAGgiHW1DcItNoFLxC6pqtw410vO/ndc1PI1JG9zQauwA3nG5MlRPPmstX4YldFkq8P2I0ZRxTfeSnz6+j/hIpBRwWvxpFlAG4jbnVwfRf1/JVcMJ8r2mQN0ZlUogidvkLhowMtKwAopQNA4z+CoqTJ7rYYfJPGIZfpC7qnhROUwOOax8+BfCvjGffs1X4jUPUHEbRANWFm/Mil164OV1pGsZ+zRZhiTtq/NV1PfjKnQMCOn+62Kwov/LnRmfN2yDjGf3AngiHz97whsyJPUqVI+dkqiy8+0i+yjadNa1Tib19ycEFUfMomQWMIgYo0xh7fbYcQdSF+000i8KGAILuIEqkFxqnAq/0M0B53HNnRY+a4n6KqUB2xIhPGO6idvvynvv4jlvEUIjbjtEzmS9uyKgMiEilwSu0C7jaZ/ke1rJu6JRbWJat2cxX0QhSzJwmcaRkguI0ySdp5BnnAvn5czt44jw4/IhLtw81R26lFDpwU6CwM/xi9TS5TvzmvgvcpiY9dcYBfEXoBAMzwoIoHtQUoCzxycDuVoQekWHok2LSjVz6pFrPDJxKJWryDE6cW0OSCTG7AL5fpgE/s66zG/qfjaX6S1F7vHx9Yd0ramH9xi2efUgTdmIKfQ5hyCmj0jR9yP68OxSoyM/ECQzZqOiMUsTNKVJdq85CeBV+urOfNS8+bdxKBuy/3bmJ++d0S4Oq4iRflATvXOIdUUdEAhGANEBXeliB7LSJUuOqgmqdcljQMPfxFd34lTlE7WBGx/EtDs2YTgbQzf3V1Q6cFC6E7q+qUHhU4tY4lWe1R+mSV+XKXtmSj7sHFJ2i5LRfJ/F5kiSndr5yPgXocY/BkkEBf+8IaVRdQKxYx+zl0QppPd2ElT+RC70fOaWw6UbHxAJQ1WGmMoBkURqNTEGw1/JpGiRSBDHFZU+u4Zg0fsYwmuSuP0KPaHIQIMaetIMD+u2nR8svbrw64PepUylQd/0XXOrG3rwI4ew2IcTbTQfRR9UI5IAOeymNQURzlVMGA4bqv05sE3gOf1jizCo4EbQvIQhQTkCJh2ge7SY1VTk5TSbLA4Uhr36aU126suMkWpxHD7+u1pP6DpI20QXmqurmD00j407o6Fx/c3UfMwf52zm9S6PAkX1MHlJFTL8Ig44ASAilLO3s36C4jNl9JyR7QAqePiv309aQhQuyB9nTmqYiBO8TCvoVsHKjt6wQavqc9HwFpxzYyBqQkARJHzuoSY0D9Fu8ddHB7HUP6T95pOqhGaMzjISXyeSVUYkNqZJP+kb3YWRCbV8akRFd6Ar9b7XViOnSB83VFCZABOIIPomiQXX/prEeLeoEappwOvxVpUxO6tTQGhMZlpM77WXsRlzX1nmea7xxYbC52roJ69SKdx/PcEXDMghCyzZph91NGUFgohpEHPRvU9ww1jErv7qDnBmknpDedvquhZ0gp7+Hnd+FdfIoT8pF8sqoBF6j+0DFcno3nSHHtLa6vdMADzF0+B78h3fUSHT4uQGh8xv7uY/pihNhuLmJt6uyxdb1etbBxafM5As7pdQ+tFHdQBoGWo6Dj/a/t9jrRH3V6k3OncF+fKRYywZHImwUBCLJ95/UzgiDX+60RpcuRM7TxM+YcAINZ332rZt5XvRmDYQYtxf2MoYLQ2p6CgUETJdKukHSVJyMHpOwlygIHVg/3OrHvXCaYuUl1K/yzILPryo+ZaiKS7kUqFetXOLR6rTIO6PyiP28hXt1d7tCi05Hk0wYnjyjo6Uh5vUwA79pQ6jzuPSwolpySXNkG+dpOqoI0dgTOzZwdSx0TzhKA3kObm+P6SmYpTt9yOFKepzwrm/nNVROgv8qhBnJl8vIck5pG7o/3tGP7eEzPlNgn++NRonnz07GMZb3IrvxE0YfU/DYqe2LiYKXZJJqsgmLaHLE51TdNz5wmPbjxSOntHOsfYdxinfFiW3SdDY3xHsGpx2lQGjOu6qP+5z7lvWqssX3ZiWE8p28MyqvPVxvxE1V9y1JIMWC+lG3RpKSCKJf0P16KIb5yva0blpRaYHbPFodqEjl2Om6Ty3Wco+iRgJS0yWFJrXMUksI27l953HegtCqHGNTw3BjIO+K1Q0aI0xvnjOJSz3qKZMkiCxbkAYsDLdAw5IbOlQOnj7zADbxpt6W844SNDfZNpwZtyk0TuULeWdU6saEhgCZwZhJfGI6DQElEXtwO62odFw8ZuuaF9jrU714/cKDislQxT1CDHptJoBi/OM7mD2D1wu7tI+ubunbFLqF5WhuB96JWz6ilJCppKkD64UY1JE2cd0fleEWiC5GAVkjFeMUZ0aUeeG5BhmVPtSq7J86JKLRZ996BYK7cVKpXOnMoRZ8E9u2I3sAQ7op3zjOYcJEFMPQT4cwKqYY9V2b1S6oX2xZz/wuZJk49jV5wtQgl3ngdtBcg5rvNwLMVLfTsGaFWKeXRQV7DuHM3QP2jyWCh45qFRBdFNPRCH2UqDt6ZpdGgWtN+nrUrOUyTqK3afH82Z1iF10Gj5/WgT3/z+AjuERaw8QRlroQr8Xjp7aPpPd66oGN2DUetUVBOCPzvuYCQ4/bjz0SQWIpX5ClQy9WTLGizjKsduD4G3oV1FMTucUZXRrHIluETJ4qs247gq+yNK1dsurC46DEGJWfDuzG7hrQJrC0g9xNuMvEfHhAUCOI+cV+U0nyDXS3hol0obD7xXOSMXzTAELJl/fM1rod274B6968jrUOQ6NaFdlVmnQ80XghdP5MBhIlAzqWnFpSN4ScGyKPE27MzpEu6aBpMIqmaxycncfqGMBtdK0TaFIdwtUxoKSRr3t8kuSUUak6du0KfkDauwFb+3RAq2KCLmVUDs4cgpBxgD7WLf33tUabEe7AD+nVKj8j1uCcrnsX1LaZBJqSnskDUW8TCSPP4gdUBn6+t78VebQrMEBNoH618mxwRNmwXAT3GY0cJjEos+fnMw1qBCvfOa9bU74idJBTFtK5mcNPhfVbd1i/2ief6BKfHXZeZ77KXe49sTC9eeGhTTMemh6DOx9BXRhGv5nI8/8kg4sIx5Bj4hnB57TPojnn20G92fnd6fA2gXzukodTo6p7ScRDzhiV1aVZz168Nmmp9esBjWsUzIfVRfMcLMoHmLHdjjea0EunDurCjm1nZpdvn9b665FMhnQI9YEGGaJkgBrDRiWk+zhK8IhS33owzqjs7SIF8M1NvfjKH3vBeIt6lTNesvr/Nl85uu2epONG5BylbYfEuV3NkBPKF06kOtASQd0q5di4G7I1rlTr6syLZ3didx8fvkGRKCQnIpUYzRZ2Vik8l/rV9Gjnjb6uB18RRLoM7K2nw9p0MDFKoKuERReQEoIAfK5SsxINTyhJTB/c13eMcUml1771WOs9kykDQ9T4hI7FpdzyBeOMylUbt/FVeESaVzdVA6TgCSJOysbQaGEiNSvtbs3UfvL0jlaDmUlAygYC8ARhMj1aZksdathGcxLp8dEVXdk9A/I3KmqcUakjRYvGinMOoY5mGUwjuai7WrMTQZgCGj2Oalufyjc0U7kcOcn5zoiB3Wmcr2FAJSGf97KcSH+jQzkImHZx+7F65tmCWnni4fVvU5/dfFTJmUFKEIQ753Zrwt69tGRp1ZY0kkrpmsCS+47iKyJNjDMqncboQbQ6TSDmSxCmAEHw/Rvk38hIIlkQwTqgcU1+RRC5y5yhRSfjEOlhnFF5/RHmaQJSLQphEl9f35P1dFFJIAiCyFfeuLALXzE28ppCucCwjbyEfowzKts3rM5XBEEQBEEQWexZyxY5qhmd7+RETSVBzBjSl68IgiAIgjAR443KG/q15Kv0wfB5Ih3QMUcQBEH407NlXXajQWenTs7s0oivGBt1bQ/22Cnt+RVhAkZaSUOPLZxLa8I4sTK7lWL3n9SWVaG6jVS5rm/hLHeqoSEIgnCmbtXy7NLDmvGr/OK4DoXC4c3qVi5yTaSPkUZl+bJmfSxM8ji5U0PjJnqUNDo1KexU/cs+i5MgCIIgiNQx0qjcumMXXxGEM7uVkIkyBEEQRCF7VC3PKpWjQQimYqRRuWd1PbO6ifylAT0jBEEQJY6GNSuyOUP78SvCNIw0Kvu2rsdXjFWhUWKERAUa10cQBEEQxmGkUSlAbWWjWhX5FUEQBEEQBGEqhhuVFJEiCIIgCILIBYw2KgnCzt+Z/yMIgiAIwkzIqCRyht1L0+NKEARBEKZCpzSRM9BEI4IgCIIwFzqliZyhZiUa1UgQBEEQpkJGJZEz7FWDlAAIgiAIwlSMNSrbNazGOtvG8hEEQRAEQRDmYqxROey8LuyRU9rzK4IoZOvOv/iKIAiCIAhTMNaorFahLKtUrgy/IohCKtNzQRAEQRDGQTWVRE5xdNv67LTOjfgVQRAEQRCmUOrvDHxNEMaDx7VUqVL8iiAIgiAIM2Ds/wHRJGEoTabJLgAAAABJRU5ErkJggg==;container=0;" parent="NADUIRsd1BDECD5ReKx2-1" vertex="1">
          <mxGeometry x="60.967741935483865" y="236.8904640489547" width="622.0137735615264" height="112.92231895216817" as="geometry" />
        </mxCell>
        <mxCell id="G7gRL9SPklHr558Kcwvp-294" value="" style="rounded=0;whiteSpace=wrap;html=1;container=0;" parent="NADUIRsd1BDECD5ReKx2-1" vertex="1">
          <mxGeometry x="34.83870967741936" y="280.188679245283" width="661.9354838709678" height="127.35849056603774" as="geometry" />
        </mxCell>
        <mxCell id="G7gRL9SPklHr558Kcwvp-289" value="" style="shape=image;verticalLabelPosition=bottom;labelBackgroundColor=#ffffff;verticalAlign=top;aspect=fixed;imageAspect=0;image=data:image/png,iVBORw0KGgoAAAANSUhEUgAAApUAAAB4CAYAAACjFAnSAAAAAXNSR0IArs4c6QAAAARnQU1BAACxjwv8YQUAAAAJcEhZcwAADsMAAA7DAcdvqGQAAAAhdEVYdENyZWF0aW9uIFRpbWUAMjAyMjowNDowMSAwMjowNDoyMOcP6rIAADf6SURBVHhe7Z0HnBVFtsYLAck5iUgQSaJEEVRAJCliRF2za86K6RlQQTGvWVddc8DImhMqIiAggkgUUKKgrEqQnEF89+tbNdNT06G6u7q77p3zfz8f1ejCnb7dVSd+p9TfGRhBEARBEARBRGA3/itB5AQrNmxl6zbv4FcEQRAEQZgCGZVETnHas5PZ1cOn8yuCIAiCIEyBjEoip1i0ciMbv2AVvyIIgiAIwhSMNSrn/LbOMiAIQqZM6VJ8RRAEQRCEKRhrVJ7+3GR2xRuU5iSKUyrzfwRBEARBmIWxRuW6LTvY7+u28CuCYIyECgiCIAjCXKimksgZ5i+ncgiCIAiCMBUyKomcYfvOXXxFEARBEIRpkFFJ5Aybtu/kK4IgCIIgTIOMSiJnoJJKgiAIgjAXMioJgiAIgiCIyBhtVK7dvIPt2kXhKYIgCIIgCNMx0qjcuuMvvmJs/ooNfEUQBEEQBEGYipFG5bvTlvEVY39RpJKQ2JJxOiiCTRAEUfKAXjFpWJuLkUblbqVoYgrhzZI/N/EVQRAEUVKY+/t6dvC9o/kVYRqGGpV8QRAulC9bmq8IgiCIksLm7YXlcYR5GGlU/vC/dXxlBki1nvvSd5SKT5nnxy/mK8bomyAIgiAIszDSqHxt0i98xdgjX87nq/T46++/2Zh5K9n6LTv47xBp8NVPK/iKsQ1b6bsgCIJw4odl69jxT37Dr/KLm9/7ga8Y+2LOH0WuifQx0qi0M+rHQkMibWBcEunw7aI/+SpLaaq7JQiCcGTu7+vYjF/X8qv8YsGKjXzF2MWvTmVvfFcYhCLSx3ijkiDAac9N4iuCIAiCIEzEOKNy+BTyOgjCi19Xb2Y7/trFrwiCIEoGN79fmOp+bdJSviJMwjij8r1p/+Mrc5i2dA1fEUT6dL9/DHtnaqGWK0EQREngjcmFQadbP5jNV4xNXLSKr4i0yYn094sTfuYrNSCOqjOSc8qz+ZF6RRf7tp0kx5APrNqwja8IIhyLV24MvLcShImc/txktmQVaRebQE4YleMXrOQrNV6dtJQdev8YfkUIHv5yPjvuifzsCCQIIhhvfvcLu+OTufyKyEc+mmFe5i8uDntwLF8RaWKcUbldQ4TxyTEL2e/rtvIrQjBlyWr20x80S53IHZB1mPnrWks2ZMV6897prTso8k+Yy8C3ZrCfKYJnFOjKX7ZmM7/KP4wzKmtW3J2vCgn6UixfH09qcMrPq/mKINJl5jKzBgTExR8ZQ/K4J7+xZENm/2bWzzztlzWs1eDP+RVBmMlsPkxk9E/LLSeNSBfoh17xxnR+lX/kRPp7yZ+bLTHXMKC28rMffudX0bj09Wl8RRDpMurH5XyV36wzeODAyhyva/16frCyIiJ3+XPjNnbey9+zT2bpOQvzjYdHzmMfJlgqkK8aosA4o9I+NcXOMU9M4Ct/alcujHaOzvx5ZAwydtO7s6yoDxEMjOYk794McCgS+pi/vFBEmshfYMAccNcoa33lm/kbIYvC46MXsv+MXcSviCjkRKRSsH2nWr3lPzo1tH6F/AAU93Xy+ew/+Cq3eGvKr2zpn9k6jnz2knRzwStT2J2f/MivzOKBL37iK4IIBurOiZLBCyWow3/hig0UBEiZnDIqb3hnJl95I4rn7ULqkNPRwcC3ct/TQ9RScObzk7WVB+QjmPmO+bIm8uSY/PascThs2kaNMHHw9ve/8pVeFiwv3ggIGbMmN33KznnpO/47RJr8b+0Wvso/+jw8jhqTUianjMoJC4vOf3bjpW+WWL/amxk+mvkbX0WjWoWyfJW7oAP8+yWr2UsZD3bCwlVsfOYfwpshH8y2UuH5yIXDvjdyktV/vl7ETvzPRH5FmM7y9VtZ30fGsdcnL2WfzCrcb3f+lX1vxmYctJLGpm072eWGlV9dojl7Zxobtu7kKzWOeHQcXxE6yCmjMgpXD59hectBI5bYFPKRk57+lg01RKMuqXTF8+MXs8dHzedX6sCYHDZpqVXsno98OXc5+2JOtvFnyIezI6VGJ2YclL4Pf82vovHzytyIOCC9eIttfFxJZSffW295f7bV3ZrEKFG8kyanO1dlPt+nhmWCfuDd4PlK2dLqZs2ilRvZPC6zh2BLrjffmUCJMSoFfwXcgEZQajh29h40gq3dvJ1fxcdDI+ezh0ct4FfqLN+QbXDqfM9X1q/5hHwgD/t2KXtlYjbSHwZEvhes0NMA8rbDKEoTDQgY4a/bxseVVMrsVoqvslz6mn+EbmfG8IRRHnaOMxpQZhksr2WwvZs6A9+cHktdeP/Hx/OVP70fKuoAr+B7PRGeEmdUBmUHT92YxPqtO9jGPIugbtpubu1cxd1L81X+cduHc/iqkBWK3rqT8PfuZeLdUp4Zt5iv0uXxjHOybE22Nm31pvgdIt2ofsdBkA0oFdkrzLC/85O5ReY4BwX7oakETcUmhQmlPChJe29aPDI+KhnJQe8V9hYQ+sg7o1K3rl2Z0kW9bxO4eNhUNuApGreYFKImDDwaIn2uE10NZwKk9WVUjWgIf09dWnQgQNw6eJMXq9VVx83Dmefgy7m5qQQBKpQt/I7fdYgIh6Gnwpg8pIPt5LvMWSnzjg+LoR8XdybziWHf+mdb3vwuWrPa7R/NYb8pND3d/emP7JsS1LeQd0al7tqmcjFHXsIwc9latmD5xrzqcotqLGGEH2pm8Y8bO3eFq/HaZpOyejRE+lwnT0j1jl4yW4gkqmx6gq9CCKrLNUgLNaW+cwEh0WUKkzIGt2p5gP0/e268nujvFoWRlQ98Po+v9PJ/b8+kergAoEwlTUSkFOOUVZ/Z/wZQLLj947nWJC63PxvSQ04ofhSLlycuYYfcN5pd+tpU9siX8wsmF8ng/Xpq7MJAe3Euk3dGJYwtL+xRJx189/Nq64FKg36PjmPTf1nje5B/ON07xbBu8w7WK+Vh/FHSX8CezsPh6oSJpQxB+WV1UUPm3WnuUaanv15kbXqiEN0LGKf/Hp01WMM2WHw+O/76Y3yDptRVVi5Xhq+yoEkpTU59dpKyobvaVsOMBgUvZ0wn9r8X/Lmx8DpKxBRpdChaEFk2Gi7FZXdgVXWTb3gnWLp6ZubPdXI00HwL6SEn5HfaDfu7/tnsP9hjXy3w1ANF3S/24pJA3hmV8xx00uxAM00nj2ceJjxQaYAI2oCnJrJLMp6SF1cNn8FXzqA7cXFKUU9Rlxd1ZFzV8oVST6PmlowRhsCrnk/U/N0zwl+8vVrFwvtX3WH+vgqXKDRmgF8zhjHq6MIAWRo0dplQR1eubNHt8/TnJ1vdpGmyK4LBjWiKTsoqlA7ZM0Fj5jlPU/OjXJlsKh+T05LoOA9CWvW2TvXOJvEr35uASoQ7LH0clCg+9pAXVC1XwLsu4+XsutXWYh8zxUnWRV4ZlWm8SCakx03bSIOg6zsrbTvAdN0Pt/rczdvNb5JCKgbRG6DiSH0663crCqhKFHklKCpEnfIxbekavkoPp2qKzSlFiHSkfu+PKTUdN/a6d3upign888Ws4LvuWmg/tvnsq4tXbtIeYAlCUq0K6x2Mubh0mT+Y8ZtVhvX7Ovc09wbJGW57+0htGtqmkFdGpVMna9zsSHizcAIpfR2b1tI/k49WPqVp3upfttR2w5oV+Soa/53iXMMDDT7TGRliChDSRaqc90r4OdxBdOTcUE1Txcnc39fzVSHHPDGBr5Ll6H+ry6iYCpq8gjiZH/CynjU50H2f5CmByFf96hX4lTsol3DrAr/uvzMSGwObdC3sxhg78iE71+vBr12jjyiXk/ltbX41q+WUUfnnJu+Hb3hMo8fcWLxyIxvH07ZpSjRg7Nbon8Kljuz0eCD5uspnQ0rEyHWkhz4whq/04ZYKmbhoFZu6dI3REWIhRA3iGHUIjxy8MzUeSRA//Mo1tmz/i3W5ZxS/SpYnRidfDrN8fbIHc1jk7m8Zt2YHJzDQApxvc3A63DGSvfld/mmG4r6pavkO+XAOG/Sef8Pq9F/WOnbf4915d9r/2H+/16MK4MdVb3mXZ0VFzixFLbXyA+l8dHwDDNywU1rScgVy9DLXySmj0qTSA3gi//q80JO74JUpfJUOc34rHjXJZz5PeR43xgdOWJC+TISbM2P/XUzQcPOcZcHqoKhoEboB4euweBXt42cd9P4PqRlaD46cbzW/5SJLYq6ttksZxQGa8VQMqqRZE3G4w1nPT2YXvzq12Hs8a9naYnvAZwEa5pzewXyTeXphfLRSmzCM5YarnIkTzaK1KwerW0cm0m0PN428Sn8ngfC0UbsjRtuBMfNWFsi73PrBD5a3lyTtGlbjq2i8+m24yRZxYtrLJD6OCcXwbrPod0i1ZW4HhT2imTQ3xzTa8N7PfipIjcaBSpd7uztG8lWylNlNbUuvX608XxUFhkucpPm8pYmX9JcfaGz78Y8NbPLPq60mNUx9gTzNPZ/+yI594ptQUmCCMbYMl4jozfsjG6CIc9stlaCA50ZbpBJZPS/WZJxBr5pIVfB9Q8dSbtQSSjGIWIrpPXglPp/tHSS54s1p7JaICilJQUZlQLxeNNHR+tqkX2KtE9nsYLDWrOTs+QQ1fAZ/aN6D+9u64gbRhzPCFzdDPuXWCAaNaAaoYPCkne1SBEK3lJYOvlkYj5D5mzGPTFTtck8DuSPdDac0HNiksQkNURmI45/+3CT+O9masj9s73NJNTKD0P3+oqU9K9Zvs7qan+Wp1Sj3EHqOAHJMrYd8Ya3vyzhlAAEUGLRxEHRKWbd/hZfjEeoA4IZ3ZvKVM8c/+Q076T/f8qvwQPoNOpYyog4bWZTOd2fH/kL6zU/BZcQPf7CPI5x5SZI3RmVcEiNO3WNu80Htg/oVAwaBeX1ysEhi2Jm6abA8ZNrl20XBjZPXMobHnN+867f85FmEwY5OaNPSnfIYTxOiqjKIGkRpMHNr0Nhg+9l1T+AJcshCdzHpWcKqkkK7uzRLQYYK3flBcfsu8OfNlGZzr92y3eo8xjPpdPDmI6pajKrYAwsoQbn89WkFWbQwEUa75I1dzxcGbRKi3cvWeL9XQh4tKiqOrF80Mwq9963LV8HBvhalZCgp8saoVO0AfPTLYEX0TqlXt9QaNg4hItztX2O0H+T3jviR3fK+cyTxma+dG178xOCdeHjkvIJGjCTBZAIn/OQxZONQ9WAd+KZ3F3cVm/alE7+uzm4+Z73wHbvyrWQ6wtcrjiGVZ+oGyTYl2Y25NYKsiYq+3SnPTgrdUIXU1T+enmjVrQEYQnLUyIvr3p7Jnh6rZ1qNKrdm9gcV58zr3jl1qPpx47vONa67OTx42MPOfWmKY8PEP56JHiVKAjTNBGnOfIIPFtDBYCkNincdWsNiwlqUVDuQjSqn7zAqco3pCU9N5Cv9rEzYsfPCq/McaiNjfbRam93ymW8wJG3yxqhUTYe+rDAT1I7T66T60vp5X0F5xqNTGpuKE7uH0NF8PLMBvhdjTZobmOzhhN9oRHnTQ12MCotWejcl+PWw3M1FxZHSgArAtF/WxK4CIBvMcQgHl1dMoXoRRcvzjOcmFan1ckO1SShIpAWOoOiyRXfxlCVrCsSSw4yg/JZHShFNx/SruPkqc99U5KQwHs8NlQlMMkHuDZQTJmbuh1P9Jh5vjNp9dtyiVBxbVdrf8SXb5+YR/MofJ/mpsEx3iXqKprsaLqVQXohyCKfJSnE07siRcvtENJmo0X4x41tXl3WU4Rqoi3Xjhoxjdk7G2bK/vygVaTqo6Hfy4BfzHINdppA3RuXDKY1K9MJtFFQukMYz61QrCoIO4/+Pg/ala5e0xw/6p2L0WwBvu/Pd8crYyIXfTs/9oQ7RNNUGDrB1h7fThHvmZZSArh4jyfwiyd9kDI5zX/ZXU4B0igp38LoxFVoN/twyGMCP3BBYwA0mtzpEL/Bn4KA+LWMoi/q1uBkcUa9XZ2AqjNTZ65N/YfeM+MnS/IOBiallMr8YNnfdjxiCfcVwG9aggpcME+oMk+LFCT8XqbkFusbrwpFRBSVNbnX3T2qePCVzUcbZaj90pBWouO+zHzP7Jf8XHDQFm1yLnHNGpdtc5yTZlHBndxTCFt5DLinuUXhymrVOlXJ8VQhqSN2MO696Obn0wC0F+raHFpvKhBG57AKfNc7pGXLXpFPUXJ4PDuRoLkop3NKcfpFKlU3eK1qsc0NUKTFZFdA5kMFoSBC1PnlDhEM/ScJEv90kc96PmPGAgQnHSTiFeN9gpD8yyjuI8NSYogf/EY+O017XGIQknHThOGK2dRCwN2J+ddqgieaOT+ay96YX3ZNF41BUUJep6hfOXLbWqruHoS4HJKLKsKmwNvP3YhoTpvTkGjlnVKrWTurCqb5Md62kKmGe5XHzw2spbo3ZeJbTbE5RQ7epNmA4/3cikuTGa5OWuJYiRDWcncbCqdZ0hgGpwzDI4vAopXhnqvO9LeVY9KEPr0Mi6Lulos/qV5PrBGZ42w8TXEPVIQoQbL9o2Pehv0M3dIvwQxQ7KDqmJHkh6p9x2AI/Y/X+L7IOIcSnYYRir5m/PHha34mwqce4xyKKUqegGRad9Z5REGLrsjMfJd1sB8L6qnvbeS9nBfXbDR3JXjGwmexr7uiaiFFGpcpL5zaYPS5QX+iE6uH3paYXAvg1jthBynj0T8uNmE3uhn1mL5Cjboj4yZ2jTlQtX3xknz1NfOsHcwrqamSijsg66N6sLISdOOockyTo4ReljlSe9iN3rfuh4mhVr6j+3ghGzPq9yDPU+6Gv+SoaIzP7AYTzdaLr0A2DiIrFLWqOemXQ88FgU7/syhBBy2jcCPu8C8m5uIDua5jO/Shp87AESWmH6QtwAo7IXyEcgoUZhxIp+f6P6RmFWlbD4PMLMs6pqRhlcah830nUpvgB+RjVl/dCjV9+LZ8CbFGLAjHcM56fbHlbUe4XIoDQmUsKWb5J1lqUERuE0wYlfz9uRdqQN9HNLr2Bo9jYsmOXo99evaL3cyY34cAIDSsYLB9o4uBVfWxVImSqEiHi58LfPWL271o2/yQIWo5zmY8mniqoa9zvti+sMoqlMekZClDDi+adoNizGFG0be2omiWygxQ10u0HmqXCTLjy22eBriivQDQ5+gEJHV1Gr5vgvx9vTP6FPTRynrZmqwg+eBGSrHUNgnFhrDS3cRTVL/3Tf0wZImw3u0j7OHHxq3oMS78uPDEb3T4LN4q+FwzTi4bFO2EjCmKajNNMXNnYcEt7oLzBns5CKjFseist5JKQQ/apxVfeoKvZ6Sf1ewfl23PAnV+yRSvCjfeTI43i4Ff9BlRG0kH6SSWzICJQ+P8wmHQ1CMSN06HrNWN7hKb6OVFSEWRedxTQvBME7OVO9cVR8epUtrNZMiqb1qnEV8FwysS4IUuJqQCjyY/DH0m26fQHnqEKE1l0ouWtn/k2F3rx9tRsav6xUfMjZ0t1nS9p1gh7YYRRiZs8ceEq6yb53e7r35kVi9TEcU9MYEc+Np71eGCs9XnQBHL3p3NZ12bFD+igg/bt4xyjUNUn/R1HCipofU4QvDS7gJ8HPYyPlCzvMJ1BfnHdvN3xC1ZZtW6C5rd8Zo1CC1rsbkcctoiQ6ZaVcgITGez4TfrxayTy+853SKFYRDxVNn8c8jOljVD+X4lUl6pz+eSYoj+724at8n22ub1wtGLczXhjfPToguAUhY+aYg8iv+L/zafDWodmMR2NnqoNW7KaRZe91Zw9O3B6nQZwpEGSvQTHZM5joGvcsVPtexgeGbXAVfpOFYWtUhmd5XW6MMKoPOS+0ez05yezU58tHOflBTxFRBVu+3C2lV6+wBaZCwMOf3vt3nPjF1uiyc+N/7nAK0kzgirwqzfLtZFnsjyOzDYfaRuBk6e9h5TqWOIRgRYbl93waB9hdrMwYM9/eUoiKQoYxnb8Nq3eD0erD3Rqnhr6kb+MDRy246T7IYu5i7raIE8ypDcEbofHi9/8zFdmAOkUL4I03+xdu3gEbOmfm9n7UhdtEGRZFy/irhUMi1yzDeQz5u3vf1WeyIX94ZmMA+ckWeYEnuGojn7cChxB0JWGDsL8EMM7TEfnKa2zvE4XqRuVqE8ME5aG8Owr3y61LPUgdSS1KxevF3tHijza0yxiSkHUB+Ga4dEnrvgZlRMk40IXURoxvJALsMsrFGTLx4T4fmQ+nlk0LerlXYpubftzqCP1ib9z1cb4Ir0C1PogBQlRXOCmDSiiNG73TAVEAp10LO3R3iDI+plhhNdvtU0YcaufRETTLYoJnESf40QoH6B0Qc68nP3id1bEXDUi5vZjXTN8pufPLHCqu5alq3KRQe856wzaI27IfMEoxpSSwx/52tJrdJLpQs0w6kfvlZQLvCJF/1uzpUjT3vYADXB4l/Fn64rU6eDzFGSHTs6RCUtpYppma6pGJbTy2oWICEWJ/uCQt2/iMNS8NM90dZu/Pz1+vSlofKkcIkGxT45A6hSHHiRWolK5XNFaoa0KKQr5p5vxq7M8CyYMoYTh01n+NXfHPvGN9vm2U5bob3BqNfgzvirO0f+ewJ4Ys5Bd9rp7DaxqJgC4SXed8swk6+9RJahD0nKPqnylDurmej001jIMJy92v+/ovE4CFXsM2RZ8XgjVQ+RbNAnB2BTjC2Esq7zPXmlJlHL4vQPiryj6sYv+vcgqvDN1mW92wSRmuShHyHsXntGjHp9gRcVgiLa49bMC4XuBGMkqg0jRtcNnWJFluaxk4qJVrKKtFKWGTwMczrXmt4yw5svjHcOfPTCh8a8q3PbRHEeDW4CGLZ0avV41g7nv8uhDlotLm1KZTUvfUxAAvITwxtPi20G9WP1qFdhbGc/0JhePVjfvXXYI69ioBr9yBp20z41bzC7v2awgWoBDA5M+VMDfEdcc1SX3HVUkovP4aR3Yse325FfBwObz9LhFxTTJWtevykZc1d1ao57owIgTarrsXdNzNJZg6LH7WZtmXODehQURxiAGoQBPj/xyy98hcPrvwIkd92J1q5ZjV2SexUrcAQgT0du3fhV2/REtC7Tf7LRvWJ19cHlXfhV/xBAKCkOOac2uemsG/x1v3O6NHZX/JiqvX9CFdW1Wm18VRdwzr8/Rao8q7LPMe4U9RfUev3XRQY7P3YeZ7wtGl7xvJnEfdCHeR697Mf6GnqxhzYrWGiVWKhmxSw/bx8oayCUpAvy9cCDQJHfKgY2s30OKu62tnveq3s3ZYw5ThExhwo09razO90vWsFaZd7tb5rmc+9t6q7SlZub9mja4L/8vi/PetGXs1UlLQ2mh5hpJvg9j/u8wVr1CWbZ41UbWol4VK2ADy263BITaZRI1Kh8btYCNnb8iLx+oXNpQCX2I752+//wHPl46Lrh+8ul5TeNnydf3nfax/Oa/Fx/MOu9dk1/FQ2JGJbyz1kO+4FcEQRAEQRBEkkTJmqmQSvobNSPd70+/DqBzk5rsuxhq3/yAqPK/T+vImtWtzHbu2mXNn35B6gZFGiGX6peu6dOCtW9Une23Z1Ur9F56t1JWVAcakqgfw+zp5Ru2WqMfMabueZ/u13wF6d7D96vHKu1exmoOEPJU0Ja87vCWlkDvklWbrFpfTADZs3qFYs0B+cY7lxzMBn84p1gdGzI3Gku0tJB2JAcpbKS37HXOphH2Hon/XVL3uGntSqEbzMJyUNOabJJH3W++UGn30uwfnRqyEzo2sGrWL+mxDzu5016sl6bJVEQwWmb2jHtOaMM6Zs7ouJvwUjEqBXHUT6keRPPvOtLqPsYoQ6darziYMaSv77QSgK9E/uJRBK3SCTfq2kNZn4f1C9Xef2JbdvKBDS2ha6Fj+NOd/Vj5CJIZqK+59r8z+VWWR09pz47v0MBau9VUBjl0Dm5ai32roE330jkHWgdMHPIoUWpPAaL8qG1zazxwwyld61RT6cYnV3azHB/7dxzmnb39mNZsQIe9HJvybj1qX3ZB96b8irGzXpjsWo+mg6fP7Mj67FuP3f7xHFancnnPJr2kGXd9T8ei+/O77c0GH92aXxXnvJenuHb8Cz66oitru1d1a63yHcI5/HRgd2tWORpZvrL9+QvvPtKaoKNrdGXStGlQlX18ZbZu2+te2CM62Bdkx98J7PFj561kVw93rtkVfybq5O3vFaSN0IkO7hnQxhq5GDdhyznm3dWP7V56N0uHE8ED/BwrNmxlne/+ip3epZH1+d2YtWytpVIiZrN7AdF3odEZ9rOWFIQ942Q7JE2q3d/vXnowXwWjf5s9+Ko4MCj9bunP9/YvkLPp0aKu9WsSqBiUwOmhUK2DaFa3Cl/pA0X+MCjB1MF92fCLDmJz7zgikkEJKu5efFKEMCi9sO8tb1/i/gxhg7/juP34lTe4vz1a1OFX0fnxjn58xSIZlAD36aMruin9LKOu7cFX0TbhBRnDYf8G1Yp9x4+d2p6v/MEBin/O6bo3q+Yyf1sWhA47nQUGMJok8Gy6MfKaQ1m//euzMpkD8a7j27Cr+jQv+Iw6Ud3SB/Zuzo7JPBuNala0PkOjWhWtw8EOft/LoAQ9W7nvYRjegMYJYVCqIr7nZ//Zib2QcbjwuWD04vPg/u1Tp7L1701D5d4/fHLRZxhRnKPa1OdXWSYN6s1XWU7l+58T7192SMFzhD0eexjWr5zXuYhs2gXd9+YrSGcVfa8Q1buxX0vLyTq2feF+cUPm9+IizP6An6tcmdLWGYXmPfFz1K1S3vp3XgYlwHN4Wc9m/MqbLzXtZfkOspriOUvboASpGpUHNK5pHV5BQar1tM7ZzjknvJ4/dH/abzw8LbzIbjTm3X9R+fdpHfgqPrCJxcHnVx/KV1m6NK3laBAGBZ3uUXESfgZ3D9jf2uCbZw4MP5BSxAap8330m2oThn8e3ISvijPr9sPZGxd0sSKLbsy87XC+8sdtpvZx7RtYndxxsWlb8GcCXeowgG/s14rVreo+3xdpYzfKIMWhCZXzr26Vcuzavi3Y4xnj7evrD+O/m9VuRVYAoONbhdqZPc2N1y84yDp0ooLPBaPXdOz3/q7j9+erojS1GcR456FwMDTjsOEcwHcB40genlCrcjm+Ksro63qwDi6KHpATsktqrfbRrL30sGZW1B7lQ59f3d16p7s30+foRuXV8+M5X9yo5/EuE4XIDlDapGpUAhxeV/dpbq3dDAQZhN3vPaGNFenExhvEYHMaQYeQvR1ENAR1MhuODhCRiEoNl2iPoGGNCnyVG/gJjP+tcDzXzmz2DaoX/7nLZ7xpO6ifdUOInzepVfj8eTktqhzdpj7rqjiHOwqHtaxjjfA8hEvO9N7XOXIlZqVflzFmouBkpISWlpJCEPK1CohQCtzegRfO7sRXziy8pz9fJYOYzw4HV44uICsAw8ZNQkhmjcM4QgBJnLAE+Rq8HJk06dDIOTqLQILgo8u7WWcJ9hEYdI1te4AdPPP4TuCY2X9eu4Eqgz/TblSWC5DZabVHVeudrlohuvOui+YxZMH8+P7WPnxlDjqDDzqwR8NNwIhPc3WfFpZupKon1Lxe9kVGpBMbb1SDDVE3eyoeEY3pg/taESwnEWi7oG2S+IW2VWpJTcJpupEdWRxdpjo3sntkjCoZefqQHHmwI0SJcdgc2rw2O6ptfeugCQsi6eDRU9vHFj22c2jzoj+/X5n0lb2zTlxY+u1XvPxkQEf/sgXUYsnR0irli37HQlctyMZtP+TtBoMdNEj5gWaCpLi2r75o79otxfcoRJOFxmIYVB18oMMBiwOnyU+zhx7BV1na7FWN7VVD/T7BMTulk3sq3I6O6LdbhDQNEF1Pij2rZ/dr0wwmEMLvLYJOo/S7m82KUgJjvjEIkcOz8+OBk9pqSb3KwEBFreViHrGokfFM961flS1aWbw7UK6/8eOu49Xq+vzwexbFZI1yml5EGH0o2I8Lv5pMdIx7IaJj6Cj3w20G7xldGlkd1oJh53dhT57ekV+F45xDsmlq1J7hn7iRI+1hUsh2UCIShJMO2EtpxjFqsUS01I2C2d+KG7dc4+nmeKnUM1/Zq1mBUern8ERFZyq5osO9t9fvhUHluUX3NNB4RmpFfD47fo6qCicrGpVyCQlGQAYFnxcNK3GiGmlOUkhbDETQdZahflkHCHx1auw9wMQPnXfRq9wnLeI/8TQTZzAOB5LqiwMRUVXOPMi9Fi4IFct5H9yN+UFlT9/vFSEljp/xtYyRlRQqhokdUcpQx8GDLlO66Pfo9r3aZ/PmKrJxrjJBCEDiA12cMn73pLR0b1G/ippGHWCyURBUImq9WtV1jWDawX8j0pVwNHQdaHFTuXxxQx0GvBsPn9yOr6Ih9pm+retZv8YJpLbQwR4EBAacSmOiUslnHxbU0uSYiA5oFf6RcfCCgok4fohgS1Kg8QeU3U3PO4j6Zb/yMTdwhkLBAnRvXidypNEv46jKdYdHK2OKC6N2TZV0QWlNX4gqVRw828oZzxHjqVTQWUTrp1tZhR8uqAuafHNvNuWWPtY4zLDAS8bGnBTyIQ5jyen+C8p5RFPQUGLHLXUT9dBpwUsx7JiYsnFju8Pz4VfXKNerwjANGwGS6zP7B8wC2GvW3FCd6243zk89sBHbZptzLKfpo6Db0AnqOJ7QMbjh4QSimagzRJq9ScxNPJu27bQ6h4XjrErLPQr3aTg/SSJHKqOU1Khw5kGN2PkhItQqdcy6o5TCSPMDf69fdkMVt9pjP2B0oztfV4OiLhvmyl56oq+6Mcuo9DASBOXKJvuRL7E1AdhxivA44VXLF5QgaU10ziGCF6VUIO4azZ1So05ZB2OscW33Q0R0WNsPf4HdQcGs4n8e3JhfFSVqKcWw84pHciFuHxdhDRIcODJuxm+pgAmaKJ63/BmCpt7LKEQywkQcj++wZ5EIOGqsdQAd1ncvPYRf6eGgpvE3g/nx27qtfBUPNx7Zyvr1VYf3zYuLD23K9uR7sK6oV9iSlrhrT+GQocEnKCr1xkkiRxS3KJQ3qYBopWqdK7RsAQZVWMMqMk7z5YpSSH44OfJBgVyeqeh5yxIEdY5J4lTP4hU9M42DI3Qf16ikx0N0o1OTorUpm6XmGjD0WPfoguj6hc6fjL0es11m08Sm4ES7vdzTtioGjlMESyXVGpawTspF3Ys6R8+edQC77DDnTdKv6z6qo+2ltxk0IqJU8xviA9udDegYwpAIotHpBGr8oGGo09GMg7Ye74QbcaSZ7ZzRJesU1q6yOzu+/Z7sgm7eETnIawHIn00c1Jtd06c5695CrZs+V9nFbZWGNdOJXEdFlGXc0C/rQAhu4g5FVJBNUVWXEDXJz57VifVqFX95R1DczjMTyDmj0k10V1NEWYlcSm+GDbVD88+rLksHci3gDofQ6AGNa7g2TXh1bcrfkVO0Cl6rkOFxwi5V44b8cuOw01Uz44RsczV3KLIf4iCWjXGgdg7fb48iDUp2nLpm7bhpWNo5wUPEXo5QR0HFCN0/QLOZ03NSn3eihpXOOXL/PSzFiKCp27QIGi0Gbt/CVREaJPaoWt4Ssx9mU1CAsf/oqR3YNT6yWPJ7fVWfFlYzaD4jnMGgmQbgldqtrin97AeM2/cuOyTjNBTdO/pl3h8doO5bNfsGOSpM33IizP0NyqU9mlqaqW5aqyaTO9aRD09F7NiNA4jX5io6a8hUcUtNXGgb46eCkzSMk6H3l4/XGuQewBhZdE9/dqvP9JOoVJDS9WceVDytf55DFCeI/mN5hRITNE548VCEZpAbMgecisaiarNckEjHvLuOtOoEwdFts/WdottTxZiWGZAxrv9z5gFszP8dVmySS1w8cXq0QQt+TkUQwhjinw7sZknMTbq5txVpPNRh0lXakRo0iAWJzgYMwIciSmd7a54B7Oig7SkPv4iTjo1qFBscUSliiZIAAQpVEFDB9C0nouxtKiC1feOR+1q9EVDWuDhjYNrBfhZmL0qKvDEqVdPiT50RzPh08myqeciTHM47IbGZBu1m9kOkdJxwmwrkZzg5AW8RD3PSHOnyEvfx6S7dKk3mUZWDQSefF061mnaE9NBJGQ8bNZtxpr0FXtNTdOH3c6ugGq118voxxk1FY7GBYoNK2EMJEd/7TmhTMKIUUeE2AbvchVGFGuckmt7wmUU9mBfNPES7D5TKUlQI0gF+btcm7OrezdmEG4s7Dojq7rdnNeOjinASvrmpF7/yR3XMrgrIIjkhhkms3LDN+jUM711WvMNeZQhFUHZKB2tPB61hgduIV1WEnJCu/TmK/iucTDegbjA281zZ5c+QzRuUMTDtRB37Gzd5Y1S6pfJkxCQLVZzSYae5zIHFjGzMygUvn3ugdm8CKR0YfE64bVpBf14Ab1FOTSfB/Sdlx9PJ+Hngcqe3KhiR54XQTHRDpNgfzHiutxwVb4RSoFpzKDfmBPEtVPRidRFlnKWKRMjUW/uE7lyFYXxq50YF8ia4fstjtrjMxIzREVUvMigQ7ld5d+VyCDt+TpwTbtFgJwcF2rBX982mo2Xf43yfWslc5SbJMIhC9+ZFU/vYNzFVrl3DrMMTdTiHHIFVbUoNgtzR/Rw/N/OdJauK614LoG7QxEMiDb0cyKKo2jppkTdGZVx1jk6Hnlv3n31DVJE6CQMMviAc3TaYVyPrOyaJmyfp94mCNglgIsZL5xyoJIjtRQKBydDIwvEmFnZHndDh1rlfzzZaVfdEkiD3Mat1mbxzpoIcKRJAGgiHW1DcItNoFLxC6pqtw410vO/ndc1PI1JG9zQauwA3nG5MlRPPmstX4YldFkq8P2I0ZRxTfeSnz6+j/hIpBRwWvxpFlAG4jbnVwfRf1/JVcMJ8r2mQN0ZlUogidvkLhowMtKwAopQNA4z+CoqTJ7rYYfJPGIZfpC7qnhROUwOOax8+BfCvjGffs1X4jUPUHEbRANWFm/Mil164OV1pGsZ+zRZhiTtq/NV1PfjKnQMCOn+62Kwov/LnRmfN2yDjGf3AngiHz97whsyJPUqVI+dkqiy8+0i+yjadNa1Tib19ycEFUfMomQWMIgYo0xh7fbYcQdSF+000i8KGAILuIEqkFxqnAq/0M0B53HNnRY+a4n6KqUB2xIhPGO6idvvynvv4jlvEUIjbjtEzmS9uyKgMiEilwSu0C7jaZ/ke1rJu6JRbWJat2cxX0QhSzJwmcaRkguI0ySdp5BnnAvn5czt44jw4/IhLtw81R26lFDpwU6CwM/xi9TS5TvzmvgvcpiY9dcYBfEXoBAMzwoIoHtQUoCzxycDuVoQekWHok2LSjVz6pFrPDJxKJWryDE6cW0OSCTG7AL5fpgE/s66zG/qfjaX6S1F7vHx9Yd0ramH9xi2efUgTdmIKfQ5hyCmj0jR9yP68OxSoyM/ECQzZqOiMUsTNKVJdq85CeBV+urOfNS8+bdxKBuy/3bmJ++d0S4Oq4iRflATvXOIdUUdEAhGANEBXeliB7LSJUuOqgmqdcljQMPfxFd34lTlE7WBGx/EtDs2YTgbQzf3V1Q6cFC6E7q+qUHhU4tY4lWe1R+mSV+XKXtmSj7sHFJ2i5LRfJ/F5kiSndr5yPgXocY/BkkEBf+8IaVRdQKxYx+zl0QppPd2ElT+RC70fOaWw6UbHxAJQ1WGmMoBkURqNTEGw1/JpGiRSBDHFZU+u4Zg0fsYwmuSuP0KPaHIQIMaetIMD+u2nR8svbrw64PepUylQd/0XXOrG3rwI4ew2IcTbTQfRR9UI5IAOeymNQURzlVMGA4bqv05sE3gOf1jizCo4EbQvIQhQTkCJh2ge7SY1VTk5TSbLA4Uhr36aU126suMkWpxHD7+u1pP6DpI20QXmqurmD00j407o6Fx/c3UfMwf52zm9S6PAkX1MHlJFTL8Ig44ASAilLO3s36C4jNl9JyR7QAqePiv309aQhQuyB9nTmqYiBO8TCvoVsHKjt6wQavqc9HwFpxzYyBqQkARJHzuoSY0D9Fu8ddHB7HUP6T95pOqhGaMzjISXyeSVUYkNqZJP+kb3YWRCbV8akRFd6Ar9b7XViOnSB83VFCZABOIIPomiQXX/prEeLeoEappwOvxVpUxO6tTQGhMZlpM77WXsRlzX1nmea7xxYbC52roJ69SKdx/PcEXDMghCyzZph91NGUFgohpEHPRvU9ww1jErv7qDnBmknpDedvquhZ0gp7+Hnd+FdfIoT8pF8sqoBF6j+0DFcno3nSHHtLa6vdMADzF0+B78h3fUSHT4uQGh8xv7uY/pihNhuLmJt6uyxdb1etbBxafM5As7pdQ+tFHdQBoGWo6Dj/a/t9jrRH3V6k3OncF+fKRYywZHImwUBCLJ95/UzgiDX+60RpcuRM7TxM+YcAINZ332rZt5XvRmDYQYtxf2MoYLQ2p6CgUETJdKukHSVJyMHpOwlygIHVg/3OrHvXCaYuUl1K/yzILPryo+ZaiKS7kUqFetXOLR6rTIO6PyiP28hXt1d7tCi05Hk0wYnjyjo6Uh5vUwA79pQ6jzuPSwolpySXNkG+dpOqoI0dgTOzZwdSx0TzhKA3kObm+P6SmYpTt9yOFKepzwrm/nNVROgv8qhBnJl8vIck5pG7o/3tGP7eEzPlNgn++NRonnz07GMZb3IrvxE0YfU/DYqe2LiYKXZJJqsgmLaHLE51TdNz5wmPbjxSOntHOsfYdxinfFiW3SdDY3xHsGpx2lQGjOu6qP+5z7lvWqssX3ZiWE8p28MyqvPVxvxE1V9y1JIMWC+lG3RpKSCKJf0P16KIb5yva0blpRaYHbPFodqEjl2Om6Ty3Wco+iRgJS0yWFJrXMUksI27l953HegtCqHGNTw3BjIO+K1Q0aI0xvnjOJSz3qKZMkiCxbkAYsDLdAw5IbOlQOnj7zADbxpt6W844SNDfZNpwZtyk0TuULeWdU6saEhgCZwZhJfGI6DQElEXtwO62odFw8ZuuaF9jrU714/cKDislQxT1CDHptJoBi/OM7mD2D1wu7tI+ubunbFLqF5WhuB96JWz6ilJCppKkD64UY1JE2cd0fleEWiC5GAVkjFeMUZ0aUeeG5BhmVPtSq7J86JKLRZ996BYK7cVKpXOnMoRZ8E9u2I3sAQ7op3zjOYcJEFMPQT4cwKqYY9V2b1S6oX2xZz/wuZJk49jV5wtQgl3ngdtBcg5rvNwLMVLfTsGaFWKeXRQV7DuHM3QP2jyWCh45qFRBdFNPRCH2UqDt6ZpdGgWtN+nrUrOUyTqK3afH82Z1iF10Gj5/WgT3/z+AjuERaw8QRlroQr8Xjp7aPpPd66oGN2DUetUVBOCPzvuYCQ4/bjz0SQWIpX5ClQy9WTLGizjKsduD4G3oV1FMTucUZXRrHIluETJ4qs247gq+yNK1dsurC46DEGJWfDuzG7hrQJrC0g9xNuMvEfHhAUCOI+cV+U0nyDXS3hol0obD7xXOSMXzTAELJl/fM1rod274B6968jrUOQ6NaFdlVmnQ80XghdP5MBhIlAzqWnFpSN4ScGyKPE27MzpEu6aBpMIqmaxycncfqGMBtdK0TaFIdwtUxoKSRr3t8kuSUUak6du0KfkDauwFb+3RAq2KCLmVUDs4cgpBxgD7WLf33tUabEe7AD+nVKj8j1uCcrnsX1LaZBJqSnskDUW8TCSPP4gdUBn6+t78VebQrMEBNoH618mxwRNmwXAT3GY0cJjEos+fnMw1qBCvfOa9bU74idJBTFtK5mcNPhfVbd1i/2ief6BKfHXZeZ77KXe49sTC9eeGhTTMemh6DOx9BXRhGv5nI8/8kg4sIx5Bj4hnB57TPojnn20G92fnd6fA2gXzukodTo6p7ScRDzhiV1aVZz168Nmmp9esBjWsUzIfVRfMcLMoHmLHdjjea0EunDurCjm1nZpdvn9b665FMhnQI9YEGGaJkgBrDRiWk+zhK8IhS33owzqjs7SIF8M1NvfjKH3vBeIt6lTNesvr/Nl85uu2epONG5BylbYfEuV3NkBPKF06kOtASQd0q5di4G7I1rlTr6syLZ3didx8fvkGRKCQnIpUYzRZ2Vik8l/rV9Gjnjb6uB18RRLoM7K2nw9p0MDFKoKuERReQEoIAfK5SsxINTyhJTB/c13eMcUml1771WOs9kykDQ9T4hI7FpdzyBeOMylUbt/FVeESaVzdVA6TgCSJOysbQaGEiNSvtbs3UfvL0jlaDmUlAygYC8ARhMj1aZksdathGcxLp8dEVXdk9A/I3KmqcUakjRYvGinMOoY5mGUwjuai7WrMTQZgCGj2Oalufyjc0U7kcOcn5zoiB3Wmcr2FAJSGf97KcSH+jQzkImHZx+7F65tmCWnni4fVvU5/dfFTJmUFKEIQ753Zrwt69tGRp1ZY0kkrpmsCS+47iKyJNjDMqncboQbQ6TSDmSxCmAEHw/Rvk38hIIlkQwTqgcU1+RRC5y5yhRSfjEOlhnFF5/RHmaQJSLQphEl9f35P1dFFJIAiCyFfeuLALXzE28ppCucCwjbyEfowzKts3rM5XBEEQBEEQWexZyxY5qhmd7+RETSVBzBjSl68IgiAIgjAR443KG/q15Kv0wfB5Ih3QMUcQBEH407NlXXajQWenTs7s0oivGBt1bQ/22Cnt+RVhAkZaSUOPLZxLa8I4sTK7lWL3n9SWVaG6jVS5rm/hLHeqoSEIgnCmbtXy7NLDmvGr/OK4DoXC4c3qVi5yTaSPkUZl+bJmfSxM8ji5U0PjJnqUNDo1KexU/cs+i5MgCIIgiNQx0qjcumMXXxGEM7uVkIkyBEEQRCF7VC3PKpWjQQimYqRRuWd1PbO6ifylAT0jBEEQJY6GNSuyOUP78SvCNIw0Kvu2rsdXjFWhUWKERAUa10cQBEEQxmGkUSlAbWWjWhX5FUEQBEEQBGEqhhuVFJEiCIIgCILIBYw2KgnCzt+Z/yMIgiAIwkzIqCRyht1L0+NKEARBEKZCpzSRM9BEI4IgCIIwFzqliZyhZiUa1UgQBEEQpkJGJZEz7FWDlAAIgiAIwlSMNSrbNazGOtvG8hEEQRAEQRDmYqxROey8LuyRU9rzK4IoZOvOv/iKIAiCIAhTMNaorFahLKtUrgy/IohCKtNzQRAEQRDGQTWVRE5xdNv67LTOjfgVQRAEQRCmUOrvDHxNEMaDx7VUqVL8iiAIgiAIM2Ds/wHRJGEoTabJLgAAAABJRU5ErkJggg==;container=0;" parent="NADUIRsd1BDECD5ReKx2-1" vertex="1">
          <mxGeometry x="113.22580645161288" y="42.45650178480378" width="622.0137735615264" height="112.92231895216817" as="geometry" />
        </mxCell>
        <mxCell id="G7gRL9SPklHr558Kcwvp-284" value="" style="endArrow=none;dashed=1;html=1;rounded=0;entryX=1;entryY=0.5;entryDx=0;entryDy=0;" parent="NADUIRsd1BDECD5ReKx2-1" target="G7gRL9SPklHr558Kcwvp-286" edge="1">
          <mxGeometry width="50" height="50" relative="1" as="geometry">
            <mxPoint x="731.6129032258065" y="180.66226415094337" as="sourcePoint" />
            <mxPoint x="780.3870967741935" y="101.88807527842876" as="targetPoint" />
          </mxGeometry>
        </mxCell>
        <mxCell id="G7gRL9SPklHr558Kcwvp-295" value="" style="shape=image;verticalLabelPosition=bottom;labelBackgroundColor=#ffffff;verticalAlign=top;aspect=fixed;imageAspect=0;image=data:image/png,iVBORw0KGgoAAAANSUhEUgAAApUAAAB4CAYAAACjFAnSAAAAAXNSR0IArs4c6QAAAARnQU1BAACxjwv8YQUAAAAJcEhZcwAADsMAAA7DAcdvqGQAAAAhdEVYdENyZWF0aW9uIFRpbWUAMjAyMjowNDowMSAwMjowNDoyMOcP6rIAADf6SURBVHhe7Z0HnBVFtsYLAck5iUgQSaJEEVRAJCliRF2za86K6RlQQTGvWVddc8DImhMqIiAggkgUUKKgrEqQnEF89+tbNdNT06G6u7q77p3zfz8f1ejCnb7dVSd+p9TfGRhBEARBEARBRGA3/itB5AQrNmxl6zbv4FcEQRAEQZgCGZVETnHas5PZ1cOn8yuCIAiCIEyBjEoip1i0ciMbv2AVvyIIgiAIwhSMNSrn/LbOMiAIQqZM6VJ8RRAEQRCEKRhrVJ7+3GR2xRuU5iSKUyrzfwRBEARBmIWxRuW6LTvY7+u28CuCYIyECgiCIAjCXKimksgZ5i+ncgiCIAiCMBUyKomcYfvOXXxFEARBEIRpkFFJ5Aybtu/kK4IgCIIgTIOMSiJnoJJKgiAIgjAXMioJgiAIgiCIyBhtVK7dvIPt2kXhKYIgCIIgCNMx0qjcuuMvvmJs/ooNfEUQBEEQBEGYipFG5bvTlvEVY39RpJKQ2JJxOiiCTRAEUfKAXjFpWJuLkUblbqVoYgrhzZI/N/EVQRAEUVKY+/t6dvC9o/kVYRqGGpV8QRAulC9bmq8IgiCIksLm7YXlcYR5GGlU/vC/dXxlBki1nvvSd5SKT5nnxy/mK8bomyAIgiAIszDSqHxt0i98xdgjX87nq/T46++/2Zh5K9n6LTv47xBp8NVPK/iKsQ1b6bsgCIJw4odl69jxT37Dr/KLm9/7ga8Y+2LOH0WuifQx0qi0M+rHQkMibWBcEunw7aI/+SpLaaq7JQiCcGTu7+vYjF/X8qv8YsGKjXzF2MWvTmVvfFcYhCLSx3ijkiDAac9N4iuCIAiCIEzEOKNy+BTyOgjCi19Xb2Y7/trFrwiCIEoGN79fmOp+bdJSviJMwjij8r1p/+Mrc5i2dA1fEUT6dL9/DHtnaqGWK0EQREngjcmFQadbP5jNV4xNXLSKr4i0yYn094sTfuYrNSCOqjOSc8qz+ZF6RRf7tp0kx5APrNqwja8IIhyLV24MvLcShImc/txktmQVaRebQE4YleMXrOQrNV6dtJQdev8YfkUIHv5yPjvuifzsCCQIIhhvfvcLu+OTufyKyEc+mmFe5i8uDntwLF8RaWKcUbldQ4TxyTEL2e/rtvIrQjBlyWr20x80S53IHZB1mPnrWks2ZMV6897prTso8k+Yy8C3ZrCfKYJnFOjKX7ZmM7/KP4wzKmtW3J2vCgn6UixfH09qcMrPq/mKINJl5jKzBgTExR8ZQ/K4J7+xZENm/2bWzzztlzWs1eDP+RVBmMlsPkxk9E/LLSeNSBfoh17xxnR+lX/kRPp7yZ+bLTHXMKC28rMffudX0bj09Wl8RRDpMurH5XyV36wzeODAyhyva/16frCyIiJ3+XPjNnbey9+zT2bpOQvzjYdHzmMfJlgqkK8aosA4o9I+NcXOMU9M4Ct/alcujHaOzvx5ZAwydtO7s6yoDxEMjOYk794McCgS+pi/vFBEmshfYMAccNcoa33lm/kbIYvC46MXsv+MXcSviCjkRKRSsH2nWr3lPzo1tH6F/AAU93Xy+ew/+Cq3eGvKr2zpn9k6jnz2knRzwStT2J2f/MivzOKBL37iK4IIBurOiZLBCyWow3/hig0UBEiZnDIqb3hnJl95I4rn7ULqkNPRwcC3ct/TQ9RScObzk7WVB+QjmPmO+bIm8uSY/PascThs2kaNMHHw9ve/8pVeFiwv3ggIGbMmN33KznnpO/47RJr8b+0Wvso/+jw8jhqTUianjMoJC4vOf3bjpW+WWL/amxk+mvkbX0WjWoWyfJW7oAP8+yWr2UsZD3bCwlVsfOYfwpshH8y2UuH5yIXDvjdyktV/vl7ETvzPRH5FmM7y9VtZ30fGsdcnL2WfzCrcb3f+lX1vxmYctJLGpm072eWGlV9dojl7Zxobtu7kKzWOeHQcXxE6yCmjMgpXD59hectBI5bYFPKRk57+lg01RKMuqXTF8+MXs8dHzedX6sCYHDZpqVXsno98OXc5+2JOtvFnyIezI6VGJ2YclL4Pf82vovHzytyIOCC9eIttfFxJZSffW295f7bV3ZrEKFG8kyanO1dlPt+nhmWCfuDd4PlK2dLqZs2ilRvZPC6zh2BLrjffmUCJMSoFfwXcgEZQajh29h40gq3dvJ1fxcdDI+ezh0ct4FfqLN+QbXDqfM9X1q/5hHwgD/t2KXtlYjbSHwZEvhes0NMA8rbDKEoTDQgY4a/bxseVVMrsVoqvslz6mn+EbmfG8IRRHnaOMxpQZhksr2WwvZs6A9+cHktdeP/Hx/OVP70fKuoAr+B7PRGeEmdUBmUHT92YxPqtO9jGPIugbtpubu1cxd1L81X+cduHc/iqkBWK3rqT8PfuZeLdUp4Zt5iv0uXxjHOybE22Nm31pvgdIt2ofsdBkA0oFdkrzLC/85O5ReY4BwX7oakETcUmhQmlPChJe29aPDI+KhnJQe8V9hYQ+sg7o1K3rl2Z0kW9bxO4eNhUNuApGreYFKImDDwaIn2uE10NZwKk9WVUjWgIf09dWnQgQNw6eJMXq9VVx83Dmefgy7m5qQQBKpQt/I7fdYgIh6Gnwpg8pIPt5LvMWSnzjg+LoR8XdybziWHf+mdb3vwuWrPa7R/NYb8pND3d/emP7JsS1LeQd0al7tqmcjFHXsIwc9latmD5xrzqcotqLGGEH2pm8Y8bO3eFq/HaZpOyejRE+lwnT0j1jl4yW4gkqmx6gq9CCKrLNUgLNaW+cwEh0WUKkzIGt2p5gP0/e268nujvFoWRlQ98Po+v9PJ/b8+kergAoEwlTUSkFOOUVZ/Z/wZQLLj947nWJC63PxvSQ04ofhSLlycuYYfcN5pd+tpU9siX8wsmF8ng/Xpq7MJAe3Euk3dGJYwtL+xRJx189/Nq64FKg36PjmPTf1nje5B/ON07xbBu8w7WK+Vh/FHSX8CezsPh6oSJpQxB+WV1UUPm3WnuUaanv15kbXqiEN0LGKf/Hp01WMM2WHw+O/76Y3yDptRVVi5Xhq+yoEkpTU59dpKyobvaVsOMBgUvZ0wn9r8X/Lmx8DpKxBRpdChaEFk2Gi7FZXdgVXWTb3gnWLp6ZubPdXI00HwL6SEn5HfaDfu7/tnsP9hjXy3w1ANF3S/24pJA3hmV8xx00uxAM00nj2ceJjxQaYAI2oCnJrJLMp6SF1cNn8FXzqA7cXFKUU9Rlxd1ZFzV8oVST6PmlowRhsCrnk/U/N0zwl+8vVrFwvtX3WH+vgqXKDRmgF8zhjHq6MIAWRo0dplQR1eubNHt8/TnJ1vdpGmyK4LBjWiKTsoqlA7ZM0Fj5jlPU/OjXJlsKh+T05LoOA9CWvW2TvXOJvEr35uASoQ7LH0clCg+9pAXVC1XwLsu4+XsutXWYh8zxUnWRV4ZlWm8SCakx03bSIOg6zsrbTvAdN0Pt/rczdvNb5JCKgbRG6DiSH0663crCqhKFHklKCpEnfIxbekavkoPp2qKzSlFiHSkfu+PKTUdN/a6d3upign888Ws4LvuWmg/tvnsq4tXbtIeYAlCUq0K6x2Mubh0mT+Y8ZtVhvX7Ovc09wbJGW57+0htGtqmkFdGpVMna9zsSHizcAIpfR2b1tI/k49WPqVp3upfttR2w5oV+Soa/53iXMMDDT7TGRliChDSRaqc90r4OdxBdOTcUE1Txcnc39fzVSHHPDGBr5Ll6H+ry6iYCpq8gjiZH/CynjU50H2f5CmByFf96hX4lTsol3DrAr/uvzMSGwObdC3sxhg78iE71+vBr12jjyiXk/ltbX41q+WUUfnnJu+Hb3hMo8fcWLxyIxvH07ZpSjRg7Nbon8Kljuz0eCD5uspnQ0rEyHWkhz4whq/04ZYKmbhoFZu6dI3REWIhRA3iGHUIjxy8MzUeSRA//Mo1tmz/i3W5ZxS/SpYnRidfDrN8fbIHc1jk7m8Zt2YHJzDQApxvc3A63DGSvfld/mmG4r6pavkO+XAOG/Sef8Pq9F/WOnbf4915d9r/2H+/16MK4MdVb3mXZ0VFzixFLbXyA+l8dHwDDNywU1rScgVy9DLXySmj0qTSA3gi//q80JO74JUpfJUOc34rHjXJZz5PeR43xgdOWJC+TISbM2P/XUzQcPOcZcHqoKhoEboB4euweBXt42cd9P4PqRlaD46cbzW/5SJLYq6ttksZxQGa8VQMqqRZE3G4w1nPT2YXvzq12Hs8a9naYnvAZwEa5pzewXyTeXphfLRSmzCM5YarnIkTzaK1KwerW0cm0m0PN428Sn8ngfC0UbsjRtuBMfNWFsi73PrBD5a3lyTtGlbjq2i8+m24yRZxYtrLJD6OCcXwbrPod0i1ZW4HhT2imTQ3xzTa8N7PfipIjcaBSpd7uztG8lWylNlNbUuvX608XxUFhkucpPm8pYmX9JcfaGz78Y8NbPLPq60mNUx9gTzNPZ/+yI594ptQUmCCMbYMl4jozfsjG6CIc9stlaCA50ZbpBJZPS/WZJxBr5pIVfB9Q8dSbtQSSjGIWIrpPXglPp/tHSS54s1p7JaICilJQUZlQLxeNNHR+tqkX2KtE9nsYLDWrOTs+QQ1fAZ/aN6D+9u64gbRhzPCFzdDPuXWCAaNaAaoYPCkne1SBEK3lJYOvlkYj5D5mzGPTFTtck8DuSPdDac0HNiksQkNURmI45/+3CT+O9masj9s73NJNTKD0P3+oqU9K9Zvs7qan+Wp1Sj3EHqOAHJMrYd8Ya3vyzhlAAEUGLRxEHRKWbd/hZfjEeoA4IZ3ZvKVM8c/+Q076T/f8qvwQPoNOpYyog4bWZTOd2fH/kL6zU/BZcQPf7CPI5x5SZI3RmVcEiNO3WNu80Htg/oVAwaBeX1ysEhi2Jm6abA8ZNrl20XBjZPXMobHnN+867f85FmEwY5OaNPSnfIYTxOiqjKIGkRpMHNr0Nhg+9l1T+AJcshCdzHpWcKqkkK7uzRLQYYK3flBcfsu8OfNlGZzr92y3eo8xjPpdPDmI6pajKrYAwsoQbn89WkFWbQwEUa75I1dzxcGbRKi3cvWeL9XQh4tKiqOrF80Mwq9963LV8HBvhalZCgp8saoVO0AfPTLYEX0TqlXt9QaNg4hItztX2O0H+T3jviR3fK+cyTxma+dG178xOCdeHjkvIJGjCTBZAIn/OQxZONQ9WAd+KZ3F3cVm/alE7+uzm4+Z73wHbvyrWQ6wtcrjiGVZ+oGyTYl2Y25NYKsiYq+3SnPTgrdUIXU1T+enmjVrQEYQnLUyIvr3p7Jnh6rZ1qNKrdm9gcV58zr3jl1qPpx47vONa67OTx42MPOfWmKY8PEP56JHiVKAjTNBGnOfIIPFtDBYCkNincdWsNiwlqUVDuQjSqn7zAqco3pCU9N5Cv9rEzYsfPCq/McaiNjfbRam93ymW8wJG3yxqhUTYe+rDAT1I7T66T60vp5X0F5xqNTGpuKE7uH0NF8PLMBvhdjTZobmOzhhN9oRHnTQ12MCotWejcl+PWw3M1FxZHSgArAtF/WxK4CIBvMcQgHl1dMoXoRRcvzjOcmFan1ckO1SShIpAWOoOiyRXfxlCVrCsSSw4yg/JZHShFNx/SruPkqc99U5KQwHs8NlQlMMkHuDZQTJmbuh1P9Jh5vjNp9dtyiVBxbVdrf8SXb5+YR/MofJ/mpsEx3iXqKprsaLqVQXohyCKfJSnE07siRcvtENJmo0X4x41tXl3WU4Rqoi3Xjhoxjdk7G2bK/vygVaTqo6Hfy4BfzHINdppA3RuXDKY1K9MJtFFQukMYz61QrCoIO4/+Pg/ala5e0xw/6p2L0WwBvu/Pd8crYyIXfTs/9oQ7RNNUGDrB1h7fThHvmZZSArh4jyfwiyd9kDI5zX/ZXU4B0igp38LoxFVoN/twyGMCP3BBYwA0mtzpEL/Bn4KA+LWMoi/q1uBkcUa9XZ2AqjNTZ65N/YfeM+MnS/IOBiallMr8YNnfdjxiCfcVwG9aggpcME+oMk+LFCT8XqbkFusbrwpFRBSVNbnX3T2qePCVzUcbZaj90pBWouO+zHzP7Jf8XHDQFm1yLnHNGpdtc5yTZlHBndxTCFt5DLinuUXhymrVOlXJ8VQhqSN2MO696Obn0wC0F+raHFpvKhBG57AKfNc7pGXLXpFPUXJ4PDuRoLkop3NKcfpFKlU3eK1qsc0NUKTFZFdA5kMFoSBC1PnlDhEM/ScJEv90kc96PmPGAgQnHSTiFeN9gpD8yyjuI8NSYogf/EY+O017XGIQknHThOGK2dRCwN2J+ddqgieaOT+ay96YX3ZNF41BUUJep6hfOXLbWqruHoS4HJKLKsKmwNvP3YhoTpvTkGjlnVKrWTurCqb5Md62kKmGe5XHzw2spbo3ZeJbTbE5RQ7epNmA4/3cikuTGa5OWuJYiRDWcncbCqdZ0hgGpwzDI4vAopXhnqvO9LeVY9KEPr0Mi6Lulos/qV5PrBGZ42w8TXEPVIQoQbL9o2Pehv0M3dIvwQxQ7KDqmJHkh6p9x2AI/Y/X+L7IOIcSnYYRir5m/PHha34mwqce4xyKKUqegGRad9Z5REGLrsjMfJd1sB8L6qnvbeS9nBfXbDR3JXjGwmexr7uiaiFFGpcpL5zaYPS5QX+iE6uH3paYXAvg1jthBynj0T8uNmE3uhn1mL5Cjboj4yZ2jTlQtX3xknz1NfOsHcwrqamSijsg66N6sLISdOOockyTo4ReljlSe9iN3rfuh4mhVr6j+3ghGzPq9yDPU+6Gv+SoaIzP7AYTzdaLr0A2DiIrFLWqOemXQ88FgU7/syhBBy2jcCPu8C8m5uIDua5jO/Shp87AESWmH6QtwAo7IXyEcgoUZhxIp+f6P6RmFWlbD4PMLMs6pqRhlcah830nUpvgB+RjVl/dCjV9+LZ8CbFGLAjHcM56fbHlbUe4XIoDQmUsKWb5J1lqUERuE0wYlfz9uRdqQN9HNLr2Bo9jYsmOXo99evaL3cyY34cAIDSsYLB9o4uBVfWxVImSqEiHi58LfPWL271o2/yQIWo5zmY8mniqoa9zvti+sMoqlMekZClDDi+adoNizGFG0be2omiWygxQ10u0HmqXCTLjy22eBriivQDQ5+gEJHV1Gr5vgvx9vTP6FPTRynrZmqwg+eBGSrHUNgnFhrDS3cRTVL/3Tf0wZImw3u0j7OHHxq3oMS78uPDEb3T4LN4q+FwzTi4bFO2EjCmKajNNMXNnYcEt7oLzBns5CKjFseist5JKQQ/apxVfeoKvZ6Sf1ewfl23PAnV+yRSvCjfeTI43i4Ff9BlRG0kH6SSWzICJQ+P8wmHQ1CMSN06HrNWN7hKb6OVFSEWRedxTQvBME7OVO9cVR8epUtrNZMiqb1qnEV8FwysS4IUuJqQCjyY/DH0m26fQHnqEKE1l0ouWtn/k2F3rx9tRsav6xUfMjZ0t1nS9p1gh7YYRRiZs8ceEq6yb53e7r35kVi9TEcU9MYEc+Np71eGCs9XnQBHL3p3NZ12bFD+igg/bt4xyjUNUn/R1HCipofU4QvDS7gJ8HPYyPlCzvMJ1BfnHdvN3xC1ZZtW6C5rd8Zo1CC1rsbkcctoiQ6ZaVcgITGez4TfrxayTy+853SKFYRDxVNn8c8jOljVD+X4lUl6pz+eSYoj+724at8n22ub1wtGLczXhjfPToguAUhY+aYg8iv+L/zafDWodmMR2NnqoNW7KaRZe91Zw9O3B6nQZwpEGSvQTHZM5joGvcsVPtexgeGbXAVfpOFYWtUhmd5XW6MMKoPOS+0ez05yezU58tHOflBTxFRBVu+3C2lV6+wBaZCwMOf3vt3nPjF1uiyc+N/7nAK0kzgirwqzfLtZFnsjyOzDYfaRuBk6e9h5TqWOIRgRYbl93waB9hdrMwYM9/eUoiKQoYxnb8Nq3eD0erD3Rqnhr6kb+MDRy246T7IYu5i7raIE8ypDcEbofHi9/8zFdmAOkUL4I03+xdu3gEbOmfm9n7UhdtEGRZFy/irhUMi1yzDeQz5u3vf1WeyIX94ZmMA+ckWeYEnuGojn7cChxB0JWGDsL8EMM7TEfnKa2zvE4XqRuVqE8ME5aG8Owr3y61LPUgdSS1KxevF3tHijza0yxiSkHUB+Ga4dEnrvgZlRMk40IXURoxvJALsMsrFGTLx4T4fmQ+nlk0LerlXYpubftzqCP1ib9z1cb4Ir0C1PogBQlRXOCmDSiiNG73TAVEAp10LO3R3iDI+plhhNdvtU0YcaufRETTLYoJnESf40QoH6B0Qc68nP3id1bEXDUi5vZjXTN8pufPLHCqu5alq3KRQe856wzaI27IfMEoxpSSwx/52tJrdJLpQs0w6kfvlZQLvCJF/1uzpUjT3vYADXB4l/Fn64rU6eDzFGSHTs6RCUtpYppma6pGJbTy2oWICEWJ/uCQt2/iMNS8NM90dZu/Pz1+vSlofKkcIkGxT45A6hSHHiRWolK5XNFaoa0KKQr5p5vxq7M8CyYMoYTh01n+NXfHPvGN9vm2U5bob3BqNfgzvirO0f+ewJ4Ys5Bd9rp7DaxqJgC4SXed8swk6+9RJahD0nKPqnylDurmej001jIMJy92v+/ovE4CFXsM2RZ8XgjVQ+RbNAnB2BTjC2Esq7zPXmlJlHL4vQPiryj6sYv+vcgqvDN1mW92wSRmuShHyHsXntGjHp9gRcVgiLa49bMC4XuBGMkqg0jRtcNnWJFluaxk4qJVrKKtFKWGTwMczrXmt4yw5svjHcOfPTCh8a8q3PbRHEeDW4CGLZ0avV41g7nv8uhDlotLm1KZTUvfUxAAvITwxtPi20G9WP1qFdhbGc/0JhePVjfvXXYI69ioBr9yBp20z41bzC7v2awgWoBDA5M+VMDfEdcc1SX3HVUkovP4aR3Yse325FfBwObz9LhFxTTJWtevykZc1d1ao57owIgTarrsXdNzNJZg6LH7WZtmXODehQURxiAGoQBPj/xyy98hcPrvwIkd92J1q5ZjV2SexUrcAQgT0du3fhV2/REtC7Tf7LRvWJ19cHlXfhV/xBAKCkOOac2uemsG/x1v3O6NHZX/JiqvX9CFdW1Wm18VRdwzr8/Rao8q7LPMe4U9RfUev3XRQY7P3YeZ7wtGl7xvJnEfdCHeR697Mf6GnqxhzYrWGiVWKhmxSw/bx8oayCUpAvy9cCDQJHfKgY2s30OKu62tnveq3s3ZYw5ThExhwo09razO90vWsFaZd7tb5rmc+9t6q7SlZub9mja4L/8vi/PetGXs1UlLQ2mh5hpJvg9j/u8wVr1CWbZ41UbWol4VK2ADy263BITaZRI1Kh8btYCNnb8iLx+oXNpQCX2I752+//wHPl46Lrh+8ul5TeNnydf3nfax/Oa/Fx/MOu9dk1/FQ2JGJbyz1kO+4FcEQRAEQRBEkkTJmqmQSvobNSPd70+/DqBzk5rsuxhq3/yAqPK/T+vImtWtzHbu2mXNn35B6gZFGiGX6peu6dOCtW9Une23Z1Ur9F56t1JWVAcakqgfw+zp5Ru2WqMfMabueZ/u13wF6d7D96vHKu1exmoOEPJU0Ja87vCWlkDvklWbrFpfTADZs3qFYs0B+cY7lxzMBn84p1gdGzI3Gku0tJB2JAcpbKS37HXOphH2Hon/XVL3uGntSqEbzMJyUNOabJJH3W++UGn30uwfnRqyEzo2sGrWL+mxDzu5016sl6bJVEQwWmb2jHtOaMM6Zs7ouJvwUjEqBXHUT6keRPPvOtLqPsYoQ6darziYMaSv77QSgK9E/uJRBK3SCTfq2kNZn4f1C9Xef2JbdvKBDS2ha6Fj+NOd/Vj5CJIZqK+59r8z+VWWR09pz47v0MBau9VUBjl0Dm5ai32roE330jkHWgdMHPIoUWpPAaL8qG1zazxwwyld61RT6cYnV3azHB/7dxzmnb39mNZsQIe9HJvybj1qX3ZB96b8irGzXpjsWo+mg6fP7Mj67FuP3f7xHFancnnPJr2kGXd9T8ei+/O77c0GH92aXxXnvJenuHb8Cz66oitru1d1a63yHcI5/HRgd2tWORpZvrL9+QvvPtKaoKNrdGXStGlQlX18ZbZu2+te2CM62Bdkx98J7PFj561kVw93rtkVfybq5O3vFaSN0IkO7hnQxhq5GDdhyznm3dWP7V56N0uHE8ED/BwrNmxlne/+ip3epZH1+d2YtWytpVIiZrN7AdF3odEZ9rOWFIQ942Q7JE2q3d/vXnowXwWjf5s9+Ko4MCj9bunP9/YvkLPp0aKu9WsSqBiUwOmhUK2DaFa3Cl/pA0X+MCjB1MF92fCLDmJz7zgikkEJKu5efFKEMCi9sO8tb1/i/gxhg7/juP34lTe4vz1a1OFX0fnxjn58xSIZlAD36aMruin9LKOu7cFX0TbhBRnDYf8G1Yp9x4+d2p6v/MEBin/O6bo3q+Yyf1sWhA47nQUGMJok8Gy6MfKaQ1m//euzMpkD8a7j27Cr+jQv+Iw6Ud3SB/Zuzo7JPBuNala0PkOjWhWtw8EOft/LoAQ9W7nvYRjegMYJYVCqIr7nZ//Zib2QcbjwuWD04vPg/u1Tp7L1701D5d4/fHLRZxhRnKPa1OdXWSYN6s1XWU7l+58T7192SMFzhD0eexjWr5zXuYhs2gXd9+YrSGcVfa8Q1buxX0vLyTq2feF+cUPm9+IizP6An6tcmdLWGYXmPfFz1K1S3vp3XgYlwHN4Wc9m/MqbLzXtZfkOspriOUvboASpGpUHNK5pHV5BQar1tM7ZzjknvJ4/dH/abzw8LbzIbjTm3X9R+fdpHfgqPrCJxcHnVx/KV1m6NK3laBAGBZ3uUXESfgZ3D9jf2uCbZw4MP5BSxAap8330m2oThn8e3ISvijPr9sPZGxd0sSKLbsy87XC+8sdtpvZx7RtYndxxsWlb8GcCXeowgG/s14rVreo+3xdpYzfKIMWhCZXzr26Vcuzavi3Y4xnj7evrD+O/m9VuRVYAoONbhdqZPc2N1y84yDp0ooLPBaPXdOz3/q7j9+erojS1GcR456FwMDTjsOEcwHcB40genlCrcjm+Ksro63qwDi6KHpATsktqrfbRrL30sGZW1B7lQ59f3d16p7s30+foRuXV8+M5X9yo5/EuE4XIDlDapGpUAhxeV/dpbq3dDAQZhN3vPaGNFenExhvEYHMaQYeQvR1ENAR1MhuODhCRiEoNl2iPoGGNCnyVG/gJjP+tcDzXzmz2DaoX/7nLZ7xpO6ifdUOInzepVfj8eTktqhzdpj7rqjiHOwqHtaxjjfA8hEvO9N7XOXIlZqVflzFmouBkpISWlpJCEPK1CohQCtzegRfO7sRXziy8pz9fJYOYzw4HV44uICsAw8ZNQkhmjcM4QgBJnLAE+Rq8HJk06dDIOTqLQILgo8u7WWcJ9hEYdI1te4AdPPP4TuCY2X9eu4Eqgz/TblSWC5DZabVHVeudrlohuvOui+YxZMH8+P7WPnxlDjqDDzqwR8NNwIhPc3WfFpZupKon1Lxe9kVGpBMbb1SDDVE3eyoeEY3pg/taESwnEWi7oG2S+IW2VWpJTcJpupEdWRxdpjo3sntkjCoZefqQHHmwI0SJcdgc2rw2O6ptfeugCQsi6eDRU9vHFj22c2jzoj+/X5n0lb2zTlxY+u1XvPxkQEf/sgXUYsnR0irli37HQlctyMZtP+TtBoMdNEj5gWaCpLi2r75o79otxfcoRJOFxmIYVB18oMMBiwOnyU+zhx7BV1na7FWN7VVD/T7BMTulk3sq3I6O6LdbhDQNEF1Pij2rZ/dr0wwmEMLvLYJOo/S7m82KUgJjvjEIkcOz8+OBk9pqSb3KwEBFreViHrGokfFM961flS1aWbw7UK6/8eOu49Xq+vzwexbFZI1yml5EGH0o2I8Lv5pMdIx7IaJj6Cj3w20G7xldGlkd1oJh53dhT57ekV+F45xDsmlq1J7hn7iRI+1hUsh2UCIShJMO2EtpxjFqsUS01I2C2d+KG7dc4+nmeKnUM1/Zq1mBUern8ERFZyq5osO9t9fvhUHluUX3NNB4RmpFfD47fo6qCicrGpVyCQlGQAYFnxcNK3GiGmlOUkhbDETQdZahflkHCHx1auw9wMQPnXfRq9wnLeI/8TQTZzAOB5LqiwMRUVXOPMi9Fi4IFct5H9yN+UFlT9/vFSEljp/xtYyRlRQqhokdUcpQx8GDLlO66Pfo9r3aZ/PmKrJxrjJBCEDiA12cMn73pLR0b1G/ippGHWCyURBUImq9WtV1jWDawX8j0pVwNHQdaHFTuXxxQx0GvBsPn9yOr6Ih9pm+retZv8YJpLbQwR4EBAacSmOiUslnHxbU0uSYiA5oFf6RcfCCgok4fohgS1Kg8QeU3U3PO4j6Zb/yMTdwhkLBAnRvXidypNEv46jKdYdHK2OKC6N2TZV0QWlNX4gqVRw828oZzxHjqVTQWUTrp1tZhR8uqAuafHNvNuWWPtY4zLDAS8bGnBTyIQ5jyen+C8p5RFPQUGLHLXUT9dBpwUsx7JiYsnFju8Pz4VfXKNerwjANGwGS6zP7B8wC2GvW3FCd6243zk89sBHbZptzLKfpo6Db0AnqOJ7QMbjh4QSimagzRJq9ScxNPJu27bQ6h4XjrErLPQr3aTg/SSJHKqOU1Khw5kGN2PkhItQqdcy6o5TCSPMDf69fdkMVt9pjP2B0oztfV4OiLhvmyl56oq+6Mcuo9DASBOXKJvuRL7E1AdhxivA44VXLF5QgaU10ziGCF6VUIO4azZ1So05ZB2OscW33Q0R0WNsPf4HdQcGs4n8e3JhfFSVqKcWw84pHciFuHxdhDRIcODJuxm+pgAmaKJ63/BmCpt7LKEQywkQcj++wZ5EIOGqsdQAd1ncvPYRf6eGgpvE3g/nx27qtfBUPNx7Zyvr1VYf3zYuLD23K9uR7sK6oV9iSlrhrT+GQocEnKCr1xkkiRxS3KJQ3qYBopWqdK7RsAQZVWMMqMk7z5YpSSH44OfJBgVyeqeh5yxIEdY5J4lTP4hU9M42DI3Qf16ikx0N0o1OTorUpm6XmGjD0WPfoguj6hc6fjL0es11m08Sm4ES7vdzTtioGjlMESyXVGpawTspF3Ys6R8+edQC77DDnTdKv6z6qo+2ltxk0IqJU8xviA9udDegYwpAIotHpBGr8oGGo09GMg7Ye74QbcaSZ7ZzRJesU1q6yOzu+/Z7sgm7eETnIawHIn00c1Jtd06c5695CrZs+V9nFbZWGNdOJXEdFlGXc0C/rQAhu4g5FVJBNUVWXEDXJz57VifVqFX95R1DczjMTyDmj0k10V1NEWYlcSm+GDbVD88+rLksHci3gDofQ6AGNa7g2TXh1bcrfkVO0Cl6rkOFxwi5V44b8cuOw01Uz44RsczV3KLIf4iCWjXGgdg7fb48iDUp2nLpm7bhpWNo5wUPEXo5QR0HFCN0/QLOZ03NSn3eihpXOOXL/PSzFiKCp27QIGi0Gbt/CVREaJPaoWt4Ssx9mU1CAsf/oqR3YNT6yWPJ7fVWfFlYzaD4jnMGgmQbgldqtrin97AeM2/cuOyTjNBTdO/pl3h8doO5bNfsGOSpM33IizP0NyqU9mlqaqW5aqyaTO9aRD09F7NiNA4jX5io6a8hUcUtNXGgb46eCkzSMk6H3l4/XGuQewBhZdE9/dqvP9JOoVJDS9WceVDytf55DFCeI/mN5hRITNE548VCEZpAbMgecisaiarNckEjHvLuOtOoEwdFts/WdottTxZiWGZAxrv9z5gFszP8dVmySS1w8cXq0QQt+TkUQwhjinw7sZknMTbq5txVpPNRh0lXakRo0iAWJzgYMwIciSmd7a54B7Oig7SkPv4iTjo1qFBscUSliiZIAAQpVEFDB9C0nouxtKiC1feOR+1q9EVDWuDhjYNrBfhZmL0qKvDEqVdPiT50RzPh08myqeciTHM47IbGZBu1m9kOkdJxwmwrkZzg5AW8RD3PSHOnyEvfx6S7dKk3mUZWDQSefF061mnaE9NBJGQ8bNZtxpr0FXtNTdOH3c6ugGq118voxxk1FY7GBYoNK2EMJEd/7TmhTMKIUUeE2AbvchVGFGuckmt7wmUU9mBfNPES7D5TKUlQI0gF+btcm7OrezdmEG4s7Dojq7rdnNeOjinASvrmpF7/yR3XMrgrIIjkhhkms3LDN+jUM711WvMNeZQhFUHZKB2tPB61hgduIV1WEnJCu/TmK/iucTDegbjA281zZ5c+QzRuUMTDtRB37Gzd5Y1S6pfJkxCQLVZzSYae5zIHFjGzMygUvn3ugdm8CKR0YfE64bVpBf14Ab1FOTSfB/Sdlx9PJ+Hngcqe3KhiR54XQTHRDpNgfzHiutxwVb4RSoFpzKDfmBPEtVPRidRFlnKWKRMjUW/uE7lyFYXxq50YF8ia4fstjtrjMxIzREVUvMigQ7ld5d+VyCDt+TpwTbtFgJwcF2rBX982mo2Xf43yfWslc5SbJMIhC9+ZFU/vYNzFVrl3DrMMTdTiHHIFVbUoNgtzR/Rw/N/OdJauK614LoG7QxEMiDb0cyKKo2jppkTdGZVx1jk6Hnlv3n31DVJE6CQMMviAc3TaYVyPrOyaJmyfp94mCNglgIsZL5xyoJIjtRQKBydDIwvEmFnZHndDh1rlfzzZaVfdEkiD3Mat1mbxzpoIcKRJAGgiHW1DcItNoFLxC6pqtw410vO/ndc1PI1JG9zQauwA3nG5MlRPPmstX4YldFkq8P2I0ZRxTfeSnz6+j/hIpBRwWvxpFlAG4jbnVwfRf1/JVcMJ8r2mQN0ZlUogidvkLhowMtKwAopQNA4z+CoqTJ7rYYfJPGIZfpC7qnhROUwOOax8+BfCvjGffs1X4jUPUHEbRANWFm/Mil164OV1pGsZ+zRZhiTtq/NV1PfjKnQMCOn+62Kwov/LnRmfN2yDjGf3AngiHz97whsyJPUqVI+dkqiy8+0i+yjadNa1Tib19ycEFUfMomQWMIgYo0xh7fbYcQdSF+000i8KGAILuIEqkFxqnAq/0M0B53HNnRY+a4n6KqUB2xIhPGO6idvvynvv4jlvEUIjbjtEzmS9uyKgMiEilwSu0C7jaZ/ke1rJu6JRbWJat2cxX0QhSzJwmcaRkguI0ySdp5BnnAvn5czt44jw4/IhLtw81R26lFDpwU6CwM/xi9TS5TvzmvgvcpiY9dcYBfEXoBAMzwoIoHtQUoCzxycDuVoQekWHok2LSjVz6pFrPDJxKJWryDE6cW0OSCTG7AL5fpgE/s66zG/qfjaX6S1F7vHx9Yd0ramH9xi2efUgTdmIKfQ5hyCmj0jR9yP68OxSoyM/ECQzZqOiMUsTNKVJdq85CeBV+urOfNS8+bdxKBuy/3bmJ++d0S4Oq4iRflATvXOIdUUdEAhGANEBXeliB7LSJUuOqgmqdcljQMPfxFd34lTlE7WBGx/EtDs2YTgbQzf3V1Q6cFC6E7q+qUHhU4tY4lWe1R+mSV+XKXtmSj7sHFJ2i5LRfJ/F5kiSndr5yPgXocY/BkkEBf+8IaVRdQKxYx+zl0QppPd2ElT+RC70fOaWw6UbHxAJQ1WGmMoBkURqNTEGw1/JpGiRSBDHFZU+u4Zg0fsYwmuSuP0KPaHIQIMaetIMD+u2nR8svbrw64PepUylQd/0XXOrG3rwI4ew2IcTbTQfRR9UI5IAOeymNQURzlVMGA4bqv05sE3gOf1jizCo4EbQvIQhQTkCJh2ge7SY1VTk5TSbLA4Uhr36aU126suMkWpxHD7+u1pP6DpI20QXmqurmD00j407o6Fx/c3UfMwf52zm9S6PAkX1MHlJFTL8Ig44ASAilLO3s36C4jNl9JyR7QAqePiv309aQhQuyB9nTmqYiBO8TCvoVsHKjt6wQavqc9HwFpxzYyBqQkARJHzuoSY0D9Fu8ddHB7HUP6T95pOqhGaMzjISXyeSVUYkNqZJP+kb3YWRCbV8akRFd6Ar9b7XViOnSB83VFCZABOIIPomiQXX/prEeLeoEappwOvxVpUxO6tTQGhMZlpM77WXsRlzX1nmea7xxYbC52roJ69SKdx/PcEXDMghCyzZph91NGUFgohpEHPRvU9ww1jErv7qDnBmknpDedvquhZ0gp7+Hnd+FdfIoT8pF8sqoBF6j+0DFcno3nSHHtLa6vdMADzF0+B78h3fUSHT4uQGh8xv7uY/pihNhuLmJt6uyxdb1etbBxafM5As7pdQ+tFHdQBoGWo6Dj/a/t9jrRH3V6k3OncF+fKRYywZHImwUBCLJ95/UzgiDX+60RpcuRM7TxM+YcAINZ332rZt5XvRmDYQYtxf2MoYLQ2p6CgUETJdKukHSVJyMHpOwlygIHVg/3OrHvXCaYuUl1K/yzILPryo+ZaiKS7kUqFetXOLR6rTIO6PyiP28hXt1d7tCi05Hk0wYnjyjo6Uh5vUwA79pQ6jzuPSwolpySXNkG+dpOqoI0dgTOzZwdSx0TzhKA3kObm+P6SmYpTt9yOFKepzwrm/nNVROgv8qhBnJl8vIck5pG7o/3tGP7eEzPlNgn++NRonnz07GMZb3IrvxE0YfU/DYqe2LiYKXZJJqsgmLaHLE51TdNz5wmPbjxSOntHOsfYdxinfFiW3SdDY3xHsGpx2lQGjOu6qP+5z7lvWqssX3ZiWE8p28MyqvPVxvxE1V9y1JIMWC+lG3RpKSCKJf0P16KIb5yva0blpRaYHbPFodqEjl2Om6Ty3Wco+iRgJS0yWFJrXMUksI27l953HegtCqHGNTw3BjIO+K1Q0aI0xvnjOJSz3qKZMkiCxbkAYsDLdAw5IbOlQOnj7zADbxpt6W844SNDfZNpwZtyk0TuULeWdU6saEhgCZwZhJfGI6DQElEXtwO62odFw8ZuuaF9jrU714/cKDislQxT1CDHptJoBi/OM7mD2D1wu7tI+ubunbFLqF5WhuB96JWz6ilJCppKkD64UY1JE2cd0fleEWiC5GAVkjFeMUZ0aUeeG5BhmVPtSq7J86JKLRZ996BYK7cVKpXOnMoRZ8E9u2I3sAQ7op3zjOYcJEFMPQT4cwKqYY9V2b1S6oX2xZz/wuZJk49jV5wtQgl3ngdtBcg5rvNwLMVLfTsGaFWKeXRQV7DuHM3QP2jyWCh45qFRBdFNPRCH2UqDt6ZpdGgWtN+nrUrOUyTqK3afH82Z1iF10Gj5/WgT3/z+AjuERaw8QRlroQr8Xjp7aPpPd66oGN2DUetUVBOCPzvuYCQ4/bjz0SQWIpX5ClQy9WTLGizjKsduD4G3oV1FMTucUZXRrHIluETJ4qs247gq+yNK1dsurC46DEGJWfDuzG7hrQJrC0g9xNuMvEfHhAUCOI+cV+U0nyDXS3hol0obD7xXOSMXzTAELJl/fM1rod274B6968jrUOQ6NaFdlVmnQ80XghdP5MBhIlAzqWnFpSN4ScGyKPE27MzpEu6aBpMIqmaxycncfqGMBtdK0TaFIdwtUxoKSRr3t8kuSUUak6du0KfkDauwFb+3RAq2KCLmVUDs4cgpBxgD7WLf33tUabEe7AD+nVKj8j1uCcrnsX1LaZBJqSnskDUW8TCSPP4gdUBn6+t78VebQrMEBNoH618mxwRNmwXAT3GY0cJjEos+fnMw1qBCvfOa9bU74idJBTFtK5mcNPhfVbd1i/2ief6BKfHXZeZ77KXe49sTC9eeGhTTMemh6DOx9BXRhGv5nI8/8kg4sIx5Bj4hnB57TPojnn20G92fnd6fA2gXzukodTo6p7ScRDzhiV1aVZz168Nmmp9esBjWsUzIfVRfMcLMoHmLHdjjea0EunDurCjm1nZpdvn9b665FMhnQI9YEGGaJkgBrDRiWk+zhK8IhS33owzqjs7SIF8M1NvfjKH3vBeIt6lTNesvr/Nl85uu2epONG5BylbYfEuV3NkBPKF06kOtASQd0q5di4G7I1rlTr6syLZ3didx8fvkGRKCQnIpUYzRZ2Vik8l/rV9Gjnjb6uB18RRLoM7K2nw9p0MDFKoKuERReQEoIAfK5SsxINTyhJTB/c13eMcUml1771WOs9kykDQ9T4hI7FpdzyBeOMylUbt/FVeESaVzdVA6TgCSJOysbQaGEiNSvtbs3UfvL0jlaDmUlAygYC8ARhMj1aZksdathGcxLp8dEVXdk9A/I3KmqcUakjRYvGinMOoY5mGUwjuai7WrMTQZgCGj2Oalufyjc0U7kcOcn5zoiB3Wmcr2FAJSGf97KcSH+jQzkImHZx+7F65tmCWnni4fVvU5/dfFTJmUFKEIQ753Zrwt69tGRp1ZY0kkrpmsCS+47iKyJNjDMqncboQbQ6TSDmSxCmAEHw/Rvk38hIIlkQwTqgcU1+RRC5y5yhRSfjEOlhnFF5/RHmaQJSLQphEl9f35P1dFFJIAiCyFfeuLALXzE28ppCucCwjbyEfowzKts3rM5XBEEQBEEQWexZyxY5qhmd7+RETSVBzBjSl68IgiAIgjAR443KG/q15Kv0wfB5Ih3QMUcQBEH407NlXXajQWenTs7s0oivGBt1bQ/22Cnt+RVhAkZaSUOPLZxLa8I4sTK7lWL3n9SWVaG6jVS5rm/hLHeqoSEIgnCmbtXy7NLDmvGr/OK4DoXC4c3qVi5yTaSPkUZl+bJmfSxM8ji5U0PjJnqUNDo1KexU/cs+i5MgCIIgiNQx0qjcumMXXxGEM7uVkIkyBEEQRCF7VC3PKpWjQQimYqRRuWd1PbO6ifylAT0jBEEQJY6GNSuyOUP78SvCNIw0Kvu2rsdXjFWhUWKERAUa10cQBEEQxmGkUSlAbWWjWhX5FUEQBEEQBGEqhhuVFJEiCIIgCILIBYw2KgnCzt+Z/yMIgiAIwkzIqCRyht1L0+NKEARBEKZCpzSRM9BEI4IgCIIwFzqliZyhZiUa1UgQBEEQpkJGJZEz7FWDlAAIgiAIwlSMNSrbNazGOtvG8hEEQRAEQRDmYqxROey8LuyRU9rzK4IoZOvOv/iKIAiCIAhTMNaorFahLKtUrgy/IohCKtNzQRAEQRDGQTWVRE5xdNv67LTOjfgVQRAEQRCmUOrvDHxNEMaDx7VUqVL8iiAIgiAIM2Ds/wHRJGEoTabJLgAAAABJRU5ErkJggg==;container=0;" parent="NADUIRsd1BDECD5ReKx2-1" vertex="1">
          <mxGeometry x="43.54838709677419" y="288.6829168791434" width="622.0137735615264" height="112.92231895216817" as="geometry" />
        </mxCell>
        <mxCell id="NADUIRsd1BDECD5ReKx2-2" value="" style="endArrow=none;html=1;rounded=0;strokeWidth=5;" edge="1" parent="1">
          <mxGeometry width="50" height="50" relative="1" as="geometry">
            <mxPoint x="1320" y="830.34" as="sourcePoint" />
            <mxPoint x="1240" y="830" as="targetPoint" />
          </mxGeometry>
        </mxCell>
      </root>
    </mxGraphModel>
  </diagram>
  <diagram id="v8zBajVxk2-tpfgSJtaX" name="Page-2">
    <mxGraphModel dx="1037" dy="619" grid="1" gridSize="10" guides="1" tooltips="1" connect="1" arrows="1" fold="1" page="1" pageScale="1" pageWidth="850" pageHeight="1100" math="0" shadow="0">
      <root>
        <mxCell id="gz-OYg9C14J2_3xaUM7O-0" />
        <mxCell id="gz-OYg9C14J2_3xaUM7O-1" parent="gz-OYg9C14J2_3xaUM7O-0" />
      </root>
    </mxGraphModel>
  </diagram>
</mxfile>
